STARTFONT 2.1
FONT -FontForge-Good Times Rg-Book-R-Normal--86-830-75-75-P-638-ISO10646-1
SIZE 83 75 75
FONTBOUNDINGBOX 171 102 -24 -18
COMMENT "Generated by fontforge, http://fontforge.sourceforge.net"
COMMENT "(c) 1998-2012 Typodermic Fonts Inc. See attached license agreement. If agreement is missing visit typodermicfonts.com for more info. Languages by Chikako Larabie"
STARTPROPERTIES 39
FOUNDRY "FontForge"
FAMILY_NAME "Good Times Rg"
WEIGHT_NAME "Book"
SLANT "R"
SETWIDTH_NAME "Normal"
ADD_STYLE_NAME ""
PIXEL_SIZE 86
POINT_SIZE 830
RESOLUTION_X 75
RESOLUTION_Y 75
SPACING "P"
AVERAGE_WIDTH 638
CHARSET_REGISTRY "ISO10646"
CHARSET_ENCODING "1"
FONTNAME_REGISTRY ""
CHARSET_COLLECTIONS "ISO8859-2 ISO8859-9 ISO8859-4 ISO10646-1"
FONT_NAME "GoodTimesRg-Regular"
FACE_NAME "GoodTimesRg-Regular"
COPYRIGHT "(c) 1998-2012 Typodermic Fonts Inc. See attached license agreement. If agreement is missing visit typodermicfonts.com for more info. Languages by Chikako Larabie"
FONT_VERSION "4.001"
FONT_ASCENT 69
FONT_DESCENT 17
UNDERLINE_POSITION -12
UNDERLINE_THICKNESS 2
X_HEIGHT 62
CAP_HEIGHT 62
RAW_ASCENT 799
RAW_DESCENT 201
NORM_SPACE 25
RELATIVE_WEIGHT 40
RELATIVE_SETWIDTH 50
SUPERSCRIPT_X 0
SUPERSCRIPT_Y 25
SUPERSCRIPT_SIZE 25
SUBSCRIPT_X 0
SUBSCRIPT_Y 0
SUBSCRIPT_SIZE 25
AVG_LOWERCASE_WIDTH 732
AVG_UPPERCASE_WIDTH 729
ENDPROPERTIES
CHARS 372
STARTCHAR space
ENCODING 32
SWIDTH 294 0
DWIDTH 25 0
BBX 1 1 0 0
BITMAP
00
ENDCHAR
STARTCHAR exclam
ENCODING 33
SWIDTH 298 0
DWIDTH 26 0
BBX 12 63 7 0
BITMAP
7FE0
7FE0
7FE0
7FE0
7FE0
7FE0
7FE0
7FE0
7FE0
7FE0
7FE0
7FE0
7FE0
7FE0
7FE0
7FE0
7FE0
7FE0
7FE0
7FE0
7FE0
7FE0
7FE0
7FE0
7FE0
7FE0
7FE0
7FE0
7FE0
7FE0
7FE0
7FE0
7FE0
7FE0
7FE0
7FE0
7FE0
7FE0
7FE0
7FE0
7FE0
7FE0
7FE0
0000
0000
0000
0000
0000
0000
0000
0000
0F00
3FC0
7FE0
7FE0
FFF0
FFF0
FFF0
FFF0
7FE0
7FE0
3FC0
1F00
ENDCHAR
STARTCHAR quotedbl
ENCODING 34
SWIDTH 452 0
DWIDTH 39 0
BBX 27 23 6 40
BITMAP
FFE0FFE0
FFE0FFE0
FFE0FFE0
FFE0FFE0
FFE0FFE0
FFC0FFE0
FFC07FC0
FFC07FC0
7FC07FC0
7FC07FC0
7FC07FC0
7FC07FC0
7FC07FC0
7FC07FC0
7FC07FC0
7FC07FC0
7FC07FC0
7F803FC0
7F803F80
3F803F80
3F803F80
3F803F80
3F803F80
ENDCHAR
STARTCHAR numbersign
ENCODING 35
SWIDTH 697 0
DWIDTH 60 0
BBX 53 63 4 0
BITMAP
000007F8003FC0
000007F8007F80
000007F0007F80
00000FF0007F80
00000FF000FF00
00000FE000FF00
00001FE000FF00
00001FE000FE00
00001FE001FE00
00003FC001FE00
00003FC001FC00
00003FC003FC00
00003F8003FC00
00007F8003FC00
00007F8007F800
00007F0007F800
03FFFFFFFFFFF8
03FFFFFFFFFFF8
03FFFFFFFFFFF8
03FFFFFFFFFFF8
03FFFFFFFFFFF8
03FFFFFFFFFFF8
03FFFFFFFFFFF8
0003FC001FC000
0003FC003FC000
0003F8003FC000
0007F8003FC000
0007F8003F8000
0007F0007F8000
000FF0007F8000
000FF0007F0000
000FF000FF0000
000FE000FF0000
001FE000FF0000
001FE000FE0000
001FC001FE0000
003FC001FE0000
003FC001FC0000
003FC003FC0000
FFFFFFFFFFFC00
FFFFFFFFFFFC00
FFFFFFFFFFFC00
FFFFFFFFFFFC00
FFFFFFFFFFFC00
FFFFFFFFFFFC00
FFFFFFFFFFFC00
01FE000FF00000
01FE000FE00000
01FE001FE00000
03FC001FE00000
03FC001FC00000
03FC003FC00000
03F8003FC00000
07F8003FC00000
07F8003F800000
07F0007F800000
0FF0007F800000
0FF0007F000000
0FF000FF000000
0FE000FF000000
1FE000FF000000
1FE001FE000000
1FC001FE000000
ENDCHAR
STARTCHAR dollar
ENCODING 36
SWIDTH 744 0
DWIDTH 64 0
BBX 54 63 5 0
BITMAP
0000007C000000
0000007C000000
0000007C000000
0000007C000000
0000007C000000
0000007C000000
001FFFFFFFFFF0
00FFFFFFFFFFF0
03FFFFFFFFFFF0
07FFFFFFFFFFF0
1FFFFFFFFFFFF0
1FFFFFFFFFFFF0
3FFFFFFFFFFFF0
7FFFFFFFFFFFF0
7FFFFFFFFFFFF0
7FF8007C000000
FFE0007C000000
FFC0007C000000
FFC0007C000000
FF80007C000000
FF80007C000000
FF80007C000000
FF80007C000000
FF80007C000000
FFC0007C000000
7FC0007C000000
7FE0007C000000
3FF8007C000000
3FFFFFFFFFF000
1FFFFFFFFFFE00
0FFFFFFFFFFF80
07FFFFFFFFFFC0
03FFFFFFFFFFE0
00FFFFFFFFFFF0
001FFFFFFFFFF0
0000007C003FF8
0000007C000FF8
0000007C000FF8
0000007C0007FC
0000007C0007FC
0000007C0007FC
0000007C0003FC
0000007C0007FC
0000007C0007FC
0000007C0007FC
0000007C000FFC
0000007C001FF8
0000007C003FF8
7FFFFFFFFFFFF8
7FFFFFFFFFFFF0
7FFFFFFFFFFFF0
7FFFFFFFFFFFE0
7FFFFFFFFFFFC0
7FFFFFFFFFFF80
7FFFFFFFFFFF00
7FFFFFFFFFFC00
7FFFFFFFFFE000
0000007C000000
0000007C000000
0000007C000000
0000007C000000
0000007C000000
0000007C000000
ENDCHAR
STARTCHAR percent
ENCODING 37
SWIDTH 965 0
DWIDTH 83 0
BBX 75 73 4 -6
BITMAP
0000000000000007F000
000000000000000FE000
000FF0000000001FE000
007FFE000000003FC000
01FFFF800000003F8000
07FFFFC00000007F0000
0FFFFFE0000000FF0000
1FFFFFF0000001FE0000
1FF00FF8000001FC0000
3FC003FC000003F80000
7F0001FC000007F00000
7E0000FE00000FF00000
7E00007E00001FE00000
FC00007E00001FC00000
FC00003F00003F800000
F800003F00007F800000
F800003F0000FF000000
F800003F0000FE000000
F800001F0001FC000000
F800003F0003F8000000
F800003F0007F8000000
F800003F000FF0000000
FC00003F000FE0000000
FC00007E001FC0000000
7E00007E003FC0000000
7E0000FC007F80000000
3F0001FC007F00000000
3FC003F800FE00000000
1FF00FF801FC00000000
0FFFFFF003FC00000000
07FFFFE007F800000000
03FFFFC007F000000000
01FFFF000FE000000000
007FFE001FE000000000
000FF0003FC000000000
000000003F8001FE0000
000000007F000FFFC000
00000000FE003FFFF000
00000001FE007FFFF800
00000003FC00FFFFFE00
00000003F801FFFFFF00
00000007F003FE01FF00
0000000FF007F8007F80
0000001FE007F0001FC0
0000001FC00FE0000FC0
0000003F800FC0000FC0
0000007F000F800007E0
000000FF001F800007E0
000001FE001F800003E0
000001FC001F800003E0
000003F8001F000003E0
000007F8001F000003E0
00000FF0001F000003E0
00000FE0001F800003E0
00001FC0001F800007E0
00003F80001F800007E0
00007F80000F800007E0
0000FF00000FC0000FC0
0000FE000007E0001FC0
0001FC000007F0001F80
0003FC000003F8007F80
0007F8000003FE01FF00
0007F0000001FFFFFE00
000FE0000000FFFFFC00
001FC00000007FFFF800
003FC00000003FFFF000
007F800000000FFFC000
007F0000000001FE0000
00FE0000000000000000
01FE0000000000000000
03FC0000000000000000
07F80000000000000000
0FF00000000000000000
ENDCHAR
STARTCHAR ampersand
ENCODING 38
SWIDTH 759 0
DWIDTH 65 0
BBX 59 63 4 0
BITMAP
0000FFFFC0000000
000FFFFFC0000000
007FFFFFC0000000
00FFFFFFC0000000
03FFFFFFC0000000
07FFFFFFC0000000
0FFFFFFFC0000000
0FFFFFFFC0000000
1FFFFFFFC0000000
1FFFFFFFC0000000
3FFFFFFFC0000000
3FFF800000000000
3FFE000000000000
3FFC000000000000
7FF8000000000000
7FF8000000000000
7FF8000000000000
7FF0000000000000
3FF0000000000000
3FF0000000000000
3FF8000000000000
3FF8000000000000
3FF8000000000000
1FFC000000000000
1FFE000000000000
0FFF800000000000
07FFFFFFFFFFFE00
03FFFFFFFFFFFE00
00FFFFFFFFFFFE00
003FFFFFFFFFFE00
01FFFFFFFFFFFE00
03FFFFFFFFFFFE00
07FFFFFFFFFFFE00
0FFFFFFFFFFFFE00
1FFFFFFFFFFFFE00
3FFF800007FF0000
3FFE000007FF0000
7FF8000007FF0000
7FF0000007FF0000
7FF0000007FF0000
FFF0000007FF0000
FFE0000007FF0000
FFE0000007FF0000
FFE0000007FF0000
FFE0000007FF0000
FFE0000007FF0000
FFF0000007FF0000
FFF0000007FF0000
7FF8000007FF0000
7FFC000007FF0000
7FFE000007FF0000
3FFFC00007FF0000
3FFFFFFFFFFFFFE0
3FFFFFFFFFFFFFE0
1FFFFFFFFFFFFFE0
0FFFFFFFFFFFFFE0
0FFFFFFFFFFFFFE0
07FFFFFFFFFFFFE0
03FFFFFFFFFFFFE0
00FFFFFFFFFFFFE0
007FFFFFFFFFFFE0
000FFFFFFFFFFFE0
0001FFFFFFFFFFE0
ENDCHAR
STARTCHAR quotesingle
ENCODING 39
SWIDTH 255 0
DWIDTH 22 0
BBX 12 23 5 40
BITMAP
FFF0
7FE0
7FE0
7FE0
7FE0
7FE0
7FE0
7FE0
7FE0
7FE0
7FE0
7FC0
3FC0
3FC0
3FC0
3FC0
3FC0
3FC0
3FC0
3FC0
3FC0
3FC0
3FC0
ENDCHAR
STARTCHAR parenleft
ENCODING 40
SWIDTH 356 0
DWIDTH 31 0
BBX 17 79 8 -8
BITMAP
007F80
007F00
00FF00
00FF00
01FE00
01FE00
01FC00
03FC00
03FC00
07F800
07F800
07F800
0FF000
0FF000
0FE000
0FE000
1FE000
1FE000
1FC000
3FC000
3FC000
3F8000
3F8000
3F8000
7F8000
7F8000
7F0000
7F0000
7F0000
7F0000
7F0000
FF0000
FE0000
FE0000
FE0000
FE0000
FE0000
FE0000
FE0000
FE0000
FE0000
FE0000
FE0000
FE0000
FE0000
FE0000
FE0000
FF0000
7F0000
7F0000
7F0000
7F0000
7F0000
7F0000
7F8000
3F8000
3F8000
3F8000
3FC000
3FC000
1FC000
1FC000
1FE000
0FE000
0FE000
0FF000
0FF000
07F000
07F800
03F800
03F800
03FC00
01FC00
01FE00
01FE00
00FF00
00FF00
007F00
007F80
ENDCHAR
STARTCHAR parenright
ENCODING 41
SWIDTH 355 0
DWIDTH 31 0
BBX 18 79 5 -8
BITMAP
7F8000
7F8000
3F8000
3FC000
3FC000
1FE000
1FE000
0FE000
0FF000
0FF000
07F000
07F800
07F800
03F800
03FC00
03FC00
01FC00
01FE00
01FE00
00FE00
00FE00
00FF00
00FF00
007F00
007F00
007F00
007F00
007F80
003F80
003F80
003F80
003F80
003F80
003F80
003F80
003F80
003F80
003FC0
003FC0
003FC0
003FC0
003F80
003F80
003F80
003F80
003F80
003F80
003F80
003F80
003F80
003F80
007F80
007F00
007F00
007F00
007F00
00FF00
00FF00
00FE00
00FE00
01FE00
01FE00
01FC00
01FC00
03FC00
03F800
03F800
07F800
07F000
0FF000
0FF000
0FE000
1FE000
1FE000
3FC000
3FC000
3F8000
7F8000
FF0000
ENDCHAR
STARTCHAR asterisk
ENCODING 42
SWIDTH 469 0
DWIDTH 40 0
BBX 30 28 5 35
BITMAP
0007C000
0007C000
0007C000
0007C000
0007C000
0007C000
0007C000
0007C000
3007C038
7F07C1F8
7FE7CFF8
7FFFFFFC
FFFFFFFC
1FFFFFE0
03FFFF00
003FF800
001FF000
003FF000
007FF800
00FFFC00
00FCFC00
01F87E00
03F83F00
03F03F80
07E01F80
0FE00FC0
03C00F00
01800600
ENDCHAR
STARTCHAR plus
ENCODING 43
SWIDTH 690 0
DWIDTH 59 0
BBX 49 49 5 8
BITMAP
000007F0000000
000007F0000000
000007F0000000
000007F0000000
000007F0000000
000007F0000000
000007F0000000
000007F0000000
000007F0000000
000007F0000000
000007F0000000
000007F0000000
000007F0000000
000007F0000000
000007F0000000
000007F0000000
000007F0000000
000007F0000000
000007F0000000
000007F0000000
000007F0000000
FFFFFFFFFFFF80
FFFFFFFFFFFF80
FFFFFFFFFFFF80
FFFFFFFFFFFF80
FFFFFFFFFFFF80
FFFFFFFFFFFF80
FFFFFFFFFFFF80
000007F0000000
000007F0000000
000007F0000000
000007F0000000
000007F0000000
000007F0000000
000007F0000000
000007F0000000
000007F0000000
000007F0000000
000007F0000000
000007F0000000
000007F0000000
000007F0000000
000007F0000000
000007F0000000
000007F0000000
000007F0000000
000007F0000000
000007F0000000
000007F0000000
ENDCHAR
STARTCHAR comma
ENCODING 44
SWIDTH 259 0
DWIDTH 22 0
BBX 11 23 6 -10
BITMAP
FFE0
FFE0
FFC0
FFC0
FFC0
FFC0
FFC0
FF80
FF80
FF80
FF80
FF80
FF80
FF00
FF00
FF00
FF00
FF00
FE00
FE00
FE00
FE00
FE00
ENDCHAR
STARTCHAR hyphen
ENCODING 45
SWIDTH 296 0
DWIDTH 25 0
BBX 21 7 2 28
BITMAP
FFFFF8
FFFFF8
FFFFF8
FFFFF8
FFFFF8
FFFFF8
FFFFF8
ENDCHAR
STARTCHAR period
ENCODING 46
SWIDTH 262 0
DWIDTH 23 0
BBX 12 12 5 0
BITMAP
0F80
3FC0
7FE0
7FF0
7FF0
FFF0
FFF0
7FF0
7FF0
7FE0
3FC0
0F80
ENDCHAR
STARTCHAR slash
ENCODING 47
SWIDTH 444 0
DWIDTH 38 0
BBX 36 63 1 0
BITMAP
00000007F0
0000000FF0
0000000FE0
0000000FE0
0000001FC0
0000001FC0
0000003F80
0000003F80
0000007F00
0000007F00
000000FF00
000000FE00
000001FE00
000001FC00
000003FC00
000003F800
000007F800
000007F000
000007F000
00000FE000
00000FE000
00001FC000
00001FC000
00003FC000
00003F8000
00007F8000
00007F0000
0000FF0000
0000FE0000
0001FE0000
0001FC0000
0003FC0000
0003F80000
0003F80000
0007F00000
0007F00000
000FF00000
000FE00000
001FE00000
001FC00000
003FC00000
003F800000
007F800000
007F000000
00FF000000
00FE000000
01FE000000
01FC000000
01FC000000
03FC000000
03F8000000
07F8000000
07F0000000
0FF0000000
0FE0000000
1FE0000000
1FC0000000
3FC0000000
3F80000000
7F80000000
7F80000000
FF00000000
FF00000000
ENDCHAR
STARTCHAR zero
ENCODING 48
SWIDTH 838 0
DWIDTH 72 0
BBX 64 63 4 0
BITMAP
0000003FFC000000
000003FFFFC00000
00001FFFFFF80000
0000FFFFFFFF0000
0001FFFFFFFF8000
0007FFFFFFFFE000
000FFFFFFFFFF000
003FFFFFFFFFFC00
007FFFFFFFFFFE00
00FFFFFFFFFFFF00
01FFFFFFFFFFFF80
03FFFFE007FFFFC0
03FFFE00007FFFC0
07FFF800001FFFE0
0FFFE0000007FFF0
0FFFC0000003FFF0
1FFF00000000FFF8
1FFE000000007FFC
3FFE000000007FFC
3FFC000000003FFC
7FF8000000001FFE
7FF8000000001FFE
7FF0000000000FFE
FFF0000000000FFF
FFF0000000000FFF
FFE00000000007FF
FFE00000000007FF
FFE00000000007FF
FFE00000000007FF
FFE00000000007FF
FFE00000000007FF
FFE00000000007FF
FFE00000000007FF
FFE00000000007FF
FFE00000000007FF
FFE00000000007FF
FFE00000000007FF
FFE00000000007FF
FFF0000000000FFF
7FF0000000000FFE
7FF0000000000FFE
7FF8000000001FFE
3FF8000000001FFC
3FFC000000003FFC
1FFE000000007FF8
1FFF00000000FFF8
0FFF80000001FFF0
0FFFC0000003FFF0
07FFE0000007FFE0
07FFF800001FFFE0
03FFFE00007FFFC0
01FFFFE007FFFF80
00FFFFFFFFFFFF00
007FFFFFFFFFFE00
003FFFFFFFFFFC00
001FFFFFFFFFF800
000FFFFFFFFFF000
0003FFFFFFFFC000
0001FFFFFFFF8000
00007FFFFFFE0000
00001FFFFFF80000
000003FFFFC00000
0000003FFC000000
ENDCHAR
STARTCHAR one
ENCODING 49
SWIDTH 385 0
DWIDTH 33 0
BBX 26 63 2 0
BITMAP
FFE00000
FFFE0000
FFFF8000
FFFFC000
FFFFF000
FFFFF800
FFFFFC00
FFFFFC00
FFFFFE00
FFFFFE00
FFFFFF00
007FFF00
000FFF80
0007FF80
0007FF80
0003FF80
0003FF80
0001FFC0
0001FFC0
0001FFC0
0001FFC0
0001FFC0
0001FFC0
0001FFC0
0001FFC0
0001FFC0
0001FFC0
0001FFC0
0001FFC0
0001FFC0
0001FFC0
0001FFC0
0001FFC0
0001FFC0
0001FFC0
0001FFC0
0001FFC0
0001FFC0
0001FFC0
0001FFC0
0001FFC0
0001FFC0
0001FFC0
0001FFC0
0001FFC0
0001FFC0
0001FFC0
0001FFC0
0001FFC0
0001FFC0
0001FFC0
0001FFC0
0001FFC0
0001FFC0
0001FFC0
0001FFC0
0001FFC0
0001FFC0
0001FFC0
0001FFC0
0001FFC0
0001FFC0
0001FFC0
ENDCHAR
STARTCHAR two
ENCODING 50
SWIDTH 825 0
DWIDTH 71 0
BBX 61 63 5 0
BITMAP
7FFFFFFFFFFE0000
7FFFFFFFFFFFE000
7FFFFFFFFFFFF800
7FFFFFFFFFFFFE00
7FFFFFFFFFFFFF00
7FFFFFFFFFFFFF80
7FFFFFFFFFFFFFC0
7FFFFFFFFFFFFFE0
7FFFFFFFFFFFFFE0
7FFFFFFFFFFFFFF0
7FFFFFFFFFFFFFF0
000000000003FFF8
000000000001FFF8
0000000000007FF8
0000000000007FF8
0000000000003FF8
0000000000003FF8
0000000000003FF8
0000000000003FF8
0000000000003FF8
0000000000003FF8
0000000000003FF8
0000000000007FF8
0000000000007FF0
000000000000FFF0
000000000003FFF0
0003FFFFFFFFFFE0
003FFFFFFFFFFFE0
00FFFFFFFFFFFFC0
01FFFFFFFFFFFF80
07FFFFFFFFFFFF00
0FFFFFFFFFFFFE00
0FFFFFFFFFFFF800
1FFFFFFFFFFFE000
3FFFFFFFFFFE0000
3FFF000000000000
3FFC000000000000
7FF8000000000000
7FF0000000000000
7FE0000000000000
7FE0000000000000
7FE0000000000000
FFE0000000000000
FFE0000000000000
FFE0000000000000
FFE0000000000000
FFE0000000000000
FFE0000000000000
FFE0000000000000
FFE0000000000000
FFE0000000000000
FFE0000000000000
FFFFFFFFFFFFFFF0
FFFFFFFFFFFFFFF0
FFFFFFFFFFFFFFF0
FFFFFFFFFFFFFFF0
FFFFFFFFFFFFFFF0
FFFFFFFFFFFFFFF0
FFFFFFFFFFFFFFF0
FFFFFFFFFFFFFFF0
FFFFFFFFFFFFFFF0
FFFFFFFFFFFFFFF0
FFFFFFFFFFFFFFF0
ENDCHAR
STARTCHAR three
ENCODING 51
SWIDTH 827 0
DWIDTH 71 0
BBX 63 63 4 0
BITMAP
FFFFFFFFFFFE0000
FFFFFFFFFFFFE000
FFFFFFFFFFFFFC00
FFFFFFFFFFFFFE00
FFFFFFFFFFFFFF80
FFFFFFFFFFFFFFC0
FFFFFFFFFFFFFFE0
FFFFFFFFFFFFFFE0
FFFFFFFFFFFFFFF0
FFFFFFFFFFFFFFF0
FFFFFFFFFFFFFFF8
000000000007FFF8
000000000001FFF8
0000000000007FFC
0000000000003FFC
0000000000003FFC
0000000000003FFC
0000000000001FFC
0000000000001FFC
0000000000001FF8
0000000000001FF8
0000000000003FF8
0000000000003FF8
0000000000007FF0
000000000000FFF0
000000000003FFE0
0001FFFFFFFFFFC0
0001FFFFFFFFFF80
0001FFFFFFFFFE00
0001FFFFFFFFFC00
0001FFFFFFFFFF00
0001FFFFFFFFFF80
0001FFFFFFFFFFC0
0001FFFFFFFFFFE0
0001FFFFFFFFFFF0
000000000003FFF8
0000000000007FF8
0000000000003FFC
0000000000001FFC
0000000000001FFC
0000000000001FFE
0000000000000FFE
0000000000000FFE
0000000000000FFE
0000000000000FFE
0000000000000FFE
0000000000001FFE
0000000000001FFE
0000000000003FFC
0000000000007FFC
000000000001FFFC
000000000007FFFC
FFFFFFFFFFFFFFF8
FFFFFFFFFFFFFFF8
FFFFFFFFFFFFFFF0
FFFFFFFFFFFFFFE0
FFFFFFFFFFFFFFE0
FFFFFFFFFFFFFFC0
FFFFFFFFFFFFFF00
FFFFFFFFFFFFFE00
FFFFFFFFFFFFF800
FFFFFFFFFFFFE000
FFFFFFFFFFFF0000
ENDCHAR
STARTCHAR four
ENCODING 52
SWIDTH 845 0
DWIDTH 73 0
BBX 67 63 4 0
BITMAP
FFE000000001FF8000
FFE000000001FF8000
FFE000000001FF8000
FFE000000001FF8000
FFE000000001FF8000
FFE000000001FF8000
FFE000000001FF8000
FFE000000001FF8000
FFE000000001FF8000
FFE000000001FF8000
FFE000000001FF8000
FFE000000001FF8000
FFE000000001FF8000
FFE000000001FF8000
FFE000000001FF8000
FFE000000001FF8000
FFE000000001FF8000
FFE000000001FF8000
FFE000000001FF8000
FFE000000001FF8000
FFE000000001FF8000
FFE000000001FF8000
FFE000000001FF8000
FFE000000001FF8000
FFE000000001FF8000
FFE000000001FF8000
FFE000000001FF8000
FFE000000001FF8000
FFE000000001FF8000
FFE000000001FF8000
FFF000000001FF8000
7FF000000001FF8000
7FF800000001FF8000
7FFC00000001FF8000
7FFF80000001FF8000
3FFFFFFFFFFFFFFFE0
3FFFFFFFFFFFFFFFE0
1FFFFFFFFFFFFFFFE0
1FFFFFFFFFFFFFFFE0
0FFFFFFFFFFFFFFFE0
07FFFFFFFFFFFFFFE0
03FFFFFFFFFFFFFFE0
01FFFFFFFFFFFFFFE0
007FFFFFFFFFFFFFE0
001FFFFFFFFFFFFFE0
0001FFFFFFFFFFFFE0
000000000001FF8000
000000000001FF8000
000000000001FF8000
000000000001FF8000
000000000001FF8000
000000000001FF8000
000000000001FF8000
000000000001FF8000
000000000001FF8000
000000000001FF8000
000000000001FF8000
000000000001FF8000
000000000001FF8000
000000000001FF8000
000000000001FF8000
000000000001FF8000
000000000001FF8000
ENDCHAR
STARTCHAR five
ENCODING 53
SWIDTH 885 0
DWIDTH 76 0
BBX 67 63 5 0
BITMAP
FFFFFFFFFFFFFFFF00
FFFFFFFFFFFFFFFF00
FFFFFFFFFFFFFFFF00
FFFFFFFFFFFFFFFF00
FFFFFFFFFFFFFFFF00
FFFFFFFFFFFFFFFF00
FFFFFFFFFFFFFFFF00
FFFFFFFFFFFFFFFF00
FFFFFFFFFFFFFFFF00
FFFFFFFFFFFFFFFF00
FFFFFFFFFFFFFFFF00
FFF000000000000000
FFF000000000000000
FFF000000000000000
FFF000000000000000
FFF000000000000000
FFF000000000000000
FFF000000000000000
FFF000000000000000
FFF000000000000000
FFF000000000000000
FFF000000000000000
FFF000000000000000
FFF000000000000000
FFF000000000000000
FFF000000000000000
FFFFFFFFFFFFF80000
FFFFFFFFFFFFFF8000
FFFFFFFFFFFFFFE000
FFFFFFFFFFFFFFF000
FFFFFFFFFFFFFFFC00
FFFFFFFFFFFFFFFE00
FFFFFFFFFFFFFFFE00
FFFFFFFFFFFFFFFF00
FFFFFFFFFFFFFFFF80
0000000000001FFF80
00000000000007FF80
00000000000003FFC0
00000000000001FFC0
00000000000000FFC0
00000000000000FFC0
00000000000000FFC0
00000000000000FFE0
00000000000000FFE0
00000000000000FFE0
00000000000000FFE0
00000000000000FFE0
00000000000001FFC0
00000000000001FFC0
00000000000003FFC0
00000000000007FFC0
0000000000001FFFC0
FFFFFFFFFFFFFFFF80
FFFFFFFFFFFFFFFF80
FFFFFFFFFFFFFFFF00
FFFFFFFFFFFFFFFF00
FFFFFFFFFFFFFFFE00
FFFFFFFFFFFFFFFC00
FFFFFFFFFFFFFFF800
FFFFFFFFFFFFFFF000
FFFFFFFFFFFFFFC000
FFFFFFFFFFFFFF0000
FFFFFFFFFFFFF80000
ENDCHAR
STARTCHAR six
ENCODING 54
SWIDTH 872 0
DWIDTH 75 0
BBX 66 63 4 0
BITMAP
000003FFFFFFFFFF00
00007FFFFFFFFFFF00
0003FFFFFFFFFFFF00
000FFFFFFFFFFFFF00
001FFFFFFFFFFFFF00
007FFFFFFFFFFFFF00
00FFFFFFFFFFFFFF00
01FFFFFFFFFFFFFF00
03FFFFFFFFFFFFFF00
07FFFFFFFFFFFFFF00
07FFFFFFFFFFFFFF00
0FFFFE000000000000
1FFFF0000000000000
1FFFC0000000000000
3FFF00000000000000
3FFE00000000000000
3FFC00000000000000
7FFC00000000000000
7FF800000000000000
7FF800000000000000
7FF000000000000000
FFF000000000000000
FFE000000000000000
FFE000000000000000
FFE000000000000000
FFE000000000000000
FFFFFFFFFFFFF80000
FFFFFFFFFFFFFF8000
FFFFFFFFFFFFFFE000
FFFFFFFFFFFFFFF000
FFFFFFFFFFFFFFFC00
FFFFFFFFFFFFFFFE00
FFFFFFFFFFFFFFFE00
FFFFFFFFFFFFFFFF00
FFFFFFFFFFFFFFFF80
FFE0000000003FFF80
FFE00000000007FF80
FFE00000000003FFC0
FFE00000000001FFC0
FFE00000000001FFC0
FFF00000000000FFC0
7FF00000000000FFC0
7FF00000000000FFC0
7FF80000000000FFC0
7FF80000000000FFC0
3FFC0000000000FFC0
3FFE0000000001FFC0
3FFE0000000001FFC0
1FFF8000000003FFC0
1FFFC000000003FFC0
0FFFF00000000FFFC0
0FFFFE0000003FFF80
07FFFFFFFFFFFFFF80
03FFFFFFFFFFFFFF80
01FFFFFFFFFFFFFF00
00FFFFFFFFFFFFFE00
007FFFFFFFFFFFFE00
003FFFFFFFFFFFFC00
001FFFFFFFFFFFF800
0007FFFFFFFFFFF000
0001FFFFFFFFFFC000
00007FFFFFFFFF0000
000003FFFFFFF00000
ENDCHAR
STARTCHAR seven
ENCODING 55
SWIDTH 756 0
DWIDTH 65 0
BBX 59 63 4 0
BITMAP
FFFFFFFFFFFFFF00
FFFFFFFFFFFFFFC0
FFFFFFFFFFFFFFC0
FFFFFFFFFFFFFFE0
FFFFFFFFFFFFFFE0
FFFFFFFFFFFFFFE0
FFFFFFFFFFFFFFE0
FFFFFFFFFFFFFFE0
FFFFFFFFFFFFFFC0
FFFFFFFFFFFFFFC0
FFFFFFFFFFFFFF80
00000000001FFF00
00000000003FFE00
00000000007FFE00
0000000000FFFC00
0000000001FFF800
0000000001FFF000
0000000003FFE000
0000000007FFE000
000000000FFFC000
000000001FFF8000
000000003FFF0000
000000003FFE0000
000000007FFE0000
00000000FFFC0000
00000001FFF80000
00000003FFF00000
00000007FFE00000
00000007FFC00000
0000000FFFC00000
0000001FFF800000
0000003FFF000000
0000007FFE000000
0000007FFC000000
000000FFFC000000
000001FFF8000000
000003FFF0000000
000007FFE0000000
00000FFFC0000000
00000FFFC0000000
00001FFF80000000
00003FFF00000000
00007FFE00000000
0000FFFC00000000
0001FFFC00000000
0001FFF800000000
0003FFF000000000
0007FFE000000000
000FFFC000000000
001FFF8000000000
001FFF8000000000
003FFF0000000000
007FFE0000000000
00FFFC0000000000
01FFF80000000000
03FFF80000000000
03FFF00000000000
07FFE00000000000
0FFFC00000000000
1FFF800000000000
3FFF800000000000
3FFF000000000000
FFFE000000000000
ENDCHAR
STARTCHAR eight
ENCODING 56
SWIDTH 898 0
DWIDTH 77 0
BBX 69 63 4 0
BITMAP
0000FFFFFFFFF80000
000FFFFFFFFFFF8000
003FFFFFFFFFFFF000
00FFFFFFFFFFFFF800
01FFFFFFFFFFFFFE00
07FFFFFFFFFFFFFF00
07FFFFFFFFFFFFFF80
0FFFFFFFFFFFFFFF80
1FFFFFFFFFFFFFFFC0
1FFFFFFFFFFFFFFFC0
3FFFFFFFFFFFFFFFE0
3FFFE00000001FFFE0
3FFF0000000007FFE0
3FFC0000000001FFF0
3FFC0000000000FFF0
3FF80000000000FFF0
3FF80000000000FFF0
3FF800000000007FF0
3FF800000000007FF0
3FF800000000007FE0
3FF80000000000FFE0
3FF80000000000FFE0
1FF80000000000FFE0
1FFC0000000001FFC0
0FFE0000000003FFC0
0FFF800000000FFF80
07FFFFFFFFFFFFFF00
01FFFFFFFFFFFFFE00
00FFFFFFFFFFFFF800
003FFFFFFFFFFFF000
01FFFFFFFFFFFFFC00
03FFFFFFFFFFFFFE00
07FFFFFFFFFFFFFF00
0FFFFFFFFFFFFFFF80
1FFFFFFFFFFFFFFFC0
3FFF800000000FFFE0
3FFE0000000003FFE0
7FFC0000000000FFF0
7FF80000000000FFF0
7FF000000000007FF0
7FF000000000007FF8
FFF000000000003FF8
FFE000000000003FF8
FFE000000000003FF8
FFE000000000003FF8
FFF000000000003FF8
7FF000000000007FF8
7FF000000000007FF8
7FF80000000000FFF0
7FFC0000000001FFF0
7FFF0000000007FFF0
3FFFE00000001FFFE0
3FFFFFFFFFFFFFFFE0
1FFFFFFFFFFFFFFFE0
1FFFFFFFFFFFFFFFC0
0FFFFFFFFFFFFFFF80
07FFFFFFFFFFFFFF80
03FFFFFFFFFFFFFF00
01FFFFFFFFFFFFFE00
00FFFFFFFFFFFFF800
003FFFFFFFFFFFF000
000FFFFFFFFFFF8000
0001FFFFFFFFFC0000
ENDCHAR
STARTCHAR nine
ENCODING 57
SWIDTH 861 0
DWIDTH 74 0
BBX 66 63 4 0
BITMAP
0007FFFFFFF0000000
003FFFFFFFFF000000
00FFFFFFFFFFE00000
01FFFFFFFFFFF80000
03FFFFFFFFFFFE0000
07FFFFFFFFFFFF0000
0FFFFFFFFFFFFF8000
1FFFFFFFFFFFFFC000
3FFFFFFFFFFFFFE000
3FFFFFFFFFFFFFF000
7FFFFFFFFFFFFFF800
7FFF0000001FFFF800
7FFC00000003FFFC00
FFF800000000FFFE00
FFF0000000007FFE00
FFF0000000001FFF00
FFE0000000001FFF00
FFE0000000000FFF00
FFE00000000007FF80
FFE00000000007FF80
FFE00000000003FF80
FFE00000000003FF80
FFE00000000003FFC0
FFE00000000001FFC0
FFE00000000001FFC0
FFF00000000001FFC0
FFF80000000001FFC0
7FFC0000000001FFC0
7FFF0000000001FFC0
7FFFFFFFFFFFFFFFC0
3FFFFFFFFFFFFFFFC0
3FFFFFFFFFFFFFFFC0
1FFFFFFFFFFFFFFFC0
0FFFFFFFFFFFFFFFC0
07FFFFFFFFFFFFFFC0
01FFFFFFFFFFFFFFC0
007FFFFFFFFFFFFFC0
000FFFFFFFFFFFFFC0
00000000000001FFC0
00000000000001FFC0
00000000000003FFC0
00000000000003FFC0
00000000000003FF80
00000000000007FF80
00000000000007FF80
0000000000000FFF80
0000000000000FFF00
0000000000001FFF00
0000000000003FFF00
000000000000FFFE00
000000000003FFFE00
00000000001FFFFC00
01FFFFFFFFFFFFF800
01FFFFFFFFFFFFF800
01FFFFFFFFFFFFF000
01FFFFFFFFFFFFE000
01FFFFFFFFFFFFC000
01FFFFFFFFFFFF8000
01FFFFFFFFFFFF0000
01FFFFFFFFFFFC0000
01FFFFFFFFFFF00000
01FFFFFFFFFF800000
01FFFFFFFFF8000000
ENDCHAR
STARTCHAR colon
ENCODING 58
SWIDTH 262 0
DWIDTH 23 0
BBX 12 40 5 0
BITMAP
0F80
3FC0
7FE0
7FF0
7FF0
FFF0
FFF0
7FF0
7FF0
7FE0
3FC0
0F80
0000
0000
0000
0000
0000
0000
0000
0000
0000
0000
0000
0000
0000
0000
0000
0000
0F80
3FC0
7FE0
7FF0
7FF0
FFF0
FFF0
7FF0
7FF0
7FE0
3FC0
0F80
ENDCHAR
STARTCHAR semicolon
ENCODING 59
SWIDTH 262 0
DWIDTH 23 0
BBX 12 50 5 -10
BITMAP
0F80
3FC0
7FE0
7FF0
7FF0
FFF0
7FF0
7FF0
7FF0
7FE0
3FC0
0F80
0000
0000
0000
0000
0000
0000
0000
0000
0000
0000
0000
0000
0000
0000
0000
7FF0
7FF0
7FE0
7FE0
7FE0
7FE0
7FE0
7FC0
7FC0
7FC0
7FC0
7FC0
7FC0
7F80
7F80
7F80
7F80
7F80
7F00
7F00
7F00
7F00
7F00
ENDCHAR
STARTCHAR less
ENCODING 60
SWIDTH 690 0
DWIDTH 59 0
BBX 49 46 5 9
BITMAP
00000000000180
00000000000F80
00000000003F80
0000000000FF80
0000000007FF80
000000001FFF80
000000007FFF80
00000003FFFF80
0000000FFFFC00
0000003FFFF000
000001FFFF8000
000007FFFE0000
00003FFFF00000
0000FFFFC00000
0003FFFE000000
001FFFF8000000
007FFFC0000000
01FFFF00000000
0FFFF800000000
3FFFC000000000
7FFF0000000000
7FF80000000000
FFE00000000000
FFE00000000000
7FFC0000000000
7FFF0000000000
3FFFE000000000
0FFFF800000000
01FFFF00000000
007FFFC0000000
000FFFF8000000
0003FFFE000000
0000FFFFC00000
00001FFFF00000
000007FFFE0000
000001FFFF8000
0000003FFFF000
0000000FFFFC00
00000003FFFF80
000000007FFF80
000000001FFF80
0000000003FF80
0000000000FF80
00000000003F80
00000000000780
00000000000180
ENDCHAR
STARTCHAR equal
ENCODING 61
SWIDTH 690 0
DWIDTH 59 0
BBX 49 31 5 17
BITMAP
FFFFFFFFFFFF80
FFFFFFFFFFFF80
FFFFFFFFFFFF80
FFFFFFFFFFFF80
FFFFFFFFFFFF80
FFFFFFFFFFFF80
FFFFFFFFFFFF80
00000000000000
00000000000000
00000000000000
00000000000000
00000000000000
00000000000000
00000000000000
00000000000000
00000000000000
00000000000000
00000000000000
00000000000000
00000000000000
00000000000000
00000000000000
00000000000000
00000000000000
FFFFFFFFFFFF80
FFFFFFFFFFFF80
FFFFFFFFFFFF80
FFFFFFFFFFFF80
FFFFFFFFFFFF80
FFFFFFFFFFFF80
FFFFFFFFFFFF80
ENDCHAR
STARTCHAR greater
ENCODING 62
SWIDTH 690 0
DWIDTH 59 0
BBX 49 46 5 9
BITMAP
E0000000000000
F8000000000000
FE000000000000
FFC00000000000
FFF00000000000
FFFC0000000000
FFFF8000000000
FFFFE000000000
1FFFF800000000
07FFFF00000000
00FFFFC0000000
001FFFF8000000
0007FFFE000000
0000FFFF800000
00003FFFF00000
000007FFFC0000
000001FFFF0000
0000003FFFE000
0000000FFFF800
00000001FFFE00
000000007FFF00
000000000FFF80
0000000001FF80
0000000003FF80
000000000FFF80
000000007FFF00
00000001FFFE00
0000000FFFF800
0000003FFFE000
000001FFFF0000
000007FFFC0000
00003FFFE00000
0000FFFF800000
0007FFFE000000
001FFFF0000000
00FFFFC0000000
03FFFF00000000
1FFFF800000000
7FFFE000000000
FFFF8000000000
FFFC0000000000
FFF00000000000
FFC00000000000
FE000000000000
F8000000000000
C0000000000000
ENDCHAR
STARTCHAR question
ENCODING 63
SWIDTH 776 0
DWIDTH 67 0
BBX 60 63 4 0
BITMAP
FFFFFFFFFFFC0000
FFFFFFFFFFFFC000
FFFFFFFFFFFFF000
FFFFFFFFFFFFF800
FFFFFFFFFFFFFE00
FFFFFFFFFFFFFF00
FFFFFFFFFFFFFF80
FFFFFFFFFFFFFF80
FFFFFFFFFFFFFFC0
FFFFFFFFFFFFFFC0
FFFFFFFFFFFFFFE0
00000000000FFFE0
000000000003FFF0
000000000001FFF0
000000000000FFF0
000000000000FFF0
0000000000007FF0
0000000000007FF0
0000000000007FF0
0000000000007FF0
0000000000007FF0
000000000000FFF0
000000000000FFF0
000000000001FFE0
000000000003FFE0
00000000000FFFC0
0001FFFFFFFFFFC0
000FFFFFFFFFFF80
003FFFFFFFFFFF00
007FFFFFFFFFFF00
00FFFFFFFFFFFE00
01FFFFFFFFFFF800
01FFFFFFFFFFF000
03FFFFFFFFFFC000
03FFFFFFFFFC0000
03FFC00000000000
03FF000000000000
03FF000000000000
03FF000000000000
03FF000000000000
03FF000000000000
03FF000000000000
0000000000000000
0000000000000000
0000000000000000
0000000000000000
0000000000000000
0000000000000000
0000000000000000
0000000000000000
0000000000000000
00F8000000000000
01FE000000000000
03FF000000000000
03FF000000000000
07FF800000000000
07FF800000000000
07FF800000000000
07FF800000000000
03FF000000000000
03FF000000000000
01FE000000000000
00F8000000000000
ENDCHAR
STARTCHAR at
ENCODING 64
SWIDTH 833 0
DWIDTH 72 0
BBX 62 63 4 0
BITMAP
0000007FFFFFFFFC
000007FFFFFFFFFC
00003FFFFFFFFFFC
0000FFFFFFFFFFFC
0001FFFFFFFFFFFC
0007FFFFFFFFFFFC
000FFFFFFFFFFFFC
003FFFFFFFFFFFFC
007FFFC0000003FC
00FFFC00000003FC
01FFF000000003FC
01FFC000000003FC
03FF0000000003FC
07FE0000000003FC
0FFC0000000003FC
0FF80000000003FC
1FF00000000003FC
1FF00000000003FC
3FE0003FFFFE03FC
3FC000FFFFFE03FC
3FC003FFFFFE03FC
7FC007FFFFFE03FC
7F800FFFFFFE03FC
7F800FFFFFFE03FC
FF801FF801FE03FC
FF001FE001FE03FC
FF003FC001FE03FC
FF003FC001FE03FC
FF003F8001FE03FC
FF003F8001FE03FC
FF007F8001FE03FC
FF007F8001FE03FC
FF007F8001FE03FC
FF007F8001FE03FC
FF003F8001FE03FC
FF003FC001FE03FC
FF003FC001FE03FC
FF003FE001FE03FC
FF801FF801FE03FC
FF801FFFFFFFFFFC
7F800FFFFFFFFFFC
7FC00FFFFFFFFFFC
7FC007FFFFFFFFFC
7FC003FFFFFFFFFC
3FE000FFFFFFFFFC
3FF0003FFFFFFFFC
1FF0000000000000
1FF8000000000000
0FFC000000000000
0FFE000000000000
07FF000000000000
03FFC00000000000
01FFF00000000000
01FFFC0000000000
00FFFFC000000000
003FFFFFFFFFFFFC
001FFFFFFFFFFFFC
000FFFFFFFFFFFFC
0003FFFFFFFFFFFC
0001FFFFFFFFFFFC
00003FFFFFFFFFFC
00000FFFFFFFFFFC
0000007FFFFFFFFC
ENDCHAR
STARTCHAR A
ENCODING 65
SWIDTH 989 0
DWIDTH 85 0
BBX 83 64 1 0
BITMAP
0000000001F00000000000
0000000003F80000000000
0000000007FC0000000000
000000000FFE0000000000
000000000FFE0000000000
000000001FFF0000000000
000000003FFF0000000000
000000003FFF8000000000
000000007FFFC000000000
000000007FFFC000000000
00000000FFFFE000000000
00000001FFFFE000000000
00000001FFFFF000000000
00000003FFFFF800000000
00000003FFFFF800000000
00000007FFFFFC00000000
0000000FFFFFFC00000000
0000000FFF3FFE00000000
0000001FFE1FFF00000000
0000001FFE1FFF00000000
0000003FFC0FFF80000000
0000007FFC0FFF80000000
0000007FF807FFC0000000
000000FFF803FFE0000000
000000FFF003FFE0000000
000001FFE001FFF0000000
000003FFE001FFF0000000
000003FFC000FFF8000000
000007FFC0007FFC000000
000007FF80007FFC000000
00000FFF00003FFE000000
00000FFF00003FFE000000
00001FFE00001FFF000000
00003FFE00000FFF800000
00003FFC00000FFF800000
00007FF8000007FFC00000
00007FF8000007FFC00000
0000FFF0000003FFE00000
0001FFF0000001FFF00000
0001FFE00FFFFFFFF00000
0003FFE01FFFFFFFF80000
0003FFC03FFFFFFFF80000
0007FF803FFFFFFFFC0000
000FFF807FFFFFFFFE0000
000FFF007FFFFFFFFE0000
001FFF00FFFFFFFFFF0000
001FFE01FFFFFFFFFF0000
003FFC01FFFFFFFFFF8000
007FFC0000000007FFC000
007FF80000000007FFC000
00FFF80000000003FFE000
00FFF00000000003FFE000
01FFE00000000001FFF000
03FFE00000000001FFF800
03FFC00000000000FFF800
07FFC000000000007FFC00
07FF8000000000007FFC00
0FFF8000000000003FFE00
1FFF0000000000003FFE00
1FFE0000000000001FFF00
3FFE0000000000000FFF80
3FFC0000000000000FFF80
7FFC00000000000007FFC0
FFF800000000000007FFE0
ENDCHAR
STARTCHAR B
ENCODING 66
SWIDTH 891 0
DWIDTH 77 0
BBX 68 63 5 0
BITMAP
FFFFFFFFFFFFF00000
FFFFFFFFFFFFFF0000
FFFFFFFFFFFFFFC000
FFFFFFFFFFFFFFF000
FFFFFFFFFFFFFFF800
FFFFFFFFFFFFFFFC00
FFFFFFFFFFFFFFFE00
FFFFFFFFFFFFFFFF00
FFFFFFFFFFFFFFFF80
FFFFFFFFFFFFFFFF80
FFFFFFFFFFFFFFFF80
FFE0000000007FFFC0
FFE0000000000FFFC0
FFE00000000007FFC0
FFE00000000003FFC0
FFE00000000001FFC0
FFE00000000001FFC0
FFE00000000001FFC0
FFE00000000001FFC0
FFE00000000001FFC0
FFE00000000001FFC0
FFE00000000001FFC0
FFE00000000003FF80
FFE00000000003FF80
FFE00000000007FF00
FFE0000000003FFE00
FFE01FFFFFFFFFFC00
FFE01FFFFFFFFFF800
FFE01FFFFFFFFFF000
FFE01FFFFFFFFFC000
FFE01FFFFFFFFFF000
FFE01FFFFFFFFFFC00
FFE01FFFFFFFFFFE00
FFE01FFFFFFFFFFF00
FFE01FFFFFFFFFFF80
FFE0000000001FFF80
FFE00000000007FFC0
FFE00000000003FFC0
FFE00000000001FFE0
FFE00000000000FFE0
FFE00000000000FFE0
FFE00000000000FFE0
FFE00000000000FFE0
FFE00000000000FFF0
FFE00000000000FFE0
FFE00000000000FFE0
FFE00000000000FFE0
FFE00000000001FFE0
FFE00000000001FFE0
FFE00000000007FFE0
FFE0000000000FFFE0
FFE0000000007FFFC0
FFFFFFFFFFFFFFFFC0
FFFFFFFFFFFFFFFF80
FFFFFFFFFFFFFFFF80
FFFFFFFFFFFFFFFF00
FFFFFFFFFFFFFFFE00
FFFFFFFFFFFFFFFC00
FFFFFFFFFFFFFFF800
FFFFFFFFFFFFFFF000
FFFFFFFFFFFFFFC000
FFFFFFFFFFFFFF0000
FFFFFFFFFFFFF00000
ENDCHAR
STARTCHAR C
ENCODING 67
SWIDTH 829 0
DWIDTH 71 0
BBX 64 63 4 0
BITMAP
000000FFFFFFFFFF
00000FFFFFFFFFFF
00007FFFFFFFFFFF
0001FFFFFFFFFFFF
0007FFFFFFFFFFFF
000FFFFFFFFFFFFF
003FFFFFFFFFFFFF
007FFFFFFFFFFFFF
00FFFFFFFFFFFFFF
01FFFFFFFFFFFFFF
03FFFFFFFFFFFFFF
03FFFF8000000000
07FFFC0000000000
0FFFF00000000000
0FFFE00000000000
1FFF800000000000
1FFF000000000000
3FFE000000000000
3FFE000000000000
7FFC000000000000
7FF8000000000000
7FF8000000000000
7FF0000000000000
FFF0000000000000
FFE0000000000000
FFE0000000000000
FFE0000000000000
FFE0000000000000
FFE0000000000000
FFE0000000000000
FFE0000000000000
FFE0000000000000
FFE0000000000000
FFE0000000000000
FFE0000000000000
FFE0000000000000
FFE0000000000000
FFE0000000000000
FFF0000000000000
7FF0000000000000
7FF0000000000000
7FF8000000000000
7FF8000000000000
3FFC000000000000
3FFE000000000000
1FFE000000000000
1FFF000000000000
0FFF800000000000
0FFFE00000000000
07FFF00000000000
03FFFC0000000000
03FFFF8000000000
01FFFFFFFFFFFFFF
00FFFFFFFFFFFFFF
007FFFFFFFFFFFFF
003FFFFFFFFFFFFF
001FFFFFFFFFFFFF
0007FFFFFFFFFFFF
0003FFFFFFFFFFFF
0000FFFFFFFFFFFF
00003FFFFFFFFFFF
00000FFFFFFFFFFF
000000FFFFFFFFFF
ENDCHAR
STARTCHAR D
ENCODING 68
SWIDTH 879 0
DWIDTH 76 0
BBX 67 63 5 0
BITMAP
FFFFFFFFFFE0000000
FFFFFFFFFFFE000000
FFFFFFFFFFFF800000
FFFFFFFFFFFFF00000
FFFFFFFFFFFFF80000
FFFFFFFFFFFFFE0000
FFFFFFFFFFFFFF0000
FFFFFFFFFFFFFF8000
FFFFFFFFFFFFFFC000
FFFFFFFFFFFFFFE000
FFFFFFFFFFFFFFF000
FFE00000007FFFF800
FFE00000000FFFFC00
FFE000000003FFFC00
FFE000000000FFFE00
FFE0000000007FFE00
FFE0000000003FFF00
FFE0000000001FFF00
FFE0000000000FFF80
FFE00000000007FF80
FFE00000000007FFC0
FFE00000000003FFC0
FFE00000000003FFC0
FFE00000000001FFC0
FFE00000000001FFE0
FFE00000000001FFE0
FFE00000000000FFE0
FFE00000000000FFE0
FFE00000000000FFE0
FFE00000000000FFE0
FFE00000000000FFE0
FFE00000000000FFE0
FFE00000000000FFE0
FFE00000000000FFE0
FFE00000000000FFE0
FFE00000000000FFE0
FFE00000000000FFE0
FFE00000000001FFC0
FFE00000000001FFC0
FFE00000000001FFC0
FFE00000000003FFC0
FFE00000000003FF80
FFE00000000007FF80
FFE00000000007FF80
FFE0000000000FFF00
FFE0000000001FFF00
FFE0000000003FFF00
FFE0000000007FFE00
FFE000000000FFFC00
FFE000000003FFFC00
FFE00000000FFFF800
FFE00000007FFFF000
FFFFFFFFFFFFFFF000
FFFFFFFFFFFFFFE000
FFFFFFFFFFFFFFC000
FFFFFFFFFFFFFF8000
FFFFFFFFFFFFFE0000
FFFFFFFFFFFFFC0000
FFFFFFFFFFFFF80000
FFFFFFFFFFFFE00000
FFFFFFFFFFFF800000
FFFFFFFFFFFC000000
FFFFFFFFFFC0000000
ENDCHAR
STARTCHAR E
ENCODING 69
SWIDTH 759 0
DWIDTH 65 0
BBX 56 63 5 0
BITMAP
FFFFFFFFFFFFFF
FFFFFFFFFFFFFF
FFFFFFFFFFFFFF
FFFFFFFFFFFFFF
FFFFFFFFFFFFFF
FFFFFFFFFFFFFF
FFFFFFFFFFFFFF
FFFFFFFFFFFFFF
FFFFFFFFFFFFFF
FFFFFFFFFFFFFF
FFFFFFFFFFFFFF
FFE00000000000
FFE00000000000
FFE00000000000
FFE00000000000
FFE00000000000
FFE00000000000
FFE00000000000
FFE00000000000
FFE00000000000
FFE00000000000
FFE00000000000
FFE00000000000
FFE00000000000
FFE00000000000
FFE00000000000
FFE01FFFFFFFFC
FFE01FFFFFFFFC
FFE01FFFFFFFFC
FFE01FFFFFFFFC
FFE01FFFFFFFFC
FFE01FFFFFFFFC
FFE01FFFFFFFFC
FFE01FFFFFFFFC
FFE01FFFFFFFFC
FFE00000000000
FFE00000000000
FFE00000000000
FFE00000000000
FFE00000000000
FFE00000000000
FFE00000000000
FFE00000000000
FFE00000000000
FFE00000000000
FFE00000000000
FFE00000000000
FFE00000000000
FFE00000000000
FFE00000000000
FFE00000000000
FFE00000000000
FFFFFFFFFFFFFF
FFFFFFFFFFFFFF
FFFFFFFFFFFFFF
FFFFFFFFFFFFFF
FFFFFFFFFFFFFF
FFFFFFFFFFFFFF
FFFFFFFFFFFFFF
FFFFFFFFFFFFFF
FFFFFFFFFFFFFF
FFFFFFFFFFFFFF
FFFFFFFFFFFFFF
ENDCHAR
STARTCHAR F
ENCODING 70
SWIDTH 705 0
DWIDTH 61 0
BBX 53 63 5 0
BITMAP
FFFFFFFFFFFFF8
FFFFFFFFFFFFF8
FFFFFFFFFFFFF8
FFFFFFFFFFFFF8
FFFFFFFFFFFFF8
FFFFFFFFFFFFF8
FFFFFFFFFFFFF8
FFFFFFFFFFFFF8
FFFFFFFFFFFFF8
FFFFFFFFFFFFF8
FFFFFFFFFFFFF8
FFE00000000000
FFE00000000000
FFE00000000000
FFE00000000000
FFE00000000000
FFE00000000000
FFE00000000000
FFE00000000000
FFE00000000000
FFE00000000000
FFE00000000000
FFE00000000000
FFE00000000000
FFE00000000000
FFE00000000000
FFE00000000000
FFE01FFFFFFFE0
FFE01FFFFFFFE0
FFE01FFFFFFFE0
FFE01FFFFFFFE0
FFE01FFFFFFFE0
FFE01FFFFFFFE0
FFE01FFFFFFFE0
FFE01FFFFFFFE0
FFE01FFFFFFFE0
FFE01FFFFFFFE0
FFE00000000000
FFE00000000000
FFE00000000000
FFE00000000000
FFE00000000000
FFE00000000000
FFE00000000000
FFE00000000000
FFE00000000000
FFE00000000000
FFE00000000000
FFE00000000000
FFE00000000000
FFE00000000000
FFE00000000000
FFE00000000000
FFE00000000000
FFE00000000000
FFE00000000000
FFE00000000000
FFE00000000000
FFE00000000000
FFE00000000000
FFE00000000000
FFE00000000000
FFE00000000000
ENDCHAR
STARTCHAR G
ENCODING 71
SWIDTH 888 0
DWIDTH 76 0
BBX 68 63 4 0
BITMAP
000000FFFFFFFFFF00
00000FFFFFFFFFFF00
00007FFFFFFFFFFF00
0001FFFFFFFFFFFF00
0007FFFFFFFFFFFF00
000FFFFFFFFFFFFF00
003FFFFFFFFFFFFF00
007FFFFFFFFFFFFF00
00FFFFFFFFFFFFFF00
01FFFFFFFFFFFFFF00
03FFFFFFFFFFFFFF00
03FFFF800000000000
07FFFC000000000000
0FFFF0000000000000
0FFFE0000000000000
1FFF80000000000000
1FFF00000000000000
3FFE00000000000000
3FFE00000000000000
7FFC00000000000000
7FF800000000000000
7FF800000000000000
7FF000000000000000
FFF000000000000000
FFE000000000000000
FFE000000000000000
FFE00007FFFFFFFFF0
FFE00007FFFFFFFFF0
FFE00007FFFFFFFFF0
FFE00007FFFFFFFFF0
FFE00007FFFFFFFFF0
FFE00007FFFFFFFFF0
FFE00007FFFFFFFFF0
FFE00007FFFFFFFFF0
FFE00007FFFFFFFFF0
FFE000000000007FF0
FFE000000000007FF0
FFE000000000007FF0
FFF000000000007FF0
7FF000000000007FF0
7FF000000000007FF0
7FF800000000007FF0
7FF800000000007FF0
3FFC00000000007FF0
3FFE00000000007FF0
1FFE00000000007FF0
1FFF00000000007FF0
0FFF80000000007FF0
0FFFE0000000007FF0
07FFF0000000007FF0
03FFFC000000007FF0
03FFFF800000007FF0
01FFFFFFFFFFFFFFF0
00FFFFFFFFFFFFFFF0
007FFFFFFFFFFFFFF0
003FFFFFFFFFFFFFF0
001FFFFFFFFFFFFFF0
0007FFFFFFFFFFFFF0
0003FFFFFFFFFFFFF0
0000FFFFFFFFFFFFF0
00003FFFFFFFFFFFF0
00000FFFFFFFFFFFF0
000000FFFFFFFFFFF0
ENDCHAR
STARTCHAR H
ENCODING 72
SWIDTH 838 0
DWIDTH 72 0
BBX 62 63 5 0
BITMAP
FFE0000000001FFC
FFE0000000001FFC
FFE0000000001FFC
FFE0000000001FFC
FFE0000000001FFC
FFE0000000001FFC
FFE0000000001FFC
FFE0000000001FFC
FFE0000000001FFC
FFE0000000001FFC
FFE0000000001FFC
FFE0000000001FFC
FFE0000000001FFC
FFE0000000001FFC
FFE0000000001FFC
FFE0000000001FFC
FFE0000000001FFC
FFE0000000001FFC
FFE0000000001FFC
FFE0000000001FFC
FFE0000000001FFC
FFE0000000001FFC
FFE0000000001FFC
FFE0000000001FFC
FFE0000000001FFC
FFE0000000001FFC
FFE01FFFFFFFFFFC
FFE01FFFFFFFFFFC
FFE01FFFFFFFFFFC
FFE01FFFFFFFFFFC
FFE01FFFFFFFFFFC
FFE01FFFFFFFFFFC
FFE01FFFFFFFFFFC
FFE01FFFFFFFFFFC
FFE01FFFFFFFFFFC
FFE01FFFFFFFFFFC
FFE0000000001FFC
FFE0000000001FFC
FFE0000000001FFC
FFE0000000001FFC
FFE0000000001FFC
FFE0000000001FFC
FFE0000000001FFC
FFE0000000001FFC
FFE0000000001FFC
FFE0000000001FFC
FFE0000000001FFC
FFE0000000001FFC
FFE0000000001FFC
FFE0000000001FFC
FFE0000000001FFC
FFE0000000001FFC
FFE0000000001FFC
FFE0000000001FFC
FFE0000000001FFC
FFE0000000001FFC
FFE0000000001FFC
FFE0000000001FFC
FFE0000000001FFC
FFE0000000001FFC
FFE0000000001FFC
FFE0000000001FFC
FFE0000000001FFC
ENDCHAR
STARTCHAR I
ENCODING 73
SWIDTH 267 0
DWIDTH 23 0
BBX 11 63 6 0
BITMAP
FFE0
FFE0
FFE0
FFE0
FFE0
FFE0
FFE0
FFE0
FFE0
FFE0
FFE0
FFE0
FFE0
FFE0
FFE0
FFE0
FFE0
FFE0
FFE0
FFE0
FFE0
FFE0
FFE0
FFE0
FFE0
FFE0
FFE0
FFE0
FFE0
FFE0
FFE0
FFE0
FFE0
FFE0
FFE0
FFE0
FFE0
FFE0
FFE0
FFE0
FFE0
FFE0
FFE0
FFE0
FFE0
FFE0
FFE0
FFE0
FFE0
FFE0
FFE0
FFE0
FFE0
FFE0
FFE0
FFE0
FFE0
FFE0
FFE0
FFE0
FFE0
FFE0
FFE0
ENDCHAR
STARTCHAR J
ENCODING 74
SWIDTH 708 0
DWIDTH 61 0
BBX 54 63 2 0
BITMAP
00000000001FFC
00000000001FFC
00000000001FFC
00000000001FFC
00000000001FFC
00000000001FFC
00000000001FFC
00000000001FFC
00000000001FFC
00000000001FFC
00000000001FFC
00000000001FFC
00000000001FFC
00000000001FFC
00000000001FFC
00000000001FFC
00000000001FFC
00000000001FFC
00000000001FFC
00000000001FFC
00000000001FFC
00000000001FFC
00000000001FFC
00000000001FFC
00000000001FFC
00000000001FFC
00000000001FFC
00000000001FFC
00000000001FFC
00000000001FFC
00000000001FFC
00000000001FFC
00000000001FFC
00000000001FFC
00000000001FFC
00000000001FFC
00000000001FFC
00000000001FFC
00000000001FFC
00000000001FFC
00000000001FFC
00000000001FFC
00000000003FFC
00000000003FFC
00000000007FF8
00000000007FF8
0000000000FFF8
0000000001FFF0
0000000003FFF0
000000000FFFF0
000000003FFFE0
00000003FFFFC0
FFFFFFFFFFFFC0
FFFFFFFFFFFF80
FFFFFFFFFFFF00
FFFFFFFFFFFE00
FFFFFFFFFFFC00
FFFFFFFFFFF800
FFFFFFFFFFF000
FFFFFFFFFFC000
FFFFFFFFFE0000
FFFFFFFFF00000
FFFFFFFE000000
ENDCHAR
STARTCHAR K
ENCODING 75
SWIDTH 875 0
DWIDTH 75 0
BBX 69 63 5 0
BITMAP
FFE0000000003FFFE0
FFE0000000007FFF80
FFE000000001FFFF00
FFE000000003FFFE00
FFE000000007FFF800
FFE00000001FFFF000
FFE00000003FFFE000
FFE00000007FFF8000
FFE0000000FFFF0000
FFE0000003FFFE0000
FFE0000007FFF80000
FFE000000FFFF00000
FFE000003FFFE00000
FFE000007FFF800000
FFE00000FFFF000000
FFE00001FFFE000000
FFE00007FFF8000000
FFE0000FFFF0000000
FFE0001FFFE0000000
FFE0007FFF80000000
FFE000FFFF00000000
FFE001FFFE00000000
FFE003FFF800000000
FFE00FFFF000000000
FFE01FFFE000000000
FFE03FFF8000000000
FFE0FFFF0000000000
FFE0FFFE0000000000
FFE1FFF80000000000
FFE1FFF00000000000
FFE1FFE00000000000
FFE1FFE00000000000
FFE1FFF80000000000
FFE1FFFC0000000000
FFE0FFFE0000000000
FFE07FFF8000000000
FFE01FFFC000000000
FFE00FFFE000000000
FFE007FFF800000000
FFE003FFFC00000000
FFE000FFFE00000000
FFE0007FFF00000000
FFE0003FFFC0000000
FFE0001FFFE0000000
FFE00007FFF0000000
FFE00003FFFC000000
FFE00001FFFE000000
FFE00000FFFF000000
FFE000003FFFC00000
FFE000001FFFE00000
FFE000000FFFF00000
FFE0000007FFFC0000
FFE0000001FFFE0000
FFE0000000FFFF0000
FFE00000007FFF8000
FFE00000003FFFE000
FFE00000000FFFF000
FFE000000007FFF800
FFE000000003FFFE00
FFE000000001FFFF00
FFE0000000007FFF80
FFE0000000003FFFE0
FFE0000000001FFFF8
ENDCHAR
STARTCHAR L
ENCODING 76
SWIDTH 707 0
DWIDTH 61 0
BBX 53 63 5 0
BITMAP
FFE00000000000
FFE00000000000
FFE00000000000
FFE00000000000
FFE00000000000
FFE00000000000
FFE00000000000
FFE00000000000
FFE00000000000
FFE00000000000
FFE00000000000
FFE00000000000
FFE00000000000
FFE00000000000
FFE00000000000
FFE00000000000
FFE00000000000
FFE00000000000
FFE00000000000
FFE00000000000
FFE00000000000
FFE00000000000
FFE00000000000
FFE00000000000
FFE00000000000
FFE00000000000
FFE00000000000
FFE00000000000
FFE00000000000
FFE00000000000
FFE00000000000
FFE00000000000
FFE00000000000
FFE00000000000
FFE00000000000
FFE00000000000
FFE00000000000
FFE00000000000
FFE00000000000
FFE00000000000
FFE00000000000
FFE00000000000
FFE00000000000
FFE00000000000
FFE00000000000
FFE00000000000
FFE00000000000
FFE00000000000
FFE00000000000
FFE00000000000
FFE00000000000
FFE00000000000
FFFFFFFFFFFFF8
FFFFFFFFFFFFF8
FFFFFFFFFFFFF8
FFFFFFFFFFFFF8
FFFFFFFFFFFFF8
FFFFFFFFFFFFF8
FFFFFFFFFFFFF8
FFFFFFFFFFFFF8
FFFFFFFFFFFFF8
FFFFFFFFFFFFF8
FFFFFFFFFFFFF8
ENDCHAR
STARTCHAR M
ENCODING 77
SWIDTH 1115 0
DWIDTH 96 0
BBX 92 64 2 -1
BITMAP
00001F00000000000F800000
00003FC0000000001FE00000
00007FC0000000003FE00000
0000FFE0000000003FF00000
0000FFE0000000007FF00000
0000FFF0000000007FF00000
0000FFF000000000FFF80000
0001FFF800000000FFF80000
0001FFF800000001FFF80000
0001FFFC00000001FFF80000
0003FFFC00000001FFFC0000
0003FFFC00000003FFFC0000
0003FFFE00000003FFFC0000
0003FFFE00000007FFFE0000
0007FFFF00000007FFFE0000
0007FFFF0000000FFFFE0000
0007FFFF8000000FFFFE0000
0007FFFF8000000FFFFF0000
000FFFFFC000001FFFFF0000
000FFFFFC000001FFFFF0000
000FFDFFC000003FFBFF0000
001FFCFFE000003FF3FF8000
001FFCFFE000007FF3FF8000
001FFC7FF000007FF3FF8000
001FF87FF00000FFE1FFC000
003FF87FF80000FFE1FFC000
003FF83FF80000FFC1FFC000
003FF83FF80001FFC0FFC000
003FF01FFC0001FF80FFE000
007FF01FFC0003FF80FFE000
007FF00FFE0003FF00FFE000
007FE00FFE0007FF007FE000
00FFE00FFF0007FF007FF000
00FFE007FF0007FE007FF000
00FFE007FF800FFE007FF000
00FFC003FF800FFC003FF800
01FFC003FF801FFC003FF800
01FFC001FFC01FF8003FF800
01FFC001FFC03FF8001FF800
01FF8000FFE03FF8001FFC00
03FF8000FFE07FF0001FFC00
03FF8000FFF07FF0001FFC00
03FF00007FF07FE0000FFC00
07FF00007FF0FFE0000FFE00
07FF00003FF8FFC0000FFE00
07FF00003FF9FFC0000FFE00
07FE00001FFDFF800007FF00
0FFE00001FFFFF800007FF00
0FFE00001FFFFF800007FF00
0FFE00000FFFFF000003FF00
1FFC00000FFFFF000003FF80
1FFC000007FFFE000003FF80
1FFC000007FFFE000003FF80
1FF8000003FFFC000001FF80
3FF8000003FFFC000001FFC0
3FF8000003FFFC000001FFC0
3FF8000001FFF8000001FFC0
3FF0000001FFF8000000FFE0
7FF0000000FFF0000000FFE0
7FF0000000FFF0000000FFE0
7FF00000007FE00000007FE0
FFE00000007FE00000007FF0
FFE00000003FC00000007FF0
00000000000F000000000000
ENDCHAR
STARTCHAR N
ENCODING 78
SWIDTH 873 0
DWIDTH 75 0
BBX 65 63 5 0
BITMAP
1F000000000001FF80
3FC00000000001FF80
7FE00000000001FF80
7FF00000000001FF80
FFF80000000001FF80
FFFC0000000001FF80
FFFE0000000001FF80
FFFF0000000001FF80
FFFF8000000001FF80
FFFFC000000001FF80
FFFFE000000001FF80
FFFFF000000001FF80
FFFFF800000001FF80
FFFFFC00000001FF80
FFFFFE00000001FF80
FFFFFF00000001FF80
FFFFFF80000001FF80
FFFFFFC0000001FF80
FFFFFFE0000001FF80
FFEFFFF0000001FF80
FFE7FFF8000001FF80
FFE3FFFC000001FF80
FFE0FFFE000001FF80
FFE07FFF000001FF80
FFE03FFF800001FF80
FFE01FFFC00001FF80
FFE00FFFE00001FF80
FFE007FFF00001FF80
FFE003FFF80001FF80
FFE001FFFC0001FF80
FFE000FFFE0001FF80
FFE0007FFF0001FF80
FFE0003FFF8001FF80
FFE0001FFFC001FF80
FFE0000FFFE001FF80
FFE00007FFF001FF80
FFE00003FFF801FF80
FFE00001FFFC01FF80
FFE00000FFFE01FF80
FFE000007FFF01FF80
FFE000003FFF81FF80
FFE000001FFFC1FF80
FFE000000FFFE1FF80
FFE0000007FFF1FF80
FFE0000003FFF9FF80
FFE0000001FFFDFF80
FFE0000000FFFFFF80
FFE00000007FFFFF80
FFE00000003FFFFF80
FFE00000001FFFFF80
FFE00000000FFFFF80
FFE000000007FFFF80
FFE000000003FFFF80
FFE000000001FFFF80
FFE000000000FFFF80
FFE0000000007FFF80
FFE0000000003FFF80
FFE0000000001FFF80
FFE0000000000FFF80
FFE00000000007FF00
FFE00000000003FF00
FFE00000000001FE00
FFE000000000007C00
ENDCHAR
STARTCHAR O
ENCODING 79
SWIDTH 968 0
DWIDTH 83 0
BBX 76 63 4 0
BITMAP
000000FFFFFFE0000000
00000FFFFFFFFE000000
00007FFFFFFFFFC00000
0001FFFFFFFFFFF00000
0007FFFFFFFFFFFC0000
000FFFFFFFFFFFFF0000
003FFFFFFFFFFFFF8000
007FFFFFFFFFFFFFC000
00FFFFFFFFFFFFFFE000
01FFFFFFFFFFFFFFF000
03FFFFFFFFFFFFFFF800
03FFFF8000003FFFFC00
07FFFC00000007FFFE00
0FFFF000000001FFFE00
0FFFE0000000007FFF00
1FFF80000000003FFF00
1FFF00000000001FFF80
3FFE00000000000FFF80
3FFE000000000007FFC0
7FFC000000000003FFC0
7FF8000000000003FFC0
7FF8000000000001FFE0
7FF0000000000001FFE0
FFF0000000000000FFE0
FFE0000000000000FFE0
FFE0000000000000FFE0
FFE0000000000000FFF0
FFE00000000000007FF0
FFE00000000000007FF0
FFE00000000000007FF0
FFE00000000000007FF0
FFE00000000000007FF0
FFE00000000000007FF0
FFE00000000000007FF0
FFE00000000000007FF0
FFE00000000000007FF0
FFE0000000000000FFE0
FFE0000000000000FFE0
FFF0000000000000FFE0
7FF0000000000001FFE0
7FF0000000000001FFE0
7FF8000000000001FFC0
7FF8000000000003FFC0
3FFC000000000007FFC0
3FFE000000000007FF80
1FFE00000000000FFF80
1FFF00000000001FFF00
0FFF80000000003FFF00
0FFFE0000000007FFE00
07FFF000000001FFFE00
03FFFC00000007FFFC00
03FFFF8000003FFFF800
01FFFFFFFFFFFFFFF000
00FFFFFFFFFFFFFFE000
007FFFFFFFFFFFFFC000
003FFFFFFFFFFFFF8000
001FFFFFFFFFFFFF0000
0007FFFFFFFFFFFE0000
0003FFFFFFFFFFF80000
0000FFFFFFFFFFF00000
00003FFFFFFFFFC00000
00000FFFFFFFFE000000
000000FFFFFFE0000000
ENDCHAR
STARTCHAR P
ENCODING 80
SWIDTH 867 0
DWIDTH 75 0
BBX 67 63 5 0
BITMAP
FFFFFFFFFFFFC00000
FFFFFFFFFFFFFC0000
FFFFFFFFFFFFFF0000
FFFFFFFFFFFFFFC000
FFFFFFFFFFFFFFE000
FFFFFFFFFFFFFFF800
FFFFFFFFFFFFFFFC00
FFFFFFFFFFFFFFFC00
FFFFFFFFFFFFFFFE00
FFFFFFFFFFFFFFFF00
FFFFFFFFFFFFFFFF00
FFE000000000FFFF80
FFE0000000001FFF80
FFE00000000007FFC0
FFE00000000003FFC0
FFE00000000003FFC0
FFE00000000001FFE0
FFE00000000000FFE0
FFE00000000000FFE0
FFE00000000000FFE0
FFE00000000000FFE0
FFE000000000007FE0
FFE000000000007FE0
FFE000000000007FE0
FFE00000000000FFE0
FFE00000000000FFE0
FFE00000000000FFE0
FFE00000000000FFE0
FFE00000000001FFE0
FFE00000000001FFC0
FFE00000000003FFC0
FFE00000000003FFC0
FFE0000000000FFFC0
FFE0000000001FFF80
FFE000000000FFFF80
FFE01FFFFFFFFFFF00
FFE01FFFFFFFFFFF00
FFE01FFFFFFFFFFE00
FFE01FFFFFFFFFFC00
FFE01FFFFFFFFFF800
FFE01FFFFFFFFFF000
FFE01FFFFFFFFFE000
FFE01FFFFFFFFFC000
FFE01FFFFFFFFF0000
FFE01FFFFFFFF80000
FFE01FFFFFFFC00000
FFE000000000000000
FFE000000000000000
FFE000000000000000
FFE000000000000000
FFE000000000000000
FFE000000000000000
FFE000000000000000
FFE000000000000000
FFE000000000000000
FFE000000000000000
FFE000000000000000
FFE000000000000000
FFE000000000000000
FFE000000000000000
FFE000000000000000
FFE000000000000000
FFE000000000000000
ENDCHAR
STARTCHAR Q
ENCODING 81
SWIDTH 968 0
DWIDTH 83 0
BBX 79 63 4 0
BITMAP
000000FFFFFFE0000000
00000FFFFFFFFE000000
00007FFFFFFFFFC00000
0001FFFFFFFFFFF00000
0007FFFFFFFFFFFC0000
000FFFFFFFFFFFFF0000
003FFFFFFFFFFFFF8000
007FFFFFFFFFFFFFC000
00FFFFFFFFFFFFFFE000
01FFFFFFFFFFFFFFF000
03FFFFFFFFFFFFFFF800
03FFFF8000003FFFFC00
07FFFC00000007FFFE00
0FFFF000000001FFFE00
0FFFE0000000007FFF00
1FFF80000000003FFF00
1FFF00000000001FFF80
3FFE00000000000FFF80
3FFE000000000007FFC0
7FFC000000000003FFC0
7FF8000000000003FFC0
7FF8000000000001FFE0
7FF0000000000001FFE0
FFF0000000000000FFE0
FFE0000000000000FFE0
FFE0000000000000FFE0
FFE0000000000000FFF0
FFE00000000000007FF0
FFE00000000000007FF0
FFE00000000000007FF0
FFE00000000000007FF0
FFE00000000000007FF0
FFE00000000000007FF0
FFE00000000000007FF0
FFE00000000000007FF0
FFE00000000000007FF0
FFE0000000000000FFE0
FFE000007FFF0000FFE0
FFF000003FFF8000FFE0
7FF000000FFFC001FFE0
7FF0000007FFE001FFE0
7FF8000003FFF001FFC0
7FF8000001FFF803FFC0
3FFC0000007FFE07FFC0
3FFE0000003FFF07FF80
1FFE0000001FFF8FFF80
1FFF00000007FFDFFF00
0FFF80000003FFFFFF00
0FFFE0000001FFFFFE00
07FFF0000000FFFFFE00
03FFFC0000003FFFFC00
03FFFF8000003FFFF800
01FFFFFFFFFFFFFFF000
00FFFFFFFFFFFFFFE000
007FFFFFFFFFFFFFF000
003FFFFFFFFFFFFFF800
001FFFFFFFFFFFFFFE00
0007FFFFFFFFFFFFFF00
0003FFFFFFFFFFFFFF80
0000FFFFFFFFFFFFFFC0
00003FFFFFFFFF87FFF0
00000FFFFFFFFE01FFF8
000000FFFFFFE000FFFE
ENDCHAR
STARTCHAR R
ENCODING 82
SWIDTH 921 0
DWIDTH 79 0
BBX 74 63 5 0
BITMAP
FFFFFFFFFFFFE0000000
FFFFFFFFFFFFFE000000
FFFFFFFFFFFFFF800000
FFFFFFFFFFFFFFE00000
FFFFFFFFFFFFFFF00000
FFFFFFFFFFFFFFF80000
FFFFFFFFFFFFFFFC0000
FFFFFFFFFFFFFFFE0000
FFFFFFFFFFFFFFFF0000
FFFFFFFFFFFFFFFF8000
FFFFFFFFFFFFFFFF8000
FFE0000000007FFFC000
FFE0000000000FFFC000
FFE00000000003FFC000
FFE00000000001FFE000
FFE00000000001FFE000
FFE00000000000FFE000
FFE00000000000FFE000
FFE000000000007FF000
FFE000000000007FF000
FFE000000000007FF000
FFE000000000007FF000
FFE000000000007FF000
FFE000000000007FF000
FFE000000000007FF000
FFE000000000007FF000
FFE000000000007FF000
FFE000000000007FF000
FFE000000000007FF000
FFE00000000000FFE000
FFE00000000000FFE000
FFE00000000001FFE000
FFE00000000003FFE000
FFE00000000007FFC000
FFE0000000000FFFC000
FFE0000000007FFF8000
FFE01FFFFFFFFFFF8000
FFE01FFFFFFFFFFF0000
FFE01FFFFFFFFFFE0000
FFE01FFFFFFFFFFC0000
FFE01FFFFFFFFFF80000
FFE01FFFFFFFFFF00000
FFE01FFFFFFFFFE00000
FFE01FFFFFFFFF800000
FFE01FFFFFFFFE000000
FFE01FFFFFFFFF000000
FFE00000001FFF800000
FFE00000000FFFC00000
FFE000000007FFE00000
FFE000000003FFF00000
FFE000000001FFF80000
FFE000000000FFFC0000
FFE0000000007FFE0000
FFE0000000003FFF0000
FFE0000000001FFF8000
FFE0000000001FFFC000
FFE0000000000FFFE000
FFE00000000007FFF000
FFE00000000003FFF800
FFE00000000001FFFC00
FFE00000000000FFFE00
FFE000000000007FFF00
FFE000000000003FFFC0
ENDCHAR
STARTCHAR S
ENCODING 83
SWIDTH 880 0
DWIDTH 76 0
BBX 68 63 4 0
BITMAP
0001FFFFFFFFFFFF80
001FFFFFFFFFFFFF80
007FFFFFFFFFFFFF80
01FFFFFFFFFFFFFF80
03FFFFFFFFFFFFFF80
07FFFFFFFFFFFFFF80
0FFFFFFFFFFFFFFF80
1FFFFFFFFFFFFFFF80
1FFFFFFFFFFFFFFF80
3FFFFFFFFFFFFFFF80
3FFFFFFFFFFFFFFF80
7FFF00000000000000
7FFC00000000000000
7FF800000000000000
7FF800000000000000
7FF000000000000000
FFF000000000000000
FFF000000000000000
FFF000000000000000
7FF000000000000000
7FF000000000000000
7FF000000000000000
7FF800000000000000
7FF800000000000000
3FFC00000000000000
3FFF00000000000000
1FFFFFFFFFFFFC0000
1FFFFFFFFFFFFFC000
0FFFFFFFFFFFFFF000
07FFFFFFFFFFFFF800
03FFFFFFFFFFFFFE00
01FFFFFFFFFFFFFF00
007FFFFFFFFFFFFF80
001FFFFFFFFFFFFF80
0001FFFFFFFFFFFFC0
0000000000000FFFC0
00000000000003FFE0
00000000000001FFE0
00000000000000FFE0
000000000000007FE0
000000000000007FE0
000000000000007FF0
000000000000007FF0
000000000000007FF0
000000000000007FF0
000000000000007FF0
000000000000007FF0
000000000000007FF0
00000000000000FFE0
00000000000001FFE0
00000000000003FFE0
0000000000000FFFE0
7FFFFFFFFFFFFFFFC0
7FFFFFFFFFFFFFFFC0
7FFFFFFFFFFFFFFF80
7FFFFFFFFFFFFFFF80
7FFFFFFFFFFFFFFF00
7FFFFFFFFFFFFFFE00
7FFFFFFFFFFFFFFC00
7FFFFFFFFFFFFFF800
7FFFFFFFFFFFFFE000
7FFFFFFFFFFFFF8000
7FFFFFFFFFFFFC0000
ENDCHAR
STARTCHAR T
ENCODING 84
SWIDTH 720 0
DWIDTH 62 0
BBX 58 63 2 0
BITMAP
FFFFFFFFFFFFFFC0
FFFFFFFFFFFFFFC0
FFFFFFFFFFFFFFC0
FFFFFFFFFFFFFFC0
FFFFFFFFFFFFFFC0
FFFFFFFFFFFFFFC0
FFFFFFFFFFFFFFC0
FFFFFFFFFFFFFFC0
FFFFFFFFFFFFFFC0
FFFFFFFFFFFFFFC0
FFFFFFFFFFFFFFC0
000001FFC0000000
000001FFC0000000
000001FFC0000000
000001FFC0000000
000001FFC0000000
000001FFC0000000
000001FFC0000000
000001FFC0000000
000001FFC0000000
000001FFC0000000
000001FFC0000000
000001FFC0000000
000001FFC0000000
000001FFC0000000
000001FFC0000000
000001FFC0000000
000001FFC0000000
000001FFC0000000
000001FFC0000000
000001FFC0000000
000001FFC0000000
000001FFC0000000
000001FFC0000000
000001FFC0000000
000001FFC0000000
000001FFC0000000
000001FFC0000000
000001FFC0000000
000001FFC0000000
000001FFC0000000
000001FFC0000000
000001FFC0000000
000001FFC0000000
000001FFC0000000
000001FFC0000000
000001FFC0000000
000001FFC0000000
000001FFC0000000
000001FFC0000000
000001FFC0000000
000001FFC0000000
000001FFC0000000
000001FFC0000000
000001FFC0000000
000001FFC0000000
000001FFC0000000
000001FFC0000000
000001FFC0000000
000001FFC0000000
000001FFC0000000
000001FFC0000000
000001FFC0000000
ENDCHAR
STARTCHAR U
ENCODING 85
SWIDTH 889 0
DWIDTH 76 0
BBX 68 64 4 -1
BITMAP
FFF000000000007FF0
FFF000000000007FF0
FFF000000000007FF0
FFF000000000007FF0
FFF000000000007FF0
FFF000000000007FF0
FFF000000000007FF0
FFF000000000007FF0
FFF000000000007FF0
FFF000000000007FF0
FFF000000000007FF0
FFF000000000007FF0
FFF000000000007FF0
FFF000000000007FF0
FFF000000000007FF0
FFF000000000007FF0
FFF000000000007FF0
FFF000000000007FF0
FFF000000000007FF0
FFF000000000007FF0
FFF000000000007FF0
FFF000000000007FF0
FFF000000000007FF0
FFF000000000007FF0
FFF000000000007FF0
FFF000000000007FF0
FFF000000000007FF0
FFF000000000007FF0
FFF000000000007FF0
FFF000000000007FF0
FFF000000000007FF0
FFF000000000007FF0
FFF000000000007FF0
FFF000000000007FF0
FFF000000000007FF0
FFF000000000007FF0
FFF000000000007FF0
FFF000000000007FF0
7FF000000000007FF0
7FF000000000007FF0
7FF000000000007FF0
7FF000000000007FF0
7FF80000000000FFE0
7FF80000000000FFE0
7FF80000000000FFE0
3FFC0000000001FFE0
3FFE0000000001FFE0
3FFE0000000003FFC0
1FFF0000000007FFC0
1FFFC00000001FFF80
1FFFE00000003FFF80
0FFFFC000001FFFF80
0FFFFFE0001FFFFF00
07FFFFFFFFFFFFFE00
03FFFFFFFFFFFFFE00
01FFFFFFFFFFFFFC00
00FFFFFFFFFFFFF800
007FFFFFFFFFFFF000
003FFFFFFFFFFFC000
000FFFFFFFFFFF8000
0003FFFFFFFFFE0000
0000FFFFFFFFF00000
00000FFFFFFF800000
0000007FFFE0000000
ENDCHAR
STARTCHAR V
ENCODING 86
SWIDTH 989 0
DWIDTH 85 0
BBX 83 64 1 -1
BITMAP
FFFC00000000000003FFE0
7FFC00000000000007FFC0
3FFE00000000000007FF80
3FFF0000000000000FFF80
1FFF0000000000000FFF00
1FFF8000000000001FFF00
0FFF8000000000003FFE00
07FFC000000000003FFC00
07FFC000000000007FFC00
03FFE000000000007FF800
03FFF00000000000FFF800
01FFF00000000001FFF000
00FFF80000000001FFE000
00FFF80000000003FFE000
007FFC0000000003FFC000
007FFE0000000007FFC000
003FFE0000000007FF8000
001FFF000000000FFF0000
001FFF000000001FFF0000
000FFF800000001FFE0000
000FFF800000003FFE0000
0007FFC00000003FFC0000
0003FFE00000007FF80000
0003FFE00000007FF80000
0001FFF0000000FFF00000
0001FFF0000001FFF00000
0000FFF8000001FFE00000
00007FFC000003FFC00000
00007FFC000003FFC00000
00003FFE000007FF800000
00003FFE00000FFF800000
00001FFF00000FFF000000
00000FFF00001FFE000000
00000FFF80001FFE000000
000007FFC0003FFC000000
000007FFC0003FFC000000
000003FFE0007FF8000000
000001FFE000FFF0000000
000001FFF000FFF0000000
000000FFF801FFE0000000
000000FFF801FFE0000000
0000007FFC03FFC0000000
0000007FFC07FF80000000
0000003FFE07FF80000000
0000001FFE0FFF00000000
0000001FFF0FFF00000000
0000000FFF9FFE00000000
0000000FFF9FFC00000000
00000007FFFFFC00000000
00000003FFFFF800000000
00000003FFFFF800000000
00000001FFFFF000000000
00000001FFFFE000000000
00000000FFFFE000000000
000000007FFFC000000000
000000007FFFC000000000
000000003FFF8000000000
000000003FFF8000000000
000000001FFF0000000000
000000000FFE0000000000
000000000FFE0000000000
0000000007FC0000000000
0000000003F80000000000
0000000001F00000000000
ENDCHAR
STARTCHAR W
ENCODING 87
SWIDTH 1268 0
DWIDTH 109 0
BBX 107 64 1 -1
BITMAP
FFFC0000FFF8000000000003FFE0
7FFC00007FFC000000000003FFC0
3FFE00007FFC000000000007FF80
3FFE00003FFE000000000007FF80
1FFF00003FFE00000000000FFF00
1FFF00001FFF00000000000FFF00
0FFF80001FFF00000000001FFE00
0FFF80000FFF80000000001FFE00
07FFC0000FFF80000000003FFC00
07FFC00007FFC0000000003FFC00
03FFE00007FFC0000000007FF800
03FFE00003FFE0000000007FF800
01FFF00003FFE000000000FFF000
01FFF00001FFF000000001FFF000
00FFF80001FFF000000001FFE000
00FFF80000FFF800000003FFE000
007FFC0000FFF800000003FFC000
003FFC00007FFC00000007FF8000
003FFE00007FFC00000007FF8000
001FFE00003FFE0000000FFF0000
001FFF00003FFE0000000FFF0000
000FFF00001FFF0000001FFE0000
000FFF80001FFF0000001FFE0000
0007FFC0000FFF8000003FFC0000
0007FFC0000FFF8000003FFC0000
0003FFE00007FFC000007FF80000
0003FFE00007FFC000007FF80000
0001FFF00003FFE00000FFF00000
0001FFF00003FFE00000FFF00000
0000FFF80001FFF00001FFE00000
0000FFF80000FFF00001FFC00000
00007FFC0000FFF80003FFC00000
00003FFC0001FFF80003FF800000
00003FFE0001FFFC0007FF800000
00001FFE0003FFFC000FFF000000
00001FFF0003FFFE000FFF000000
00000FFF0007FFFE001FFE000000
00000FFF8007FFFF001FFE000000
000007FF800FFFFF003FFC000000
000007FFC00FFFFF803FFC000000
000003FFC01FFFFF807FF8000000
000003FFE03FFFFFC07FF8000000
000001FFE03FFBFFC0FFF0000000
000001FFF07FFBFFE0FFF0000000
000000FFF07FF1FFE1FFE0000000
0000007FF8FFF1FFF1FFC0000000
0000007FF8FFE0FFF3FFC0000000
0000003FFDFFE0FFFBFF80000000
0000003FFFFFC07FFFFF80000000
0000001FFFFFC07FFFFF00000000
0000001FFFFF803FFFFF00000000
0000000FFFFF803FFFFE00000000
0000000FFFFF001FFFFE00000000
00000007FFFF001FFFFC00000000
00000007FFFE000FFFFC00000000
00000003FFFC0007FFF800000000
00000003FFFC0007FFF800000000
00000001FFF80003FFF000000000
00000001FFF80003FFF000000000
00000000FFF00001FFE000000000
000000007FF00001FFC000000000
000000007FE00000FFC000000000
000000003FC000007F8000000000
000000000F8000003E0000000000
ENDCHAR
STARTCHAR X
ENCODING 88
SWIDTH 1000 0
DWIDTH 86 0
BBX 82 63 2 0
BITMAP
3FFFC00000000000FFFE00
0FFFE00000000001FFF800
07FFF00000000003FFF000
03FFF80000000007FFE000
01FFFC000000000FFFC000
00FFFE000000001FFF8000
007FFF000000003FFF0000
003FFF800000007FFE0000
001FFFC0000000FFFC0000
000FFFE0000001FFF80000
0007FFF0000003FFF00000
0003FFF8000007FFE00000
0001FFFC00000FFFC00000
0000FFFE00001FFF800000
00007FFF00003FFF000000
00003FFF80007FFE000000
00001FFFC000FFFC000000
00000FFFE001FFF8000000
000007FFF003FFF0000000
000003FFF807FFE0000000
000001FFFC0FFFC0000000
000000FFFE1FFF80000000
0000007FFF3FFF00000000
0000001FFFFFFE00000000
0000000FFFFFFC00000000
00000007FFFFF800000000
00000003FFFFF000000000
00000001FFFFE000000000
00000000FFFFC000000000
000000007FFF0000000000
000000007FFF0000000000
00000000FFFF8000000000
00000001FFFFC000000000
00000003FFFFE000000000
00000007FFFFF000000000
0000000FFFFFF800000000
0000001FFFFFFC00000000
0000003FFFFFFE00000000
0000007FFE7FFF00000000
000000FFFC3FFF80000000
000001FFF81FFFC0000000
000003FFF00FFFE0000000
000007FFE007FFF0000000
00000FFFC003FFF8000000
00001FFF8001FFFC000000
00003FFF0000FFFF000000
00007FFE00007FFF800000
0000FFFC00003FFFC00000
0001FFF800001FFFE00000
0003FFF0000007FFF00000
0007FFE0000003FFF80000
000FFFC0000001FFFC0000
001FFF80000000FFFE0000
003FFF000000007FFF0000
007FFE000000003FFF8000
00FFFC000000001FFFC000
01FFF8000000000FFFE000
03FFF00000000007FFF000
0FFFE00000000003FFF800
1FFFC00000000001FFFC00
3FFF800000000000FFFE00
7FFF0000000000007FFF00
FFFE0000000000003FFFC0
ENDCHAR
STARTCHAR Y
ENCODING 89
SWIDTH 926 0
DWIDTH 80 0
BBX 78 63 1 0
BITMAP
FFFE000000000001FFFC
7FFF000000000003FFF0
3FFF800000000007FFE0
1FFFC00000000007FFE0
0FFFE0000000000FFFC0
07FFE0000000001FFF80
03FFF0000000003FFF00
03FFF8000000007FFE00
01FFFC00000000FFFC00
00FFFE00000000FFF800
007FFF00000001FFF800
003FFF00000003FFF000
001FFF80000007FFE000
000FFFC000000FFFC000
000FFFE000001FFF8000
0007FFF000001FFF0000
0003FFF800003FFE0000
0001FFFC00007FFE0000
0000FFFC0000FFFC0000
00007FFE0001FFF80000
00003FFF0003FFF00000
00003FFF8007FFE00000
00001FFFC007FFC00000
00000FFFE00FFFC00000
000007FFE01FFF800000
000003FFF03FFF000000
000001FFF87FFE000000
000001FFFCFFFC000000
000000FFFEFFF8000000
0000007FFFFFF0000000
0000003FFFFFF0000000
0000001FFFFFE0000000
0000000FFFFFC0000000
00000007FFFF80000000
00000007FFFF00000000
00000003FFFE00000000
00000001FFFC00000000
00000000FFFC00000000
000000007FF800000000
000000007FF000000000
000000007FF000000000
000000007FF000000000
000000007FF000000000
000000007FF000000000
000000007FF000000000
000000007FF000000000
000000007FF000000000
000000007FF000000000
000000007FF000000000
000000007FF000000000
000000007FF000000000
000000007FF000000000
000000007FF000000000
000000007FF000000000
000000007FF000000000
000000007FF000000000
000000007FF000000000
000000007FF000000000
000000007FF000000000
000000007FF000000000
000000007FF000000000
000000007FF000000000
000000007FF000000000
ENDCHAR
STARTCHAR Z
ENCODING 90
SWIDTH 802 0
DWIDTH 69 0
BBX 62 63 3 0
BITMAP
7FFFFFFFFFFFFFE0
7FFFFFFFFFFFFFF0
7FFFFFFFFFFFFFF8
7FFFFFFFFFFFFFFC
7FFFFFFFFFFFFFFC
7FFFFFFFFFFFFFFC
7FFFFFFFFFFFFFFC
7FFFFFFFFFFFFFFC
7FFFFFFFFFFFFFF8
7FFFFFFFFFFFFFF8
7FFFFFFFFFFFFFF0
00000000000FFFE0
00000000001FFFC0
00000000003FFF80
00000000007FFF00
0000000000FFFE00
0000000001FFFC00
0000000003FFF800
0000000007FFF000
000000000FFFE000
000000001FFFC000
000000003FFF8000
000000007FFF0000
00000000FFFE0000
00000001FFFC0000
00000003FFF80000
00000007FFF00000
0000000FFFE00000
0000001FFFC00000
0000003FFF800000
0000007FFF000000
000000FFFE000000
000001FFFC000000
000003FFF8000000
000007FFF0000000
00000FFFE0000000
00001FFFC0000000
00003FFF80000000
00007FFF00000000
0000FFFE00000000
0001FFFC00000000
0003FFF800000000
0007FFF000000000
000FFFE000000000
001FFFC000000000
003FFF8000000000
007FFF0000000000
00FFFE0000000000
01FFFC0000000000
03FFF80000000000
07FFF00000000000
0FFFE00000000000
1FFFFFFFFFFFFFFC
3FFFFFFFFFFFFFFC
7FFFFFFFFFFFFFFC
7FFFFFFFFFFFFFFC
FFFFFFFFFFFFFFFC
FFFFFFFFFFFFFFFC
7FFFFFFFFFFFFFFC
7FFFFFFFFFFFFFFC
7FFFFFFFFFFFFFFC
3FFFFFFFFFFFFFFC
0FFFFFFFFFFFFFFC
ENDCHAR
STARTCHAR bracketleft
ENCODING 91
SWIDTH 333 0
DWIDTH 29 0
BBX 14 79 9 -8
BITMAP
FFFC
FFFC
FFFC
FFFC
FFFC
FFFC
FFFC
FE00
FE00
FE00
FE00
FE00
FE00
FE00
FE00
FE00
FE00
FE00
FE00
FE00
FE00
FE00
FE00
FE00
FE00
FE00
FE00
FE00
FE00
FE00
FE00
FE00
FE00
FE00
FE00
FE00
FE00
FE00
FE00
FE00
FE00
FE00
FE00
FE00
FE00
FE00
FE00
FE00
FE00
FE00
FE00
FE00
FE00
FE00
FE00
FE00
FE00
FE00
FE00
FE00
FE00
FE00
FE00
FE00
FE00
FE00
FE00
FE00
FE00
FE00
FE00
FE00
FFFC
FFFC
FFFC
FFFC
FFFC
FFFC
FFFC
ENDCHAR
STARTCHAR backslash
ENCODING 92
SWIDTH 445 0
DWIDTH 38 0
BBX 36 63 1 0
BITMAP
FE00000000
7F00000000
7F00000000
7F80000000
3F80000000
3FC0000000
1FC0000000
1FE0000000
0FE0000000
0FF0000000
07F0000000
07F0000000
03F8000000
03F8000000
01FC000000
01FC000000
01FE000000
00FE000000
00FF000000
007F000000
007F800000
003F800000
003FC00000
001FC00000
001FC00000
000FE00000
000FE00000
0007F00000
0007F00000
0007F80000
0003F80000
0003FC0000
0001FC0000
0001FE0000
0000FE0000
0000FF0000
00007F0000
00007F8000
00003F8000
00003F8000
00003FC000
00001FC000
00001FE000
00000FE000
00000FF000
000007F000
000007F800
000003F800
000003FC00
000001FC00
000001FE00
000000FE00
000000FF00
000000FF00
0000007F00
0000007F80
0000003F80
0000003FC0
0000001FC0
0000001FE0
0000000FE0
0000000FF0
00000007F0
ENDCHAR
STARTCHAR bracketright
ENCODING 93
SWIDTH 333 0
DWIDTH 29 0
BBX 15 79 5 -8
BITMAP
FFFE
FFFE
FFFE
FFFE
FFFE
FFFE
FFFE
00FE
00FE
00FE
00FE
00FE
00FE
00FE
00FE
00FE
00FE
00FE
00FE
00FE
00FE
00FE
00FE
00FE
00FE
00FE
00FE
00FE
00FE
00FE
00FE
00FE
00FE
00FE
00FE
00FE
00FE
00FE
00FE
00FE
00FE
00FE
00FE
00FE
00FE
00FE
00FE
00FE
00FE
00FE
00FE
00FE
00FE
00FE
00FE
00FE
00FE
00FE
00FE
00FE
00FE
00FE
00FE
00FE
00FE
00FE
00FE
00FE
00FE
00FE
00FE
00FE
FFFE
FFFE
FFFE
FFFE
FFFE
FFFE
FFFE
ENDCHAR
STARTCHAR asciicircum
ENCODING 94
SWIDTH 559 0
DWIDTH 48 0
BBX 38 38 5 25
BITMAP
0000780000
0000FC0000
0001FE0000
0001FE0000
0003FF0000
0003FF0000
0003FF8000
0007FF8000
0007FF8000
000FFFC000
000FFFC000
000FCFE000
001FCFE000
001FC7F000
003F87F000
003F87F000
007F03F800
007F03F800
007F01FC00
00FE01FC00
00FE01FC00
01FC00FE00
01FC00FE00
03FC007F00
03F8007F00
03F8007F80
07F0003F80
07F0003F80
0FF0001FC0
0FE0001FC0
0FE0001FE0
1FC0000FE0
1FC0000FE0
3FC0000FF0
3F800007F0
7F800007F8
7F000003F8
FF000003FC
ENDCHAR
STARTCHAR underscore
ENCODING 95
SWIDTH 668 0
DWIDTH 57 0
BBX 58 5 0 -14
BITMAP
FFFFFFFFFFFFFFC0
FFFFFFFFFFFFFFC0
FFFFFFFFFFFFFFC0
FFFFFFFFFFFFFFC0
FFFFFFFFFFFFFFC0
ENDCHAR
STARTCHAR grave
ENCODING 96
SWIDTH 362 0
DWIDTH 31 0
BBX 22 12 5 67
BITMAP
800000
E00000
FC0000
FF8000
FFF800
FFFF00
FFFFE0
FFFFFC
07FFFC
007FFC
0003FC
00001C
ENDCHAR
STARTCHAR a
ENCODING 97
SWIDTH 989 0
DWIDTH 85 0
BBX 83 64 1 0
BITMAP
0000000001F00000000000
0000000003F80000000000
0000000007FC0000000000
000000000FFE0000000000
000000000FFE0000000000
000000001FFF0000000000
000000003FFF0000000000
000000003FFF8000000000
000000007FFFC000000000
000000007FFFC000000000
00000000FFFFE000000000
00000001FFFFE000000000
00000001FFFFF000000000
00000003FFFFF800000000
00000003FFFFF800000000
00000007FFFFFC00000000
0000000FFFFFFC00000000
0000000FFF3FFE00000000
0000001FFE1FFF00000000
0000001FFE1FFF00000000
0000003FFC0FFF80000000
0000007FFC0FFF80000000
0000007FF807FFC0000000
000000FFF803FFE0000000
000000FFF003FFE0000000
000001FFE001FFF0000000
000003FFE001FFF0000000
000003FFC000FFF8000000
000007FFC0007FFC000000
000007FF80007FFC000000
00000FFF00003FFE000000
00000FFF00003FFE000000
00001FFE00001FFF000000
00003FFE00000FFF800000
00003FFC00000FFF800000
00007FF8000007FFC00000
00007FF8000007FFC00000
0000FFF0000003FFE00000
0001FFF0000001FFF00000
0001FFE00FFFFFFFF00000
0003FFE01FFFFFFFF80000
0003FFC03FFFFFFFF80000
0007FF803FFFFFFFFC0000
000FFF807FFFFFFFFE0000
000FFF007FFFFFFFFE0000
001FFF00FFFFFFFFFF0000
001FFE01FFFFFFFFFF0000
003FFC01FFFFFFFFFF8000
007FFC0000000007FFC000
007FF80000000007FFC000
00FFF80000000003FFE000
00FFF00000000003FFE000
01FFE00000000001FFF000
03FFE00000000001FFF800
03FFC00000000000FFF800
07FFC000000000007FFC00
07FF8000000000007FFC00
0FFF8000000000003FFE00
1FFF0000000000003FFE00
1FFE0000000000001FFF00
3FFE0000000000000FFF80
3FFC0000000000000FFF80
7FFC00000000000007FFC0
FFF800000000000007FFE0
ENDCHAR
STARTCHAR b
ENCODING 98
SWIDTH 891 0
DWIDTH 77 0
BBX 68 63 5 0
BITMAP
FFFFFFFFFFFFF00000
FFFFFFFFFFFFFF0000
FFFFFFFFFFFFFFC000
FFFFFFFFFFFFFFF000
FFFFFFFFFFFFFFF800
FFFFFFFFFFFFFFFC00
FFFFFFFFFFFFFFFE00
FFFFFFFFFFFFFFFF00
FFFFFFFFFFFFFFFF80
FFFFFFFFFFFFFFFF80
FFFFFFFFFFFFFFFF80
FFE0000000007FFFC0
FFE0000000000FFFC0
FFE00000000007FFC0
FFE00000000003FFC0
FFE00000000001FFC0
FFE00000000001FFC0
FFE00000000001FFC0
FFE00000000001FFC0
FFE00000000001FFC0
FFE00000000001FFC0
FFE00000000001FFC0
FFE00000000003FF80
FFE00000000003FF80
FFE00000000007FF00
FFE0000000003FFE00
FFE01FFFFFFFFFFC00
FFE01FFFFFFFFFF800
FFE01FFFFFFFFFF000
FFE01FFFFFFFFFC000
FFE01FFFFFFFFFF000
FFE01FFFFFFFFFFC00
FFE01FFFFFFFFFFE00
FFE01FFFFFFFFFFF00
FFE01FFFFFFFFFFF80
FFE0000000001FFF80
FFE00000000007FFC0
FFE00000000003FFC0
FFE00000000001FFE0
FFE00000000000FFE0
FFE00000000000FFE0
FFE00000000000FFE0
FFE00000000000FFE0
FFE00000000000FFF0
FFE00000000000FFE0
FFE00000000000FFE0
FFE00000000000FFE0
FFE00000000001FFE0
FFE00000000001FFE0
FFE00000000007FFE0
FFE0000000000FFFE0
FFE0000000007FFFC0
FFFFFFFFFFFFFFFFC0
FFFFFFFFFFFFFFFF80
FFFFFFFFFFFFFFFF80
FFFFFFFFFFFFFFFF00
FFFFFFFFFFFFFFFE00
FFFFFFFFFFFFFFFC00
FFFFFFFFFFFFFFF800
FFFFFFFFFFFFFFF000
FFFFFFFFFFFFFFC000
FFFFFFFFFFFFFF0000
FFFFFFFFFFFFF00000
ENDCHAR
STARTCHAR c
ENCODING 99
SWIDTH 829 0
DWIDTH 71 0
BBX 64 63 4 0
BITMAP
000000FFFFFFFFFF
00000FFFFFFFFFFF
00007FFFFFFFFFFF
0001FFFFFFFFFFFF
0007FFFFFFFFFFFF
000FFFFFFFFFFFFF
003FFFFFFFFFFFFF
007FFFFFFFFFFFFF
00FFFFFFFFFFFFFF
01FFFFFFFFFFFFFF
03FFFFFFFFFFFFFF
03FFFF8000000000
07FFFC0000000000
0FFFF00000000000
0FFFE00000000000
1FFF800000000000
1FFF000000000000
3FFE000000000000
3FFE000000000000
7FFC000000000000
7FF8000000000000
7FF8000000000000
7FF0000000000000
FFF0000000000000
FFE0000000000000
FFE0000000000000
FFE0000000000000
FFE0000000000000
FFE0000000000000
FFE0000000000000
FFE0000000000000
FFE0000000000000
FFE0000000000000
FFE0000000000000
FFE0000000000000
FFE0000000000000
FFE0000000000000
FFE0000000000000
FFF0000000000000
7FF0000000000000
7FF0000000000000
7FF8000000000000
7FF8000000000000
3FFC000000000000
3FFE000000000000
1FFE000000000000
1FFF000000000000
0FFF800000000000
0FFFE00000000000
07FFF00000000000
03FFFC0000000000
03FFFF8000000000
01FFFFFFFFFFFFFF
00FFFFFFFFFFFFFF
007FFFFFFFFFFFFF
003FFFFFFFFFFFFF
001FFFFFFFFFFFFF
0007FFFFFFFFFFFF
0003FFFFFFFFFFFF
0000FFFFFFFFFFFF
00003FFFFFFFFFFF
00000FFFFFFFFFFF
000000FFFFFFFFFF
ENDCHAR
STARTCHAR d
ENCODING 100
SWIDTH 879 0
DWIDTH 76 0
BBX 67 63 5 0
BITMAP
FFFFFFFFFFE0000000
FFFFFFFFFFFE000000
FFFFFFFFFFFF800000
FFFFFFFFFFFFF00000
FFFFFFFFFFFFF80000
FFFFFFFFFFFFFE0000
FFFFFFFFFFFFFF0000
FFFFFFFFFFFFFF8000
FFFFFFFFFFFFFFC000
FFFFFFFFFFFFFFE000
FFFFFFFFFFFFFFF000
FFE00000007FFFF800
FFE00000000FFFFC00
FFE000000003FFFC00
FFE000000000FFFE00
FFE0000000007FFE00
FFE0000000003FFF00
FFE0000000001FFF00
FFE0000000000FFF80
FFE00000000007FF80
FFE00000000007FFC0
FFE00000000003FFC0
FFE00000000003FFC0
FFE00000000001FFC0
FFE00000000001FFE0
FFE00000000001FFE0
FFE00000000000FFE0
FFE00000000000FFE0
FFE00000000000FFE0
FFE00000000000FFE0
FFE00000000000FFE0
FFE00000000000FFE0
FFE00000000000FFE0
FFE00000000000FFE0
FFE00000000000FFE0
FFE00000000000FFE0
FFE00000000000FFE0
FFE00000000001FFC0
FFE00000000001FFC0
FFE00000000001FFC0
FFE00000000003FFC0
FFE00000000003FF80
FFE00000000007FF80
FFE00000000007FF80
FFE0000000000FFF00
FFE0000000001FFF00
FFE0000000003FFF00
FFE0000000007FFE00
FFE000000000FFFC00
FFE000000003FFFC00
FFE00000000FFFF800
FFE00000007FFFF000
FFFFFFFFFFFFFFF000
FFFFFFFFFFFFFFE000
FFFFFFFFFFFFFFC000
FFFFFFFFFFFFFF8000
FFFFFFFFFFFFFE0000
FFFFFFFFFFFFFC0000
FFFFFFFFFFFFF80000
FFFFFFFFFFFFE00000
FFFFFFFFFFFF800000
FFFFFFFFFFFC000000
FFFFFFFFFFC0000000
ENDCHAR
STARTCHAR e
ENCODING 101
SWIDTH 759 0
DWIDTH 65 0
BBX 56 63 5 0
BITMAP
FFFFFFFFFFFFFF
FFFFFFFFFFFFFF
FFFFFFFFFFFFFF
FFFFFFFFFFFFFF
FFFFFFFFFFFFFF
FFFFFFFFFFFFFF
FFFFFFFFFFFFFF
FFFFFFFFFFFFFF
FFFFFFFFFFFFFF
FFFFFFFFFFFFFF
FFFFFFFFFFFFFF
FFE00000000000
FFE00000000000
FFE00000000000
FFE00000000000
FFE00000000000
FFE00000000000
FFE00000000000
FFE00000000000
FFE00000000000
FFE00000000000
FFE00000000000
FFE00000000000
FFE00000000000
FFE00000000000
FFE00000000000
FFE01FFFFFFFFC
FFE01FFFFFFFFC
FFE01FFFFFFFFC
FFE01FFFFFFFFC
FFE01FFFFFFFFC
FFE01FFFFFFFFC
FFE01FFFFFFFFC
FFE01FFFFFFFFC
FFE01FFFFFFFFC
FFE00000000000
FFE00000000000
FFE00000000000
FFE00000000000
FFE00000000000
FFE00000000000
FFE00000000000
FFE00000000000
FFE00000000000
FFE00000000000
FFE00000000000
FFE00000000000
FFE00000000000
FFE00000000000
FFE00000000000
FFE00000000000
FFE00000000000
FFFFFFFFFFFFFF
FFFFFFFFFFFFFF
FFFFFFFFFFFFFF
FFFFFFFFFFFFFF
FFFFFFFFFFFFFF
FFFFFFFFFFFFFF
FFFFFFFFFFFFFF
FFFFFFFFFFFFFF
FFFFFFFFFFFFFF
FFFFFFFFFFFFFF
FFFFFFFFFFFFFF
ENDCHAR
STARTCHAR f
ENCODING 102
SWIDTH 705 0
DWIDTH 61 0
BBX 53 63 5 0
BITMAP
FFFFFFFFFFFFF8
FFFFFFFFFFFFF8
FFFFFFFFFFFFF8
FFFFFFFFFFFFF8
FFFFFFFFFFFFF8
FFFFFFFFFFFFF8
FFFFFFFFFFFFF8
FFFFFFFFFFFFF8
FFFFFFFFFFFFF8
FFFFFFFFFFFFF8
FFFFFFFFFFFFF8
FFE00000000000
FFE00000000000
FFE00000000000
FFE00000000000
FFE00000000000
FFE00000000000
FFE00000000000
FFE00000000000
FFE00000000000
FFE00000000000
FFE00000000000
FFE00000000000
FFE00000000000
FFE00000000000
FFE00000000000
FFE00000000000
FFE01FFFFFFFE0
FFE01FFFFFFFE0
FFE01FFFFFFFE0
FFE01FFFFFFFE0
FFE01FFFFFFFE0
FFE01FFFFFFFE0
FFE01FFFFFFFE0
FFE01FFFFFFFE0
FFE01FFFFFFFE0
FFE01FFFFFFFE0
FFE00000000000
FFE00000000000
FFE00000000000
FFE00000000000
FFE00000000000
FFE00000000000
FFE00000000000
FFE00000000000
FFE00000000000
FFE00000000000
FFE00000000000
FFE00000000000
FFE00000000000
FFE00000000000
FFE00000000000
FFE00000000000
FFE00000000000
FFE00000000000
FFE00000000000
FFE00000000000
FFE00000000000
FFE00000000000
FFE00000000000
FFE00000000000
FFE00000000000
FFE00000000000
ENDCHAR
STARTCHAR g
ENCODING 103
SWIDTH 888 0
DWIDTH 76 0
BBX 68 63 4 0
BITMAP
000000FFFFFFFFFF00
00000FFFFFFFFFFF00
00007FFFFFFFFFFF00
0001FFFFFFFFFFFF00
0007FFFFFFFFFFFF00
000FFFFFFFFFFFFF00
003FFFFFFFFFFFFF00
007FFFFFFFFFFFFF00
00FFFFFFFFFFFFFF00
01FFFFFFFFFFFFFF00
03FFFFFFFFFFFFFF00
03FFFF800000000000
07FFFC000000000000
0FFFF0000000000000
0FFFE0000000000000
1FFF80000000000000
1FFF00000000000000
3FFE00000000000000
3FFE00000000000000
7FFC00000000000000
7FF800000000000000
7FF800000000000000
7FF000000000000000
FFF000000000000000
FFE000000000000000
FFE000000000000000
FFE00007FFFFFFFFF0
FFE00007FFFFFFFFF0
FFE00007FFFFFFFFF0
FFE00007FFFFFFFFF0
FFE00007FFFFFFFFF0
FFE00007FFFFFFFFF0
FFE00007FFFFFFFFF0
FFE00007FFFFFFFFF0
FFE00007FFFFFFFFF0
FFE000000000007FF0
FFE000000000007FF0
FFE000000000007FF0
FFF000000000007FF0
7FF000000000007FF0
7FF000000000007FF0
7FF800000000007FF0
7FF800000000007FF0
3FFC00000000007FF0
3FFE00000000007FF0
1FFE00000000007FF0
1FFF00000000007FF0
0FFF80000000007FF0
0FFFE0000000007FF0
07FFF0000000007FF0
03FFFC000000007FF0
03FFFF800000007FF0
01FFFFFFFFFFFFFFF0
00FFFFFFFFFFFFFFF0
007FFFFFFFFFFFFFF0
003FFFFFFFFFFFFFF0
001FFFFFFFFFFFFFF0
0007FFFFFFFFFFFFF0
0003FFFFFFFFFFFFF0
0000FFFFFFFFFFFFF0
00003FFFFFFFFFFFF0
00000FFFFFFFFFFFF0
000000FFFFFFFFFFF0
ENDCHAR
STARTCHAR h
ENCODING 104
SWIDTH 838 0
DWIDTH 72 0
BBX 62 63 5 0
BITMAP
FFE0000000001FFC
FFE0000000001FFC
FFE0000000001FFC
FFE0000000001FFC
FFE0000000001FFC
FFE0000000001FFC
FFE0000000001FFC
FFE0000000001FFC
FFE0000000001FFC
FFE0000000001FFC
FFE0000000001FFC
FFE0000000001FFC
FFE0000000001FFC
FFE0000000001FFC
FFE0000000001FFC
FFE0000000001FFC
FFE0000000001FFC
FFE0000000001FFC
FFE0000000001FFC
FFE0000000001FFC
FFE0000000001FFC
FFE0000000001FFC
FFE0000000001FFC
FFE0000000001FFC
FFE0000000001FFC
FFE0000000001FFC
FFE01FFFFFFFFFFC
FFE01FFFFFFFFFFC
FFE01FFFFFFFFFFC
FFE01FFFFFFFFFFC
FFE01FFFFFFFFFFC
FFE01FFFFFFFFFFC
FFE01FFFFFFFFFFC
FFE01FFFFFFFFFFC
FFE01FFFFFFFFFFC
FFE01FFFFFFFFFFC
FFE0000000001FFC
FFE0000000001FFC
FFE0000000001FFC
FFE0000000001FFC
FFE0000000001FFC
FFE0000000001FFC
FFE0000000001FFC
FFE0000000001FFC
FFE0000000001FFC
FFE0000000001FFC
FFE0000000001FFC
FFE0000000001FFC
FFE0000000001FFC
FFE0000000001FFC
FFE0000000001FFC
FFE0000000001FFC
FFE0000000001FFC
FFE0000000001FFC
FFE0000000001FFC
FFE0000000001FFC
FFE0000000001FFC
FFE0000000001FFC
FFE0000000001FFC
FFE0000000001FFC
FFE0000000001FFC
FFE0000000001FFC
FFE0000000001FFC
ENDCHAR
STARTCHAR i
ENCODING 105
SWIDTH 267 0
DWIDTH 23 0
BBX 11 63 6 0
BITMAP
FFE0
FFE0
FFE0
FFE0
FFE0
FFE0
FFE0
FFE0
FFE0
FFE0
FFE0
FFE0
FFE0
FFE0
FFE0
FFE0
FFE0
FFE0
FFE0
FFE0
FFE0
FFE0
FFE0
FFE0
FFE0
FFE0
FFE0
FFE0
FFE0
FFE0
FFE0
FFE0
FFE0
FFE0
FFE0
FFE0
FFE0
FFE0
FFE0
FFE0
FFE0
FFE0
FFE0
FFE0
FFE0
FFE0
FFE0
FFE0
FFE0
FFE0
FFE0
FFE0
FFE0
FFE0
FFE0
FFE0
FFE0
FFE0
FFE0
FFE0
FFE0
FFE0
FFE0
ENDCHAR
STARTCHAR j
ENCODING 106
SWIDTH 708 0
DWIDTH 61 0
BBX 54 63 2 0
BITMAP
00000000001FFC
00000000001FFC
00000000001FFC
00000000001FFC
00000000001FFC
00000000001FFC
00000000001FFC
00000000001FFC
00000000001FFC
00000000001FFC
00000000001FFC
00000000001FFC
00000000001FFC
00000000001FFC
00000000001FFC
00000000001FFC
00000000001FFC
00000000001FFC
00000000001FFC
00000000001FFC
00000000001FFC
00000000001FFC
00000000001FFC
00000000001FFC
00000000001FFC
00000000001FFC
00000000001FFC
00000000001FFC
00000000001FFC
00000000001FFC
00000000001FFC
00000000001FFC
00000000001FFC
00000000001FFC
00000000001FFC
00000000001FFC
00000000001FFC
00000000001FFC
00000000001FFC
00000000001FFC
00000000001FFC
00000000001FFC
00000000003FFC
00000000003FFC
00000000007FF8
00000000007FF8
0000000000FFF8
0000000001FFF0
0000000003FFF0
000000000FFFF0
000000003FFFE0
00000003FFFFC0
FFFFFFFFFFFFC0
FFFFFFFFFFFF80
FFFFFFFFFFFF00
FFFFFFFFFFFE00
FFFFFFFFFFFC00
FFFFFFFFFFF800
FFFFFFFFFFF000
FFFFFFFFFFC000
FFFFFFFFFE0000
FFFFFFFFF00000
FFFFFFFE000000
ENDCHAR
STARTCHAR k
ENCODING 107
SWIDTH 875 0
DWIDTH 75 0
BBX 69 63 5 0
BITMAP
FFE0000000003FFFE0
FFE0000000007FFF80
FFE000000001FFFF00
FFE000000003FFFE00
FFE000000007FFF800
FFE00000001FFFF000
FFE00000003FFFE000
FFE00000007FFF8000
FFE0000000FFFF0000
FFE0000003FFFE0000
FFE0000007FFF80000
FFE000000FFFF00000
FFE000003FFFE00000
FFE000007FFF800000
FFE00000FFFF000000
FFE00001FFFE000000
FFE00007FFF8000000
FFE0000FFFF0000000
FFE0001FFFE0000000
FFE0007FFF80000000
FFE000FFFF00000000
FFE001FFFE00000000
FFE003FFF800000000
FFE00FFFF000000000
FFE01FFFE000000000
FFE03FFF8000000000
FFE0FFFF0000000000
FFE0FFFE0000000000
FFE1FFF80000000000
FFE1FFF00000000000
FFE1FFE00000000000
FFE1FFE00000000000
FFE1FFF80000000000
FFE1FFFC0000000000
FFE0FFFE0000000000
FFE07FFF8000000000
FFE01FFFC000000000
FFE00FFFE000000000
FFE007FFF800000000
FFE003FFFC00000000
FFE000FFFE00000000
FFE0007FFF00000000
FFE0003FFFC0000000
FFE0001FFFE0000000
FFE00007FFF0000000
FFE00003FFFC000000
FFE00001FFFE000000
FFE00000FFFF000000
FFE000003FFFC00000
FFE000001FFFE00000
FFE000000FFFF00000
FFE0000007FFFC0000
FFE0000001FFFE0000
FFE0000000FFFF0000
FFE00000007FFF8000
FFE00000003FFFE000
FFE00000000FFFF000
FFE000000007FFF800
FFE000000003FFFE00
FFE000000001FFFF00
FFE0000000007FFF80
FFE0000000003FFFE0
FFE0000000001FFFF8
ENDCHAR
STARTCHAR l
ENCODING 108
SWIDTH 707 0
DWIDTH 61 0
BBX 53 63 5 0
BITMAP
FFE00000000000
FFE00000000000
FFE00000000000
FFE00000000000
FFE00000000000
FFE00000000000
FFE00000000000
FFE00000000000
FFE00000000000
FFE00000000000
FFE00000000000
FFE00000000000
FFE00000000000
FFE00000000000
FFE00000000000
FFE00000000000
FFE00000000000
FFE00000000000
FFE00000000000
FFE00000000000
FFE00000000000
FFE00000000000
FFE00000000000
FFE00000000000
FFE00000000000
FFE00000000000
FFE00000000000
FFE00000000000
FFE00000000000
FFE00000000000
FFE00000000000
FFE00000000000
FFE00000000000
FFE00000000000
FFE00000000000
FFE00000000000
FFE00000000000
FFE00000000000
FFE00000000000
FFE00000000000
FFE00000000000
FFE00000000000
FFE00000000000
FFE00000000000
FFE00000000000
FFE00000000000
FFE00000000000
FFE00000000000
FFE00000000000
FFE00000000000
FFE00000000000
FFE00000000000
FFFFFFFFFFFFF8
FFFFFFFFFFFFF8
FFFFFFFFFFFFF8
FFFFFFFFFFFFF8
FFFFFFFFFFFFF8
FFFFFFFFFFFFF8
FFFFFFFFFFFFF8
FFFFFFFFFFFFF8
FFFFFFFFFFFFF8
FFFFFFFFFFFFF8
FFFFFFFFFFFFF8
ENDCHAR
STARTCHAR m
ENCODING 109
SWIDTH 1115 0
DWIDTH 96 0
BBX 92 64 2 -1
BITMAP
00001F00000000000F800000
00003FC0000000001FE00000
00007FC0000000003FE00000
0000FFE0000000003FF00000
0000FFE0000000007FF00000
0000FFF0000000007FF00000
0000FFF000000000FFF80000
0001FFF800000000FFF80000
0001FFF800000001FFF80000
0001FFFC00000001FFF80000
0003FFFC00000001FFFC0000
0003FFFC00000003FFFC0000
0003FFFE00000003FFFC0000
0003FFFE00000007FFFE0000
0007FFFF00000007FFFE0000
0007FFFF0000000FFFFE0000
0007FFFF8000000FFFFE0000
0007FFFF8000000FFFFF0000
000FFFFFC000001FFFFF0000
000FFFFFC000001FFFFF0000
000FFDFFC000003FFBFF0000
001FFCFFE000003FF3FF8000
001FFCFFE000007FF3FF8000
001FFC7FF000007FF3FF8000
001FF87FF00000FFE1FFC000
003FF87FF80000FFE1FFC000
003FF83FF80000FFC1FFC000
003FF83FF80001FFC0FFC000
003FF01FFC0001FF80FFE000
007FF01FFC0003FF80FFE000
007FF00FFE0003FF00FFE000
007FE00FFE0007FF007FE000
00FFE00FFF0007FF007FF000
00FFE007FF0007FE007FF000
00FFE007FF800FFE007FF000
00FFC003FF800FFC003FF800
01FFC003FF801FFC003FF800
01FFC001FFC01FF8003FF800
01FFC001FFC03FF8001FF800
01FF8000FFE03FF8001FFC00
03FF8000FFE07FF0001FFC00
03FF8000FFF07FF0001FFC00
03FF00007FF07FE0000FFC00
07FF00007FF0FFE0000FFE00
07FF00003FF8FFC0000FFE00
07FF00003FF9FFC0000FFE00
07FE00001FFDFF800007FF00
0FFE00001FFFFF800007FF00
0FFE00001FFFFF800007FF00
0FFE00000FFFFF000003FF00
1FFC00000FFFFF000003FF80
1FFC000007FFFE000003FF80
1FFC000007FFFE000003FF80
1FF8000003FFFC000001FF80
3FF8000003FFFC000001FFC0
3FF8000003FFFC000001FFC0
3FF8000001FFF8000001FFC0
3FF0000001FFF8000000FFE0
7FF0000000FFF0000000FFE0
7FF0000000FFF0000000FFE0
7FF00000007FE00000007FE0
FFE00000007FE00000007FF0
FFE00000003FC00000007FF0
00000000000F000000000000
ENDCHAR
STARTCHAR n
ENCODING 110
SWIDTH 873 0
DWIDTH 75 0
BBX 65 63 5 0
BITMAP
1F000000000001FF80
3FC00000000001FF80
7FE00000000001FF80
7FF00000000001FF80
FFF80000000001FF80
FFFC0000000001FF80
FFFE0000000001FF80
FFFF0000000001FF80
FFFF8000000001FF80
FFFFC000000001FF80
FFFFE000000001FF80
FFFFF000000001FF80
FFFFF800000001FF80
FFFFFC00000001FF80
FFFFFE00000001FF80
FFFFFF00000001FF80
FFFFFF80000001FF80
FFFFFFC0000001FF80
FFFFFFE0000001FF80
FFEFFFF0000001FF80
FFE7FFF8000001FF80
FFE3FFFC000001FF80
FFE0FFFE000001FF80
FFE07FFF000001FF80
FFE03FFF800001FF80
FFE01FFFC00001FF80
FFE00FFFE00001FF80
FFE007FFF00001FF80
FFE003FFF80001FF80
FFE001FFFC0001FF80
FFE000FFFE0001FF80
FFE0007FFF0001FF80
FFE0003FFF8001FF80
FFE0001FFFC001FF80
FFE0000FFFE001FF80
FFE00007FFF001FF80
FFE00003FFF801FF80
FFE00001FFFC01FF80
FFE00000FFFE01FF80
FFE000007FFF01FF80
FFE000003FFF81FF80
FFE000001FFFC1FF80
FFE000000FFFE1FF80
FFE0000007FFF1FF80
FFE0000003FFF9FF80
FFE0000001FFFDFF80
FFE0000000FFFFFF80
FFE00000007FFFFF80
FFE00000003FFFFF80
FFE00000001FFFFF80
FFE00000000FFFFF80
FFE000000007FFFF80
FFE000000003FFFF80
FFE000000001FFFF80
FFE000000000FFFF80
FFE0000000007FFF80
FFE0000000003FFF80
FFE0000000001FFF80
FFE0000000000FFF80
FFE00000000007FF00
FFE00000000003FF00
FFE00000000001FE00
FFE000000000007C00
ENDCHAR
STARTCHAR o
ENCODING 111
SWIDTH 968 0
DWIDTH 83 0
BBX 76 63 4 0
BITMAP
000000FFFFFFE0000000
00000FFFFFFFFE000000
00007FFFFFFFFFC00000
0001FFFFFFFFFFF00000
0007FFFFFFFFFFFC0000
000FFFFFFFFFFFFF0000
003FFFFFFFFFFFFF8000
007FFFFFFFFFFFFFC000
00FFFFFFFFFFFFFFE000
01FFFFFFFFFFFFFFF000
03FFFFFFFFFFFFFFF800
03FFFF8000003FFFFC00
07FFFC00000007FFFE00
0FFFF000000001FFFE00
0FFFE0000000007FFF00
1FFF80000000003FFF00
1FFF00000000001FFF80
3FFE00000000000FFF80
3FFE000000000007FFC0
7FFC000000000003FFC0
7FF8000000000003FFC0
7FF8000000000001FFE0
7FF0000000000001FFE0
FFF0000000000000FFE0
FFE0000000000000FFE0
FFE0000000000000FFE0
FFE0000000000000FFF0
FFE00000000000007FF0
FFE00000000000007FF0
FFE00000000000007FF0
FFE00000000000007FF0
FFE00000000000007FF0
FFE00000000000007FF0
FFE00000000000007FF0
FFE00000000000007FF0
FFE00000000000007FF0
FFE0000000000000FFE0
FFE0000000000000FFE0
FFF0000000000000FFE0
7FF0000000000001FFE0
7FF0000000000001FFE0
7FF8000000000001FFC0
7FF8000000000003FFC0
3FFC000000000007FFC0
3FFE000000000007FF80
1FFE00000000000FFF80
1FFF00000000001FFF00
0FFF80000000003FFF00
0FFFE0000000007FFE00
07FFF000000001FFFE00
03FFFC00000007FFFC00
03FFFF8000003FFFF800
01FFFFFFFFFFFFFFF000
00FFFFFFFFFFFFFFE000
007FFFFFFFFFFFFFC000
003FFFFFFFFFFFFF8000
001FFFFFFFFFFFFF0000
0007FFFFFFFFFFFE0000
0003FFFFFFFFFFF80000
0000FFFFFFFFFFF00000
00003FFFFFFFFFC00000
00000FFFFFFFFE000000
000000FFFFFFE0000000
ENDCHAR
STARTCHAR p
ENCODING 112
SWIDTH 867 0
DWIDTH 75 0
BBX 67 63 5 0
BITMAP
FFFFFFFFFFFFC00000
FFFFFFFFFFFFFC0000
FFFFFFFFFFFFFF0000
FFFFFFFFFFFFFFC000
FFFFFFFFFFFFFFE000
FFFFFFFFFFFFFFF800
FFFFFFFFFFFFFFFC00
FFFFFFFFFFFFFFFC00
FFFFFFFFFFFFFFFE00
FFFFFFFFFFFFFFFF00
FFFFFFFFFFFFFFFF00
FFE000000000FFFF80
FFE0000000001FFF80
FFE00000000007FFC0
FFE00000000003FFC0
FFE00000000003FFC0
FFE00000000001FFE0
FFE00000000000FFE0
FFE00000000000FFE0
FFE00000000000FFE0
FFE00000000000FFE0
FFE000000000007FE0
FFE000000000007FE0
FFE000000000007FE0
FFE00000000000FFE0
FFE00000000000FFE0
FFE00000000000FFE0
FFE00000000000FFE0
FFE00000000001FFE0
FFE00000000001FFC0
FFE00000000003FFC0
FFE00000000003FFC0
FFE0000000000FFFC0
FFE0000000001FFF80
FFE000000000FFFF80
FFE01FFFFFFFFFFF00
FFE01FFFFFFFFFFF00
FFE01FFFFFFFFFFE00
FFE01FFFFFFFFFFC00
FFE01FFFFFFFFFF800
FFE01FFFFFFFFFF000
FFE01FFFFFFFFFE000
FFE01FFFFFFFFFC000
FFE01FFFFFFFFF0000
FFE01FFFFFFFF80000
FFE01FFFFFFFC00000
FFE000000000000000
FFE000000000000000
FFE000000000000000
FFE000000000000000
FFE000000000000000
FFE000000000000000
FFE000000000000000
FFE000000000000000
FFE000000000000000
FFE000000000000000
FFE000000000000000
FFE000000000000000
FFE000000000000000
FFE000000000000000
FFE000000000000000
FFE000000000000000
FFE000000000000000
ENDCHAR
STARTCHAR q
ENCODING 113
SWIDTH 968 0
DWIDTH 83 0
BBX 79 63 4 0
BITMAP
000000FFFFFFE0000000
00000FFFFFFFFE000000
00007FFFFFFFFFC00000
0001FFFFFFFFFFF00000
0007FFFFFFFFFFFC0000
000FFFFFFFFFFFFF0000
003FFFFFFFFFFFFF8000
007FFFFFFFFFFFFFC000
00FFFFFFFFFFFFFFE000
01FFFFFFFFFFFFFFF000
03FFFFFFFFFFFFFFF800
03FFFF8000003FFFFC00
07FFFC00000007FFFE00
0FFFF000000001FFFE00
0FFFE0000000007FFF00
1FFF80000000003FFF00
1FFF00000000001FFF80
3FFE00000000000FFF80
3FFE000000000007FFC0
7FFC000000000003FFC0
7FF8000000000003FFC0
7FF8000000000001FFE0
7FF0000000000001FFE0
FFF0000000000000FFE0
FFE0000000000000FFE0
FFE0000000000000FFE0
FFE0000000000000FFF0
FFE00000000000007FF0
FFE00000000000007FF0
FFE00000000000007FF0
FFE00000000000007FF0
FFE00000000000007FF0
FFE00000000000007FF0
FFE00000000000007FF0
FFE00000000000007FF0
FFE00000000000007FF0
FFE0000000000000FFE0
FFE000007FFF0000FFE0
FFF000003FFF8000FFE0
7FF000000FFFC001FFE0
7FF0000007FFE001FFE0
7FF8000003FFF001FFC0
7FF8000001FFF803FFC0
3FFC0000007FFE07FFC0
3FFE0000003FFF07FF80
1FFE0000001FFF8FFF80
1FFF00000007FFDFFF00
0FFF80000003FFFFFF00
0FFFE0000001FFFFFE00
07FFF0000000FFFFFE00
03FFFC0000003FFFFC00
03FFFF8000003FFFF800
01FFFFFFFFFFFFFFF000
00FFFFFFFFFFFFFFE000
007FFFFFFFFFFFFFF000
003FFFFFFFFFFFFFF800
001FFFFFFFFFFFFFFE00
0007FFFFFFFFFFFFFF00
0003FFFFFFFFFFFFFF80
0000FFFFFFFFFFFFFFC0
00003FFFFFFFFF87FFF0
00000FFFFFFFFE01FFF8
000000FFFFFFE000FFFE
ENDCHAR
STARTCHAR r
ENCODING 114
SWIDTH 921 0
DWIDTH 79 0
BBX 74 63 5 0
BITMAP
FFFFFFFFFFFFE0000000
FFFFFFFFFFFFFE000000
FFFFFFFFFFFFFF800000
FFFFFFFFFFFFFFE00000
FFFFFFFFFFFFFFF00000
FFFFFFFFFFFFFFF80000
FFFFFFFFFFFFFFFC0000
FFFFFFFFFFFFFFFE0000
FFFFFFFFFFFFFFFF0000
FFFFFFFFFFFFFFFF8000
FFFFFFFFFFFFFFFF8000
FFE0000000007FFFC000
FFE0000000000FFFC000
FFE00000000003FFC000
FFE00000000001FFE000
FFE00000000001FFE000
FFE00000000000FFE000
FFE00000000000FFE000
FFE000000000007FF000
FFE000000000007FF000
FFE000000000007FF000
FFE000000000007FF000
FFE000000000007FF000
FFE000000000007FF000
FFE000000000007FF000
FFE000000000007FF000
FFE000000000007FF000
FFE000000000007FF000
FFE000000000007FF000
FFE00000000000FFE000
FFE00000000000FFE000
FFE00000000001FFE000
FFE00000000003FFE000
FFE00000000007FFC000
FFE0000000000FFFC000
FFE0000000007FFF8000
FFE01FFFFFFFFFFF8000
FFE01FFFFFFFFFFF0000
FFE01FFFFFFFFFFE0000
FFE01FFFFFFFFFFC0000
FFE01FFFFFFFFFF80000
FFE01FFFFFFFFFF00000
FFE01FFFFFFFFFE00000
FFE01FFFFFFFFF800000
FFE01FFFFFFFFE000000
FFE01FFFFFFFFF000000
FFE00000001FFF800000
FFE00000000FFFC00000
FFE000000007FFE00000
FFE000000003FFF00000
FFE000000001FFF80000
FFE000000000FFFC0000
FFE0000000007FFE0000
FFE0000000003FFF0000
FFE0000000001FFF8000
FFE0000000001FFFC000
FFE0000000000FFFE000
FFE00000000007FFF000
FFE00000000003FFF800
FFE00000000001FFFC00
FFE00000000000FFFE00
FFE000000000007FFF00
FFE000000000003FFFC0
ENDCHAR
STARTCHAR s
ENCODING 115
SWIDTH 880 0
DWIDTH 76 0
BBX 68 63 4 0
BITMAP
0001FFFFFFFFFFFF80
001FFFFFFFFFFFFF80
007FFFFFFFFFFFFF80
01FFFFFFFFFFFFFF80
03FFFFFFFFFFFFFF80
07FFFFFFFFFFFFFF80
0FFFFFFFFFFFFFFF80
1FFFFFFFFFFFFFFF80
1FFFFFFFFFFFFFFF80
3FFFFFFFFFFFFFFF80
3FFFFFFFFFFFFFFF80
7FFF00000000000000
7FFC00000000000000
7FF800000000000000
7FF800000000000000
7FF000000000000000
FFF000000000000000
FFF000000000000000
FFF000000000000000
7FF000000000000000
7FF000000000000000
7FF000000000000000
7FF800000000000000
7FF800000000000000
3FFC00000000000000
3FFF00000000000000
1FFFFFFFFFFFFC0000
1FFFFFFFFFFFFFC000
0FFFFFFFFFFFFFF000
07FFFFFFFFFFFFF800
03FFFFFFFFFFFFFE00
01FFFFFFFFFFFFFF00
007FFFFFFFFFFFFF80
001FFFFFFFFFFFFF80
0001FFFFFFFFFFFFC0
0000000000000FFFC0
00000000000003FFE0
00000000000001FFE0
00000000000000FFE0
000000000000007FE0
000000000000007FE0
000000000000007FF0
000000000000007FF0
000000000000007FF0
000000000000007FF0
000000000000007FF0
000000000000007FF0
000000000000007FF0
00000000000000FFE0
00000000000001FFE0
00000000000003FFE0
0000000000000FFFE0
7FFFFFFFFFFFFFFFC0
7FFFFFFFFFFFFFFFC0
7FFFFFFFFFFFFFFF80
7FFFFFFFFFFFFFFF80
7FFFFFFFFFFFFFFF00
7FFFFFFFFFFFFFFE00
7FFFFFFFFFFFFFFC00
7FFFFFFFFFFFFFF800
7FFFFFFFFFFFFFE000
7FFFFFFFFFFFFF8000
7FFFFFFFFFFFFC0000
ENDCHAR
STARTCHAR t
ENCODING 116
SWIDTH 720 0
DWIDTH 62 0
BBX 58 63 2 0
BITMAP
FFFFFFFFFFFFFFC0
FFFFFFFFFFFFFFC0
FFFFFFFFFFFFFFC0
FFFFFFFFFFFFFFC0
FFFFFFFFFFFFFFC0
FFFFFFFFFFFFFFC0
FFFFFFFFFFFFFFC0
FFFFFFFFFFFFFFC0
FFFFFFFFFFFFFFC0
FFFFFFFFFFFFFFC0
FFFFFFFFFFFFFFC0
000001FFC0000000
000001FFC0000000
000001FFC0000000
000001FFC0000000
000001FFC0000000
000001FFC0000000
000001FFC0000000
000001FFC0000000
000001FFC0000000
000001FFC0000000
000001FFC0000000
000001FFC0000000
000001FFC0000000
000001FFC0000000
000001FFC0000000
000001FFC0000000
000001FFC0000000
000001FFC0000000
000001FFC0000000
000001FFC0000000
000001FFC0000000
000001FFC0000000
000001FFC0000000
000001FFC0000000
000001FFC0000000
000001FFC0000000
000001FFC0000000
000001FFC0000000
000001FFC0000000
000001FFC0000000
000001FFC0000000
000001FFC0000000
000001FFC0000000
000001FFC0000000
000001FFC0000000
000001FFC0000000
000001FFC0000000
000001FFC0000000
000001FFC0000000
000001FFC0000000
000001FFC0000000
000001FFC0000000
000001FFC0000000
000001FFC0000000
000001FFC0000000
000001FFC0000000
000001FFC0000000
000001FFC0000000
000001FFC0000000
000001FFC0000000
000001FFC0000000
000001FFC0000000
ENDCHAR
STARTCHAR u
ENCODING 117
SWIDTH 889 0
DWIDTH 76 0
BBX 68 64 4 -1
BITMAP
FFF000000000007FF0
FFF000000000007FF0
FFF000000000007FF0
FFF000000000007FF0
FFF000000000007FF0
FFF000000000007FF0
FFF000000000007FF0
FFF000000000007FF0
FFF000000000007FF0
FFF000000000007FF0
FFF000000000007FF0
FFF000000000007FF0
FFF000000000007FF0
FFF000000000007FF0
FFF000000000007FF0
FFF000000000007FF0
FFF000000000007FF0
FFF000000000007FF0
FFF000000000007FF0
FFF000000000007FF0
FFF000000000007FF0
FFF000000000007FF0
FFF000000000007FF0
FFF000000000007FF0
FFF000000000007FF0
FFF000000000007FF0
FFF000000000007FF0
FFF000000000007FF0
FFF000000000007FF0
FFF000000000007FF0
FFF000000000007FF0
FFF000000000007FF0
FFF000000000007FF0
FFF000000000007FF0
FFF000000000007FF0
FFF000000000007FF0
FFF000000000007FF0
FFF000000000007FF0
7FF000000000007FF0
7FF000000000007FF0
7FF000000000007FF0
7FF000000000007FF0
7FF80000000000FFE0
7FF80000000000FFE0
7FF80000000000FFE0
3FFC0000000001FFE0
3FFE0000000001FFE0
3FFE0000000003FFC0
1FFF0000000007FFC0
1FFFC00000001FFF80
1FFFE00000003FFF80
0FFFFC000001FFFF80
0FFFFFE0001FFFFF00
07FFFFFFFFFFFFFE00
03FFFFFFFFFFFFFE00
01FFFFFFFFFFFFFC00
00FFFFFFFFFFFFF800
007FFFFFFFFFFFF000
003FFFFFFFFFFFC000
000FFFFFFFFFFF8000
0003FFFFFFFFFE0000
0000FFFFFFFFF00000
00000FFFFFFF800000
0000007FFFE0000000
ENDCHAR
STARTCHAR v
ENCODING 118
SWIDTH 989 0
DWIDTH 85 0
BBX 83 64 1 -1
BITMAP
FFFC00000000000003FFE0
7FFC00000000000007FFC0
3FFE00000000000007FF80
3FFF0000000000000FFF80
1FFF0000000000000FFF00
1FFF8000000000001FFF00
0FFF8000000000003FFE00
07FFC000000000003FFC00
07FFC000000000007FFC00
03FFE000000000007FF800
03FFF00000000000FFF800
01FFF00000000001FFF000
00FFF80000000001FFE000
00FFF80000000003FFE000
007FFC0000000003FFC000
007FFE0000000007FFC000
003FFE0000000007FF8000
001FFF000000000FFF0000
001FFF000000001FFF0000
000FFF800000001FFE0000
000FFF800000003FFE0000
0007FFC00000003FFC0000
0003FFE00000007FF80000
0003FFE00000007FF80000
0001FFF0000000FFF00000
0001FFF0000001FFF00000
0000FFF8000001FFE00000
00007FFC000003FFC00000
00007FFC000003FFC00000
00003FFE000007FF800000
00003FFE00000FFF800000
00001FFF00000FFF000000
00000FFF00001FFE000000
00000FFF80001FFE000000
000007FFC0003FFC000000
000007FFC0003FFC000000
000003FFE0007FF8000000
000001FFE000FFF0000000
000001FFF000FFF0000000
000000FFF801FFE0000000
000000FFF801FFE0000000
0000007FFC03FFC0000000
0000007FFC07FF80000000
0000003FFE07FF80000000
0000001FFE0FFF00000000
0000001FFF0FFF00000000
0000000FFF9FFE00000000
0000000FFF9FFC00000000
00000007FFFFFC00000000
00000003FFFFF800000000
00000003FFFFF800000000
00000001FFFFF000000000
00000001FFFFE000000000
00000000FFFFE000000000
000000007FFFC000000000
000000007FFFC000000000
000000003FFF8000000000
000000003FFF8000000000
000000001FFF0000000000
000000000FFE0000000000
000000000FFE0000000000
0000000007FC0000000000
0000000003F80000000000
0000000001F00000000000
ENDCHAR
STARTCHAR w
ENCODING 119
SWIDTH 1268 0
DWIDTH 109 0
BBX 107 64 1 -1
BITMAP
FFFC0000FFF8000000000003FFE0
7FFC00007FFC000000000003FFC0
3FFE00007FFC000000000007FF80
3FFE00003FFE000000000007FF80
1FFF00003FFE00000000000FFF00
1FFF00001FFF00000000000FFF00
0FFF80001FFF00000000001FFE00
0FFF80000FFF80000000001FFE00
07FFC0000FFF80000000003FFC00
07FFC00007FFC0000000003FFC00
03FFE00007FFC0000000007FF800
03FFE00003FFE0000000007FF800
01FFF00003FFE000000000FFF000
01FFF00001FFF000000001FFF000
00FFF80001FFF000000001FFE000
00FFF80000FFF800000003FFE000
007FFC0000FFF800000003FFC000
003FFC00007FFC00000007FF8000
003FFE00007FFC00000007FF8000
001FFE00003FFE0000000FFF0000
001FFF00003FFE0000000FFF0000
000FFF00001FFF0000001FFE0000
000FFF80001FFF0000001FFE0000
0007FFC0000FFF8000003FFC0000
0007FFC0000FFF8000003FFC0000
0003FFE00007FFC000007FF80000
0003FFE00007FFC000007FF80000
0001FFF00003FFE00000FFF00000
0001FFF00003FFE00000FFF00000
0000FFF80001FFF00001FFE00000
0000FFF80000FFF00001FFC00000
00007FFC0000FFF80003FFC00000
00003FFC0001FFF80003FF800000
00003FFE0001FFFC0007FF800000
00001FFE0003FFFC000FFF000000
00001FFF0003FFFE000FFF000000
00000FFF0007FFFE001FFE000000
00000FFF8007FFFF001FFE000000
000007FF800FFFFF003FFC000000
000007FFC00FFFFF803FFC000000
000003FFC01FFFFF807FF8000000
000003FFE03FFFFFC07FF8000000
000001FFE03FFBFFC0FFF0000000
000001FFF07FFBFFE0FFF0000000
000000FFF07FF1FFE1FFE0000000
0000007FF8FFF1FFF1FFC0000000
0000007FF8FFE0FFF3FFC0000000
0000003FFDFFE0FFFBFF80000000
0000003FFFFFC07FFFFF80000000
0000001FFFFFC07FFFFF00000000
0000001FFFFF803FFFFF00000000
0000000FFFFF803FFFFE00000000
0000000FFFFF001FFFFE00000000
00000007FFFF001FFFFC00000000
00000007FFFE000FFFFC00000000
00000003FFFC0007FFF800000000
00000003FFFC0007FFF800000000
00000001FFF80003FFF000000000
00000001FFF80003FFF000000000
00000000FFF00001FFE000000000
000000007FF00001FFC000000000
000000007FE00000FFC000000000
000000003FC000007F8000000000
000000000F8000003E0000000000
ENDCHAR
STARTCHAR x
ENCODING 120
SWIDTH 1000 0
DWIDTH 86 0
BBX 82 63 2 0
BITMAP
3FFFC00000000000FFFE00
0FFFE00000000001FFF800
07FFF00000000003FFF000
03FFF80000000007FFE000
01FFFC000000000FFFC000
00FFFE000000001FFF8000
007FFF000000003FFF0000
003FFF800000007FFE0000
001FFFC0000000FFFC0000
000FFFE0000001FFF80000
0007FFF0000003FFF00000
0003FFF8000007FFE00000
0001FFFC00000FFFC00000
0000FFFE00001FFF800000
00007FFF00003FFF000000
00003FFF80007FFE000000
00001FFFC000FFFC000000
00000FFFE001FFF8000000
000007FFF003FFF0000000
000003FFF807FFE0000000
000001FFFC0FFFC0000000
000000FFFE1FFF80000000
0000007FFF3FFF00000000
0000001FFFFFFE00000000
0000000FFFFFFC00000000
00000007FFFFF800000000
00000003FFFFF000000000
00000001FFFFE000000000
00000000FFFFC000000000
000000007FFF0000000000
000000007FFF0000000000
00000000FFFF8000000000
00000001FFFFC000000000
00000003FFFFE000000000
00000007FFFFF000000000
0000000FFFFFF800000000
0000001FFFFFFC00000000
0000003FFFFFFE00000000
0000007FFE7FFF00000000
000000FFFC3FFF80000000
000001FFF81FFFC0000000
000003FFF00FFFE0000000
000007FFE007FFF0000000
00000FFFC003FFF8000000
00001FFF8001FFFC000000
00003FFF0000FFFF000000
00007FFE00007FFF800000
0000FFFC00003FFFC00000
0001FFF800001FFFE00000
0003FFF0000007FFF00000
0007FFE0000003FFF80000
000FFFC0000001FFFC0000
001FFF80000000FFFE0000
003FFF000000007FFF0000
007FFE000000003FFF8000
00FFFC000000001FFFC000
01FFF8000000000FFFE000
03FFF00000000007FFF000
0FFFE00000000003FFF800
1FFFC00000000001FFFC00
3FFF800000000000FFFE00
7FFF0000000000007FFF00
FFFE0000000000003FFFC0
ENDCHAR
STARTCHAR y
ENCODING 121
SWIDTH 926 0
DWIDTH 80 0
BBX 78 63 1 0
BITMAP
FFFE000000000001FFFC
7FFF000000000003FFF0
3FFF800000000007FFE0
1FFFC00000000007FFE0
0FFFE0000000000FFFC0
07FFE0000000001FFF80
03FFF0000000003FFF00
03FFF8000000007FFE00
01FFFC00000000FFFC00
00FFFE00000000FFF800
007FFF00000001FFF800
003FFF00000003FFF000
001FFF80000007FFE000
000FFFC000000FFFC000
000FFFE000001FFF8000
0007FFF000001FFF0000
0003FFF800003FFE0000
0001FFFC00007FFE0000
0000FFFC0000FFFC0000
00007FFE0001FFF80000
00003FFF0003FFF00000
00003FFF8007FFE00000
00001FFFC007FFC00000
00000FFFE00FFFC00000
000007FFE01FFF800000
000003FFF03FFF000000
000001FFF87FFE000000
000001FFFCFFFC000000
000000FFFEFFF8000000
0000007FFFFFF0000000
0000003FFFFFF0000000
0000001FFFFFE0000000
0000000FFFFFC0000000
00000007FFFF80000000
00000007FFFF00000000
00000003FFFE00000000
00000001FFFC00000000
00000000FFFC00000000
000000007FF800000000
000000007FF000000000
000000007FF000000000
000000007FF000000000
000000007FF000000000
000000007FF000000000
000000007FF000000000
000000007FF000000000
000000007FF000000000
000000007FF000000000
000000007FF000000000
000000007FF000000000
000000007FF000000000
000000007FF000000000
000000007FF000000000
000000007FF000000000
000000007FF000000000
000000007FF000000000
000000007FF000000000
000000007FF000000000
000000007FF000000000
000000007FF000000000
000000007FF000000000
000000007FF000000000
000000007FF000000000
ENDCHAR
STARTCHAR z
ENCODING 122
SWIDTH 802 0
DWIDTH 69 0
BBX 62 63 3 0
BITMAP
7FFFFFFFFFFFFFE0
7FFFFFFFFFFFFFF0
7FFFFFFFFFFFFFF8
7FFFFFFFFFFFFFFC
7FFFFFFFFFFFFFFC
7FFFFFFFFFFFFFFC
7FFFFFFFFFFFFFFC
7FFFFFFFFFFFFFFC
7FFFFFFFFFFFFFF8
7FFFFFFFFFFFFFF8
7FFFFFFFFFFFFFF0
00000000000FFFE0
00000000001FFFC0
00000000003FFF80
00000000007FFF00
0000000000FFFE00
0000000001FFFC00
0000000003FFF800
0000000007FFF000
000000000FFFE000
000000001FFFC000
000000003FFF8000
000000007FFF0000
00000000FFFE0000
00000001FFFC0000
00000003FFF80000
00000007FFF00000
0000000FFFE00000
0000001FFFC00000
0000003FFF800000
0000007FFF000000
000000FFFE000000
000001FFFC000000
000003FFF8000000
000007FFF0000000
00000FFFE0000000
00001FFFC0000000
00003FFF80000000
00007FFF00000000
0000FFFE00000000
0001FFFC00000000
0003FFF800000000
0007FFF000000000
000FFFE000000000
001FFFC000000000
003FFF8000000000
007FFF0000000000
00FFFE0000000000
01FFFC0000000000
03FFF80000000000
07FFF00000000000
0FFFE00000000000
1FFFFFFFFFFFFFFC
3FFFFFFFFFFFFFFC
7FFFFFFFFFFFFFFC
7FFFFFFFFFFFFFFC
FFFFFFFFFFFFFFFC
FFFFFFFFFFFFFFFC
7FFFFFFFFFFFFFFC
7FFFFFFFFFFFFFFC
7FFFFFFFFFFFFFFC
3FFFFFFFFFFFFFFC
0FFFFFFFFFFFFFFC
ENDCHAR
STARTCHAR braceleft
ENCODING 123
SWIDTH 337 0
DWIDTH 29 0
BBX 18 79 5 -8
BITMAP
001FC0
007FC0
00FFC0
01FFC0
03FFC0
03FFC0
07FE00
07F800
07F800
07F000
07F000
07F000
07F000
07F000
07F000
07F000
07F000
07F000
07F000
07F000
07F000
07F000
07F000
07F000
07F000
07F000
07F000
07F000
07F000
07F000
07F000
07F000
07F000
07F000
07F000
07F000
0FE000
FFE000
FFE000
FFC000
FF8000
FFE000
FFE000
0FF000
07F000
07F000
07F000
07F000
07F000
07F000
07F000
07F000
07F000
07F000
07F000
07F000
07F000
07F000
07F000
07F000
07F000
07F000
07F000
07F000
07F000
07F000
07F000
07F000
07F000
07F000
07F000
07F800
07FE00
07FFC0
03FFC0
01FFC0
01FFC0
007FC0
001FC0
ENDCHAR
STARTCHAR bar
ENCODING 124
SWIDTH 297 0
DWIDTH 26 0
BBX 6 79 10 -8
BITMAP
FC
FC
FC
FC
FC
FC
FC
FC
FC
FC
FC
FC
FC
FC
FC
FC
FC
FC
FC
FC
FC
FC
FC
FC
FC
FC
FC
FC
FC
FC
FC
FC
FC
FC
FC
FC
FC
FC
FC
FC
FC
FC
FC
FC
FC
FC
FC
FC
FC
FC
FC
FC
FC
FC
FC
FC
FC
FC
FC
FC
FC
FC
FC
FC
FC
FC
FC
FC
FC
FC
FC
FC
FC
FC
FC
FC
FC
FC
FC
ENDCHAR
STARTCHAR braceright
ENCODING 125
SWIDTH 337 0
DWIDTH 29 0
BBX 18 79 5 -8
BITMAP
FF0000
FFC000
FFE000
FFF000
FFF800
FFF800
0FFC00
07FC00
03FC00
01FC00
01FC00
01FC00
01FC00
01FC00
01FC00
01FC00
01FC00
01FC00
01FC00
01FC00
01FC00
01FC00
01FC00
01FC00
01FC00
01FC00
01FC00
01FC00
01FC00
01FC00
01FC00
01FC00
01FC00
01FC00
01FC00
01FC00
01FE00
00FFC0
00FFC0
007FC0
007FC0
00FFC0
00FFC0
01FE00
01FC00
01FC00
01FC00
01FC00
01FC00
01FC00
01FC00
01FC00
01FC00
01FC00
01FC00
01FC00
01FC00
01FC00
01FC00
01FC00
01FC00
01FC00
01FC00
01FC00
01FC00
01FC00
01FC00
01FC00
01FC00
01FC00
03FC00
03FC00
0FFC00
FFF800
FFF800
FFF000
FFE000
FFC000
FF0000
ENDCHAR
STARTCHAR asciitilde
ENCODING 126
SWIDTH 691 0
DWIDTH 59 0
BBX 49 13 5 26
BITMAP
00FF8000000000
07FFF800000080
1FFFFE00000180
3FFFFFC0000780
7FFFFFF8001F80
FFFFFFFF007F80
FFFFFFFFFFFF80
FF807FFFFFFF80
FC0007FFFFFF80
F00001FFFFFF00
E000003FFFFC00
80000007FFF800
00000000FF8000
ENDCHAR
STARTCHAR nonbreakingspace
ENCODING 160
SWIDTH 294 0
DWIDTH 25 0
BBX 1 1 0 0
BITMAP
00
ENDCHAR
STARTCHAR exclamdown
ENCODING 161
SWIDTH 298 0
DWIDTH 26 0
BBX 12 63 7 0
BITMAP
1F00
3FC0
7FE0
7FE0
FFF0
FFF0
FFF0
FFF0
7FE0
7FE0
3FC0
1F00
0000
0000
0000
0000
0000
0000
0000
0000
7FE0
7FE0
7FE0
7FE0
7FE0
7FE0
7FE0
7FE0
7FE0
7FE0
7FE0
7FE0
7FE0
7FE0
7FE0
7FE0
7FE0
7FE0
7FE0
7FE0
7FE0
7FE0
7FE0
7FE0
7FE0
7FE0
7FE0
7FE0
7FE0
7FE0
7FE0
7FE0
7FE0
7FE0
7FE0
7FE0
7FE0
7FE0
7FE0
7FE0
7FE0
7FE0
7FE0
ENDCHAR
STARTCHAR cent
ENCODING 162
SWIDTH 692 0
DWIDTH 60 0
BBX 51 63 4 0
BITMAP
00000003E00000
00000003E00000
00000003E00000
00000003E00000
00000003E00000
00000003E00000
00001FFFFFFFE0
0001FFFFFFFFE0
0007FFFFFFFFE0
001FFFFFFFFFE0
007FFFFFFFFFE0
00FFFFFFFFFFE0
01FFFFFFFFFFE0
03FFFFFFFFFFE0
07FFFFFFFFFFE0
0FFFF003E00000
0FFF8003E00000
1FFE0003E00000
3FFC0003E00000
3FF80003E00000
7FF00003E00000
7FE00003E00000
7FE00003E00000
FFC00003E00000
FFC00003E00000
FF800003E00000
FF800003E00000
FF800003E00000
FF800003E00000
FF000003E00000
FF000003E00000
FF000003E00000
FF000003E00000
FF000003E00000
FF800003E00000
FF800003E00000
FF800003E00000
FF800003E00000
FFC00003E00000
7FC00003E00000
7FE00003E00000
7FE00003E00000
3FF00003E00000
3FF80003E00000
1FFC0003E00000
1FFE0003E00000
0FFF8003E00000
07FFF003E00000
07FFFFFFFFFFE0
03FFFFFFFFFFE0
01FFFFFFFFFFE0
00FFFFFFFFFFE0
003FFFFFFFFFE0
001FFFFFFFFFE0
0007FFFFFFFFE0
0001FFFFFFFFE0
00001FFFFFFFE0
00000003E00000
00000003E00000
00000003E00000
00000003E00000
00000003E00000
00000003E00000
ENDCHAR
STARTCHAR sterling
ENCODING 163
SWIDTH 709 0
DWIDTH 61 0
BBX 56 63 2 0
BITMAP
000003FFFFFC00
00001FFFFFFC00
00007FFFFFFC00
0001FFFFFFFC00
0003FFFFFFFC00
0007FFFFFFFC00
000FFFFFFFFC00
001FFFFFFFFC00
001FFFFFFFFC00
003FFFFFFFFC00
003FFFFFFFFC00
007FFF80000000
007FFC00000000
007FF800000000
00FFF000000000
00FFE000000000
00FFE000000000
00FFE000000000
00FFE000000000
00FFC000000000
00FFC000000000
00FFC000000000
00FFC000000000
00FFC000000000
00FFC000000000
00FFC000000000
00FFC000000000
0FFFFFFFF00000
0FFFFFFFF00000
0FFFFFFFF00000
0FFFFFFFF00000
0FFFFFFFF00000
0FFFFFFFF00000
0FFFFFFFF00000
0FFFFFFFF00000
00FFC000000000
00FFC000000000
00FFC000000000
00FFC000000000
00FFC000000000
00FFC000000000
00FFC000000000
00FFC000000000
00FFC000000000
00FFC000000000
00FFC000000000
00FFC000000000
00FFC000000000
00FFC000000000
00FFC000000000
00FFC000000000
00FFC000000000
FFFFFFFFFFFFFF
FFFFFFFFFFFFFF
FFFFFFFFFFFFFF
FFFFFFFFFFFFFF
FFFFFFFFFFFFFF
FFFFFFFFFFFFFF
FFFFFFFFFFFFFF
FFFFFFFFFFFFFF
FFFFFFFFFFFFFF
FFFFFFFFFFFFFF
FFFFFFFFFFFFFF
ENDCHAR
STARTCHAR yen
ENCODING 165
SWIDTH 787 0
DWIDTH 68 0
BBX 63 63 2 0
BITMAP
FFF8000000003FFE
7FFC000000003FFC
7FFC000000007FFC
3FFE00000000FFF8
1FFF00000000FFF8
1FFF00000001FFF0
0FFF80000001FFE0
07FF80000003FFE0
07FFC0000007FFC0
03FFE0000007FF80
01FFE000000FFF80
01FFF000000FFF00
00FFF800001FFE00
007FF800003FFE00
007FFC00003FFC00
003FFE00007FF800
001FFE0000FFF800
001FFF0000FFF000
000FFF8001FFE000
0007FF8001FFE000
0007FFC003FFC000
0003FFC007FF8000
0001FFE007FF8000
0001FFF00FFF0000
0000FFF01FFE0000
00007FF81FFE0000
00007FFC3FFC0000
00003FFC3FFC0000
00001FFE7FF80000
00001FFEFFF00000
00000FFFFFF00000
000007FFFFE00000
000007FFFFC00000
000003FFFFC00000
007FFFFFFFFFFE00
007FFFFFFFFFFE00
007FFFFFFFFFFE00
007FFFFFFFFFFE00
007FFFFFFFFFFE00
007FFFFFFFFFFE00
007FFFFFFFFFFE00
0000001FF8000000
0000001FF8000000
0000001FF8000000
0000001FF8000000
0000001FF8000000
0000001FF8000000
0000001FF8000000
0000001FF8000000
007FFFFFFFFFFE00
007FFFFFFFFFFE00
007FFFFFFFFFFE00
007FFFFFFFFFFE00
007FFFFFFFFFFE00
007FFFFFFFFFFE00
007FFFFFFFFFFE00
0000001FF8000000
0000001FF8000000
0000001FF8000000
0000001FF8000000
0000001FF8000000
0000001FF8000000
0000001FF8000000
ENDCHAR
STARTCHAR brokenbar
ENCODING 166
SWIDTH 297 0
DWIDTH 26 0
BBX 6 79 10 -8
BITMAP
FC
FC
FC
FC
FC
FC
FC
FC
FC
FC
FC
FC
FC
FC
FC
FC
FC
FC
FC
FC
FC
FC
FC
FC
FC
FC
FC
FC
FC
FC
FC
FC
FC
FC
FC
00
00
00
00
00
00
00
00
00
00
FC
FC
FC
FC
FC
FC
FC
FC
FC
FC
FC
FC
FC
FC
FC
FC
FC
FC
FC
FC
FC
FC
FC
FC
FC
FC
FC
FC
FC
FC
FC
FC
FC
FC
ENDCHAR
STARTCHAR section
ENCODING 167
SWIDTH 773 0
DWIDTH 66 0
BBX 57 81 4 -18
BITMAP
0007FFFFFFFFE000
003FFFFFFFFFE000
00FFFFFFFFFFE000
03FFFFFFFFFFE000
07FFFFFFFFFFE000
0FFFFFFFFFFFE000
1FFFFFFFFFFFE000
1FFFFFFFFFFFE000
3FFFFFFFFFFFE000
3FFFFFFFFFFFE000
7FFFFFFFFFFFE000
7FFF000000000000
7FFC000000000000
FFF0000000000000
FFF0000000000000
FFE0000000000000
FFE0000000000000
FFE0000000000000
FFE0000000000000
FFE0000000000000
7FE0000000000000
7FE0000000000000
7FE0000000000000
7FF0000000000000
3FF8000000000000
3FFE000000000000
1FFFFFFFFFF00000
0FFFFFFFFFFF0000
0FFFFFFFFFFF8000
07FFFFFFFFFFE000
01FFFFFFFFFFF000
00FFFFFFFFFFF000
01FFFFFFFFFFF800
03FFFFFFFFFFF800
07FF8000007FFC00
07FE0000001FFC00
0FFC0000000FFC00
0FF80000000FFC00
0FF800000007FC00
1FF800000007FC00
1FF800000007FC00
1FF800000007FC00
1FF800000007FC00
1FF80000000FFC00
1FFC0000000FF800
0FFE0000001FF800
0FFF8000007FF000
0FFFFFFFFFFFF000
07FFFFFFFFFFE000
07FFFFFFFFFFC000
03FFFFFFFFFFE000
01FFFFFFFFFFF000
00FFFFFFFFFFF800
003FFFFFFFFFFC00
0007FFFFFFFFFE00
00000000001FFE00
00000000000FFF00
000000000007FF00
000000000003FF80
000000000001FF80
000000000001FF80
000000000001FF80
000000000001FF80
000000000001FF80
000000000001FF80
000000000003FF80
000000000003FF80
000000000007FF80
00000000000FFF80
00000000007FFF80
01FFFFFFFFFFFF00
01FFFFFFFFFFFF00
01FFFFFFFFFFFE00
01FFFFFFFFFFFE00
01FFFFFFFFFFFC00
01FFFFFFFFFFF800
01FFFFFFFFFFF000
01FFFFFFFFFFE000
01FFFFFFFFFFC000
01FFFFFFFFFF0000
01FFFFFFFFF00000
ENDCHAR
STARTCHAR dieresis
ENCODING 168
SWIDTH 393 0
DWIDTH 34 0
BBX 24 8 5 70
BITMAP
3C003C
FE00FE
FF00FF
FF01FF
FF01FF
FF00FF
FF00FE
3C003C
ENDCHAR
STARTCHAR copyright
ENCODING 169
SWIDTH 829 0
DWIDTH 71 0
BBX 64 65 4 -2
BITMAP
0000003FF8000000
000003FFFF800000
00001FFFFFF00000
00007FC003FC0000
0001FC00007F0000
0003F000000FC000
000FC0000003E000
001F00000001F000
003E000000007800
0078000000003C00
00F0000000001E00
01E0000000000F00
03C0000000000780
03800000000003C0
07800000000001C0
0F000000000000E0
0E000000000000F0
1E00001FFFC00070
1C0000FFFFC00078
3C0003FFFFC00038
380007FFFFC00038
78001FF00000001C
70001F800000001C
70003F000000001C
70007E000000000E
E0007C000000000E
E000F8000000000E
E000F8000000000E
E000F80000000006
E000F00000000007
E001F00000000007
E001F00000000007
E001F00000000007
E000F00000000007
E000F00000000007
E000F00000000007
E000F80000000006
E00078000000000E
E0007C000000000E
E0007E000000000E
70003F000000000E
70001F800000001C
70000FF00000001C
380007FFFFC0001C
380003FFFFC00038
3C0000FFFFC00038
1C00001FFFC00078
1E00000000000070
0E000000000000E0
0F000000000000E0
07800000000001C0
03800000000003C0
03C0000000000780
01E0000000000F00
00F0000000001E00
0078000000003C00
003E000000007800
001F00000001F000
0007C0000003E000
0003F000000F8000
0000FE00007F0000
00007FC007FC0000
00001FFFFFF00000
000003FFFF800000
0000001FF8000000
ENDCHAR
STARTCHAR ordfeminine
ENCODING 170
SWIDTH 604 0
DWIDTH 52 0
BBX 46 36 3 26
BITMAP
000002000000
000007800000
00000FC00000
00001FC00000
00001FE00000
00003FF00000
00003FF00000
00007FF80000
0000FFF80000
0000FDFC0000
0001FCFE0000
0001F8FE0000
0003F87F0000
0003F07F0000
0007F03F8000
000FE01FC000
000FC01FC000
001FC00FE000
001F800FE000
003F8007F000
007F0007F800
007E0003F800
00FE1FFFFC00
00FC1FFFFC00
01FC3FFFFE00
03F83FFFFE00
03F87FFFFF00
07F000003F80
07E000003F80
0FE000001FC0
1FC000001FC0
1FC000000FE0
3F8000000FF0
3F80000007F0
7F00000003F8
FE00000003FC
ENDCHAR
STARTCHAR guillemotleft
ENCODING 171
SWIDTH 629 0
DWIDTH 54 0
BBX 47 32 4 16
BITMAP
000001000006
00000700001E
00001F00003E
00003F0000FE
0000FF0003FE
0003FE0007FC
0007FC001FF0
001FF0003FC0
007FC000FF80
00FF0003FE00
03FE0007F800
0FF8001FF000
1FE0007FC000
7FC000FF0000
FF0003FC0000
FC0003F80000
FC0003F80000
FF0001FC0000
3FC000FF0000
1FE0003FC000
07F8000FF000
01FE0007F800
00FF8001FE00
003FC0007F80
000FF0003FE0
0007FC000FF0
0001FE0003FC
00007F0001FE
00003F00007E
00000F00003E
00000300000E
000001000002
ENDCHAR
STARTCHAR registered
ENCODING 174
SWIDTH 585 0
DWIDTH 50 0
BBX 40 40 5 23
BITMAP
0000FF8000
0007FFF000
001FFFFC00
007F00FE00
00F8001F80
01E00007C0
03C00003E0
07800001F0
0F000000F0
1E00000078
1C0000003C
3C1FFFC03C
381FFFF01C
781FFFF81E
701C00780E
701C00380E
701C00380F
701C00380F
F01C003807
E01C007807
E01C3FF007
E01C3FF007
701C3FC007
701C01E00F
701C00F00E
701C00780E
781C003C1E
380000021C
3C0000003C
1C0000003C
1E00000078
0F000000F0
07800001F0
03C00003E0
03E00007C0
00F8001F80
007F00FE00
003FFFFC00
0007FFF000
0000FF8000
ENDCHAR
STARTCHAR macron
ENCODING 175
SWIDTH 362 0
DWIDTH 31 0
BBX 22 5 5 70
BITMAP
FFFFFC
FFFFFC
FFFFFC
FFFFFC
FFFFFC
ENDCHAR
STARTCHAR degree
ENCODING 176
SWIDTH 361 0
DWIDTH 31 0
BBX 23 24 4 39
BITMAP
01FF00
07FFC0
1FFFF0
3FFFF8
7FFFFC
7F01FC
FC00FE
F8007E
F8003E
F8003E
F0003E
F0001E
F0001E
F0003E
F8003E
F8003E
F8007E
FC00FE
7F01FC
7FFFFC
3FFFF8
1FFFF0
0FFFC0
01FF00
ENDCHAR
STARTCHAR plusminus
ENCODING 177
SWIDTH 690 0
DWIDTH 59 0
BBX 49 62 5 -5
BITMAP
000007F0000000
000007F0000000
000007F0000000
000007F0000000
000007F0000000
000007F0000000
000007F0000000
000007F0000000
000007F0000000
000007F0000000
000007F0000000
000007F0000000
000007F0000000
000007F0000000
000007F0000000
000007F0000000
000007F0000000
000007F0000000
000007F0000000
000007F0000000
000007F0000000
FFFFFFFFFFFF80
FFFFFFFFFFFF80
FFFFFFFFFFFF80
FFFFFFFFFFFF80
FFFFFFFFFFFF80
FFFFFFFFFFFF80
FFFFFFFFFFFF80
000007F0000000
000007F0000000
000007F0000000
000007F0000000
000007F0000000
000007F0000000
000007F0000000
000007F0000000
000007F0000000
000007F0000000
000007F0000000
000007F0000000
000007F0000000
000007F0000000
000007F0000000
000007F0000000
000007F0000000
000007F0000000
000007F0000000
000007F0000000
000007F0000000
00000000000000
00000000000000
00000000000000
00000000000000
00000000000000
00000000000000
FFFFFFFFFFFF80
FFFFFFFFFFFF80
FFFFFFFFFFFF80
FFFFFFFFFFFF80
FFFFFFFFFFFF80
FFFFFFFFFFFF80
FFFFFFFFFFFF80
ENDCHAR
STARTCHAR twosuperior
ENCODING 178
SWIDTH 442 0
DWIDTH 38 0
BBX 30 31 4 32
BITMAP
FFFFFF80
FFFFFFE0
FFFFFFF0
FFFFFFF8
FFFFFFF8
000001FC
000000FC
0000007C
0000007C
0000007C
0000007C
000000FC
000001FC
03FFFFF8
1FFFFFF8
3FFFFFF0
7FFFFFE0
7FFFFF00
FE000000
FC000000
F8000000
F8000000
F8000000
F8000000
F8000000
F8000000
FFFFFFFC
FFFFFFFC
FFFFFFFC
FFFFFFFC
FFFFFFFC
ENDCHAR
STARTCHAR threesuperior
ENCODING 179
SWIDTH 443 0
DWIDTH 38 0
BBX 32 31 3 32
BITMAP
FFFFFF80
FFFFFFF0
FFFFFFF8
FFFFFFFC
FFFFFFFC
000001FE
0000007E
0000007E
0000003E
0000003E
0000007E
0000007E
000000FC
00FFFFF8
00FFFFF0
00FFFFF0
00FFFFFC
00FFFFFE
000000FE
0000007E
0000003F
0000003F
0000003F
0000003F
0000007E
000001FE
FFFFFFFE
FFFFFFFC
FFFFFFF8
FFFFFFF0
FFFFFF80
ENDCHAR
STARTCHAR acute
ENCODING 180
SWIDTH 362 0
DWIDTH 31 0
BBX 22 12 5 67
BITMAP
000004
00003C
0001FC
000FFC
00FFFC
07FFFC
3FFFFC
FFFFF8
FFFF00
FFF000
FE0000
C00000
ENDCHAR
STARTCHAR paragraph
ENCODING 182
SWIDTH 629 0
DWIDTH 54 0
BBX 45 72 4 -9
BITMAP
003FFFFFFFF8
01FFFFFFFFF8
07FFFFFFFFF8
0FFFFFFFFFF8
1FFFFFFFFFF8
3FFFFFFFFFF8
3FFFFFFFFFF8
7FFFFFE003F8
7FFFFFE003F8
FFFFFFE003F8
FFFFFFE003F8
FFFFFFE003F8
FFFFFFE003F8
FFFFFFE003F8
FFFFFFE003F8
FFFFFFE003F8
FFFFFFE003F8
FFFFFFE003F8
FFFFFFE003F8
7FFFFFE003F8
7FFFFFE003F8
7FFFFFE003F8
3FFFFFE003F8
1FFFFFE003F8
1FFFFFE003F8
0FFFFFE003F8
03FFFFE003F8
01FFFFE003F8
001FFFE003F8
00000FE003F8
00000FE003F8
00000FE003F8
00000FE003F8
00000FE003F8
00000FE003F8
00000FE003F8
00000FE003F8
00000FE003F8
00000FE003F8
00000FE003F8
00000FE003F8
00000FE003F8
00000FE003F8
00000FE003F8
00000FE003F8
00000FE003F8
00000FE003F8
00000FE003F8
00000FE003F8
00000FE003F8
00000FE003F8
00000FE003F8
00000FE003F8
00000FE003F8
00000FE003F8
00000FE003F8
00000FE003F8
00000FE003F8
00000FE003F8
00000FE003F8
00000FE003F8
00000FE003F8
00000FE003F8
00000FE003F8
00000FE003F8
00000FE003F8
00000FE003F8
00000FE003F8
00000FE003F8
00000FE003F8
00000FE003F8
00000FE003F8
ENDCHAR
STARTCHAR periodcentered
ENCODING 183
SWIDTH 262 0
DWIDTH 23 0
BBX 12 12 5 25
BITMAP
0F80
3FC0
7FE0
7FF0
7FF0
FFF0
FFF0
7FF0
7FF0
7FE0
3FC0
0F80
ENDCHAR
STARTCHAR cedilla
ENCODING 184
SWIDTH 219 0
DWIDTH 19 0
BBX 11 13 4 -17
BITMAP
FFE0
FFE0
7FC0
7FC0
3F80
3F80
3F00
1F00
1E00
0E00
0E00
0400
0400
ENDCHAR
STARTCHAR onesuperior
ENCODING 185
SWIDTH 222 0
DWIDTH 19 0
BBX 13 31 2 32
BITMAP
FE00
FF80
FFC0
FFE0
FFF0
03F0
01F8
01F8
00F8
00F8
00F8
00F8
00F8
00F8
00F8
00F8
00F8
00F8
00F8
00F8
00F8
00F8
00F8
00F8
00F8
00F8
00F8
00F8
00F8
00F8
00F8
ENDCHAR
STARTCHAR ordmasculine
ENCODING 186
SWIDTH 592 0
DWIDTH 51 0
BBX 41 35 5 26
BITMAP
000FFFF80000
007FFFFF0000
01FFFFFFC000
03FFFFFFE000
0FFFFFFFF000
0FFFFFFFF800
1FF8000FFC00
3FE00003FE00
7F800000FE00
7F0000007F00
7F0000007F00
FE0000003F80
FE0000001F80
FC0000001F80
FC0000001F80
FC0000001F80
FC0000001F80
FC0000001F80
FC0000001F80
FC0000001F80
FC0000001F80
FC0000001F80
FC0000001F80
7E0000003F00
7F0000007F00
7F0000007F00
3F800000FE00
3FE00003FE00
1FF8000FFC00
0FFFFFFFF800
07FFFFFFF000
03FFFFFFE000
01FFFFFFC000
007FFFFF0000
000FFFF80000
ENDCHAR
STARTCHAR guillemotright
ENCODING 187
SWIDTH 629 0
DWIDTH 54 0
BBX 47 32 4 16
BITMAP
800002000000
E00003800000
F00003E00000
FC0003F00000
FF0003FC0000
FF8001FF0000
3FE000FF8000
0FF8003FE000
07FC000FF800
01FF0003FC00
007FC001FF00
001FE0007FC0
000FF8001FE0
0003FE0007F8
0000FF0003FC
00003F0000FE
00007F0000FC
0000FE0003FC
0003FC000FF0
000FF0001FE0
001FE0007F80
007F8001FE00
01FE0003FC00
07FC000FF000
0FF0003FC000
3FC000FF8000
FF8001FE0000
FE0003F80000
F80003F00000
F00003C00000
C00003800000
800002000000
ENDCHAR
STARTCHAR onequarter
ENCODING 188
SWIDTH 972 0
DWIDTH 84 0
BBX 76 73 4 -6
BITMAP
00000000000000FE0000
00000000000001FE0000
00000000000001FC0000
00000000000003F80000
01F80000000007F00000
01FF000000000FF00000
01FF800000001FE00000
01FFC00000001FC00000
01FFC00000003F800000
000FE00000007F000000
0007E0000000FF000000
0003E0000000FE000000
0003E0000001FC000000
0003F0000003F8000000
0003F0000007F8000000
0003F000000FF0000000
0003F000000FE0000000
0003F000001FC0000000
0003F000003F80000000
0003F000007F80000000
0003F000007F00000000
0003F00000FE00000000
0003F00001FC00000000
0003F00003FC00000000
0003F00007F800000000
0003F00007F000000000
0003F0000FE000000000
0003F0001FC000000000
0003F0003FC000000000
0003F0007F8000000000
0003F0007F0000000000
0003F000FE0000000000
0003F001FE0000000000
0003F003FC0000000000
0003F003F80000000000
00000007F00000000000
0000000FE00000000000
0000001FE01F00003E00
0000003FC01F00003E00
0000003F801F00003E00
0000007F001F00003E00
000000FF001F00003E00
000001FE001F00003E00
000001FC001F00003E00
000003F8001F00003E00
000007F0001F00003E00
00000FF0001F00003E00
00001FE0001F00003E00
00001FC0001F00003E00
00003F80001F00003E00
00007F80001F00003E00
0000FF00001F00003E00
0000FE00001F80003E00
0001FC00001FC0003E00
0003F800000FFFFFFFF0
0007F800000FFFFFFFF0
000FF0000007FFFFFFF0
000FE0000001FFFFFFF0
001FC00000007FFFFFF0
003FC000000000003E00
007F8000000000003E00
007F0000000000003E00
00FE0000000000003E00
01FC0000000000003E00
03FC0000000000003E00
07F80000000000003E00
07F00000000000003E00
0FE00000000000003E00
1FE00000000000000000
3FC00000000000000000
3F800000000000000000
7F000000000000000000
FE000000000000000000
ENDCHAR
STARTCHAR onehalf
ENCODING 189
SWIDTH 948 0
DWIDTH 82 0
BBX 74 73 4 -6
BITMAP
00000000000000FE0000
00000000000001FE0000
00000000000001FC0000
00000000000003F80000
01F80000000007F00000
01FF000000000FF00000
01FF800000001FE00000
01FFC00000001FC00000
01FFC00000003F800000
000FE00000007F000000
0007E0000000FF000000
0003E0000000FE000000
0003E0000001FC000000
0003F0000003F8000000
0003F0000007F8000000
0003F000000FF0000000
0003F000000FE0000000
0003F000001FC0000000
0003F000003F80000000
0003F000007F80000000
0003F000007F00000000
0003F00000FE00000000
0003F00001FC00000000
0003F00003FC00000000
0003F00007F800000000
0003F00007F000000000
0003F0000FE000000000
0003F0001FC000000000
0003F0003FC000000000
0003F0007F8000000000
0003F0007F0000000000
0003F000FE0000000000
0003F001FE0000000000
0003F003FC0000000000
0003F003F80000000000
00000007F00000000000
0000000FE00000000000
0000001FE00FFFFFF000
0000003FC00FFFFFFC00
0000003F800FFFFFFE00
0000007F000FFFFFFF00
000000FF000FFFFFFF80
000001FE000000003F80
000001FC000000000FC0
000003F8000000000FC0
000007F0000000000FC0
00000FF0000000000FC0
00001FE0000000000FC0
00001FC0000000000FC0
00003F80000000003F80
00007F8000007FFFFF80
0000FF000001FFFFFF00
0000FE000003FFFFFE00
0001FC000007FFFFFC00
0003F800000FFFFFF000
0007F800000FC0000000
000FF000000F80000000
000FE000001F80000000
001FC000001F80000000
003FC000001F80000000
007F8000001F80000000
007F0000001F80000000
00FE0000001F80000000
01FC0000001FFFFFFF80
03FC0000001FFFFFFF80
07F80000001FFFFFFF80
07F00000001FFFFFFF80
0FE00000001FFFFFFF80
1FE00000000000000000
3FC00000000000000000
3F800000000000000000
7F000000000000000000
FE000000000000000000
ENDCHAR
STARTCHAR threequarters
ENCODING 190
SWIDTH 1029 0
DWIDTH 89 0
BBX 81 73 4 -6
BITMAP
0000000000000007F00000
000000000000000FF00000
000000000000001FE00000
000000000000001FC00000
FFFFFF800000003F800000
FFFFFFE00000007F000000
FFFFFFF0000000FF000000
FFFFFFF8000000FE000000
FFFFFFFC000001FC000000
000001FC000003F8000000
000000FC000007F8000000
0000007C00000FF0000000
0000007C00000FE0000000
0000007C00001FC0000000
0000007C00003F80000000
000000FC00007F80000000
000001F800007F00000000
01FFFFF00000FE00000000
01FFFFE00001FC00000000
01FFFFF00003FC00000000
01FFFFF80007F800000000
01FFFFFC0007F000000000
000001FC000FE000000000
0000007E001FC000000000
0000007E003FC000000000
0000007E003F8000000000
0000007E007F0000000000
0000007E00FE0000000000
000000FE01FE0000000000
000001FC03FC0000000000
FFFFFFFC03F80000000000
FFFFFFF807F00000000000
FFFFFFF00FE00000000000
FFFFFFE01FE00000000000
FFFFFF801FC00000000000
000000003F800000000000
000000007F000000000000
00000000FF00F80001F000
00000001FE00F80001F000
00000001FC00F80001F000
00000003F800F80001F000
00000007F000F80001F000
0000000FF000F80001F000
0000001FE000F80001F000
0000001FC000F80001F000
0000003F8000F80001F000
0000007F8000F80001F000
000000FF0000F80001F000
000000FE0000F80001F000
000001FC0000F80001F000
000003F80000F80001F000
000007F80000F80001F000
00000FF00000FC0001F000
00000FE00000FE0001F000
00001FC000007FFFFFFF80
00003FC000007FFFFFFF80
00007F8000003FFFFFFF80
00007F0000001FFFFFFF80
0000FE00000003FFFFFF80
0001FE000000000001F000
0003FC000000000001F000
0007F8000000000001F000
0007F0000000000001F000
000FE0000000000001F000
001FE0000000000001F000
003FC0000000000001F000
003F80000000000001F000
007F00000000000001F000
00FF000000000000000000
01FE000000000000000000
03FC000000000000000000
03F8000000000000000000
07F0000000000000000000
ENDCHAR
STARTCHAR questiondown
ENCODING 191
SWIDTH 776 0
DWIDTH 67 0
BBX 61 63 2 0
BITMAP
000000000001F000
000000000003FC00
000000000007FC00
00000000000FFE00
00000000000FFE00
00000000000FFE00
00000000000FFE00
00000000000FFE00
00000000000FFE00
000000000007FC00
000000000003FC00
000000000001F000
0000000000000000
0000000000000000
0000000000000000
0000000000000000
0000000000000000
0000000000000000
0000000000000000
0000000000000000
0000000000000000
000000000007FE00
000000000007FE00
000000000007FE00
000000000007FE00
00000000000FFE00
00000000000FFE00
00000000001FFE00
0003FFFFFFFFFC00
001FFFFFFFFFFC00
007FFFFFFFFFFC00
01FFFFFFFFFFF800
03FFFFFFFFFFF000
07FFFFFFFFFFF000
0FFFFFFFFFFFC000
1FFFFFFFFFFF8000
1FFFFFFFFFFC0000
3FFF000000000000
3FFC000000000000
7FF8000000000000
7FF0000000000000
7FF0000000000000
7FF0000000000000
FFF0000000000000
FFF0000000000000
FFF0000000000000
FFF0000000000000
FFF0000000000000
7FF8000000000000
7FF8000000000000
7FFC000000000000
7FFF000000000000
3FFFFFFFFFFFFFF8
3FFFFFFFFFFFFFF8
1FFFFFFFFFFFFFF8
1FFFFFFFFFFFFFF8
0FFFFFFFFFFFFFF8
07FFFFFFFFFFFFF8
03FFFFFFFFFFFFF8
01FFFFFFFFFFFFF8
007FFFFFFFFFFFF8
001FFFFFFFFFFFF8
0003FFFFFFFFFFF8
ENDCHAR
STARTCHAR Agrave
ENCODING 192
SWIDTH 989 0
DWIDTH 85 0
BBX 83 79 1 0
BITMAP
0000001000000000000000
0000000E00000000000000
0000000FE0000000000000
0000000FFC000000000000
0000000FFF800000000000
0000000FFFF00000000000
0000000FFFFF0000000000
00000007FFFFC000000000
000000007FFFC000000000
0000000003FFC000000000
00000000003FC000000000
000000000001C000000000
0000000000000000000000
0000000000000000000000
0000000000000000000000
0000000001F00000000000
0000000003F80000000000
0000000007FC0000000000
000000000FFE0000000000
000000000FFE0000000000
000000001FFF0000000000
000000003FFF0000000000
000000003FFF8000000000
000000007FFFC000000000
000000007FFFC000000000
00000000FFFFE000000000
00000001FFFFE000000000
00000001FFFFF000000000
00000003FFFFF800000000
00000003FFFFF800000000
00000007FFFFFC00000000
0000000FFFFFFC00000000
0000000FFF3FFE00000000
0000001FFE1FFF00000000
0000001FFE1FFF00000000
0000003FFC0FFF80000000
0000007FFC0FFF80000000
0000007FF807FFC0000000
000000FFF803FFE0000000
000000FFF003FFE0000000
000001FFE001FFF0000000
000003FFE001FFF0000000
000003FFC000FFF8000000
000007FFC0007FFC000000
000007FF80007FFC000000
00000FFF00003FFE000000
00000FFF00003FFE000000
00001FFE00001FFF000000
00003FFE00000FFF800000
00003FFC00000FFF800000
00007FF8000007FFC00000
00007FF8000007FFC00000
0000FFF0000003FFE00000
0001FFF0000001FFF00000
0001FFE00FFFFFFFF00000
0003FFE01FFFFFFFF80000
0003FFC03FFFFFFFF80000
0007FF803FFFFFFFFC0000
000FFF807FFFFFFFFE0000
000FFF007FFFFFFFFE0000
001FFF00FFFFFFFFFF0000
001FFE01FFFFFFFFFF0000
003FFC01FFFFFFFFFF8000
007FFC0000000007FFC000
007FF80000000007FFC000
00FFF80000000003FFE000
00FFF00000000003FFE000
01FFE00000000001FFF000
03FFE00000000001FFF800
03FFC00000000000FFF800
07FFC000000000007FFC00
07FF8000000000007FFC00
0FFF8000000000003FFE00
1FFF0000000000003FFE00
1FFE0000000000001FFF00
3FFE0000000000000FFF80
3FFC0000000000000FFF80
7FFC00000000000007FFC0
FFF800000000000007FFE0
ENDCHAR
STARTCHAR Aacute
ENCODING 193
SWIDTH 989 0
DWIDTH 85 0
BBX 83 79 1 0
BITMAP
0000000000000100000000
0000000000000E00000000
000000000000FE00000000
000000000007FE00000000
00000000003FFE00000000
0000000001FFFE00000000
000000001FFFFE00000000
000000007FFFFC00000000
000000007FFFC000000000
000000007FF80000000000
000000007F800000000000
0000000070000000000000
0000000000000000000000
0000000000000000000000
0000000000000000000000
0000000001F00000000000
0000000003F80000000000
0000000007FC0000000000
000000000FFE0000000000
000000000FFE0000000000
000000001FFF0000000000
000000003FFF0000000000
000000003FFF8000000000
000000007FFFC000000000
000000007FFFC000000000
00000000FFFFE000000000
00000001FFFFE000000000
00000001FFFFF000000000
00000003FFFFF800000000
00000003FFFFF800000000
00000007FFFFFC00000000
0000000FFFFFFC00000000
0000000FFF3FFE00000000
0000001FFE1FFF00000000
0000001FFE1FFF00000000
0000003FFC0FFF80000000
0000007FFC0FFF80000000
0000007FF807FFC0000000
000000FFF803FFE0000000
000000FFF003FFE0000000
000001FFE001FFF0000000
000003FFE001FFF0000000
000003FFC000FFF8000000
000007FFC0007FFC000000
000007FF80007FFC000000
00000FFF00003FFE000000
00000FFF00003FFE000000
00001FFE00001FFF000000
00003FFE00000FFF800000
00003FFC00000FFF800000
00007FF8000007FFC00000
00007FF8000007FFC00000
0000FFF0000003FFE00000
0001FFF0000001FFF00000
0001FFE00FFFFFFFF00000
0003FFE01FFFFFFFF80000
0003FFC03FFFFFFFF80000
0007FF803FFFFFFFFC0000
000FFF807FFFFFFFFE0000
000FFF007FFFFFFFFE0000
001FFF00FFFFFFFFFF0000
001FFE01FFFFFFFFFF0000
003FFC01FFFFFFFFFF8000
007FFC0000000007FFC000
007FF80000000007FFC000
00FFF80000000003FFE000
00FFF00000000003FFE000
01FFE00000000001FFF000
03FFE00000000001FFF800
03FFC00000000000FFF800
07FFC000000000007FFC00
07FF8000000000007FFC00
0FFF8000000000003FFE00
1FFF0000000000003FFE00
1FFE0000000000001FFF00
3FFE0000000000000FFF80
3FFC0000000000000FFF80
7FFC00000000000007FFC0
FFF800000000000007FFE0
ENDCHAR
STARTCHAR Acircumflex
ENCODING 194
SWIDTH 989 0
DWIDTH 85 0
BBX 83 78 1 0
BITMAP
0000000007FC0000000000
0000000007FC0000000000
000000000FFE0000000000
000000001FBF0000000000
000000001F1F8000000000
000000003F1F8000000000
000000007E0FC000000000
000000007C07E000000000
00000000FC07E000000000
00000001F803F000000000
00000003F001F800000000
00000003F001F800000000
0000000000000000000000
0000000000000000000000
0000000001F00000000000
0000000003F80000000000
0000000007FC0000000000
000000000FFE0000000000
000000000FFE0000000000
000000001FFF0000000000
000000003FFF0000000000
000000003FFF8000000000
000000007FFFC000000000
000000007FFFC000000000
00000000FFFFE000000000
00000001FFFFE000000000
00000001FFFFF000000000
00000003FFFFF800000000
00000003FFFFF800000000
00000007FFFFFC00000000
0000000FFFFFFC00000000
0000000FFF3FFE00000000
0000001FFE1FFF00000000
0000001FFE1FFF00000000
0000003FFC0FFF80000000
0000007FFC0FFF80000000
0000007FF807FFC0000000
000000FFF803FFE0000000
000000FFF003FFE0000000
000001FFE001FFF0000000
000003FFE001FFF0000000
000003FFC000FFF8000000
000007FFC0007FFC000000
000007FF80007FFC000000
00000FFF00003FFE000000
00000FFF00003FFE000000
00001FFE00001FFF000000
00003FFE00000FFF800000
00003FFC00000FFF800000
00007FF8000007FFC00000
00007FF8000007FFC00000
0000FFF0000003FFE00000
0001FFF0000001FFF00000
0001FFE00FFFFFFFF00000
0003FFE01FFFFFFFF80000
0003FFC03FFFFFFFF80000
0007FF803FFFFFFFFC0000
000FFF807FFFFFFFFE0000
000FFF007FFFFFFFFE0000
001FFF00FFFFFFFFFF0000
001FFE01FFFFFFFFFF0000
003FFC01FFFFFFFFFF8000
007FFC0000000007FFC000
007FF80000000007FFC000
00FFF80000000003FFE000
00FFF00000000003FFE000
01FFE00000000001FFF000
03FFE00000000001FFF800
03FFC00000000000FFF800
07FFC000000000007FFC00
07FF8000000000007FFC00
0FFF8000000000003FFE00
1FFF0000000000003FFE00
1FFE0000000000001FFF00
3FFE0000000000000FFF80
3FFC0000000000000FFF80
7FFC00000000000007FFC0
FFF800000000000007FFE0
ENDCHAR
STARTCHAR Atilde
ENCODING 195
SWIDTH 989 0
DWIDTH 85 0
BBX 83 77 1 0
BITMAP
000000007E000800000000
00000001FF801800000000
00000003FFF07800000000
00000003FFFFF800000000
00000003FFFFF800000000
00000003C1FFF800000000
00000003007FF000000000
00000002000FC000000000
0000000000000000000000
0000000000000000000000
0000000000000000000000
0000000000000000000000
0000000000000000000000
0000000001F00000000000
0000000003F80000000000
0000000007FC0000000000
000000000FFE0000000000
000000000FFE0000000000
000000001FFF0000000000
000000003FFF0000000000
000000003FFF8000000000
000000007FFFC000000000
000000007FFFC000000000
00000000FFFFE000000000
00000001FFFFE000000000
00000001FFFFF000000000
00000003FFFFF800000000
00000003FFFFF800000000
00000007FFFFFC00000000
0000000FFFFFFC00000000
0000000FFF3FFE00000000
0000001FFE1FFF00000000
0000001FFE1FFF00000000
0000003FFC0FFF80000000
0000007FFC0FFF80000000
0000007FF807FFC0000000
000000FFF803FFE0000000
000000FFF003FFE0000000
000001FFE001FFF0000000
000003FFE001FFF0000000
000003FFC000FFF8000000
000007FFC0007FFC000000
000007FF80007FFC000000
00000FFF00003FFE000000
00000FFF00003FFE000000
00001FFE00001FFF000000
00003FFE00000FFF800000
00003FFC00000FFF800000
00007FF8000007FFC00000
00007FF8000007FFC00000
0000FFF0000003FFE00000
0001FFF0000001FFF00000
0001FFE00FFFFFFFF00000
0003FFE01FFFFFFFF80000
0003FFC03FFFFFFFF80000
0007FF803FFFFFFFFC0000
000FFF807FFFFFFFFE0000
000FFF007FFFFFFFFE0000
001FFF00FFFFFFFFFF0000
001FFE01FFFFFFFFFF0000
003FFC01FFFFFFFFFF8000
007FFC0000000007FFC000
007FF80000000007FFC000
00FFF80000000003FFE000
00FFF00000000003FFE000
01FFE00000000001FFF000
03FFE00000000001FFF800
03FFC00000000000FFF800
07FFC000000000007FFC00
07FF8000000000007FFC00
0FFF8000000000003FFE00
1FFF0000000000003FFE00
1FFE0000000000001FFF00
3FFE0000000000000FFF80
3FFC0000000000000FFF80
7FFC00000000000007FFC0
FFF800000000000007FFE0
ENDCHAR
STARTCHAR Adieresis
ENCODING 196
SWIDTH 989 0
DWIDTH 85 0
BBX 83 78 1 0
BITMAP
00000001F001F000000000
00000003F803F800000000
00000007FC07FC00000000
00000007FC07FC00000000
00000007FC07FC00000000
00000007FC07FC00000000
00000003F803F800000000
00000001F001F000000000
0000000000000000000000
0000000000000000000000
0000000000000000000000
0000000000000000000000
0000000000000000000000
0000000000000000000000
0000000001F00000000000
0000000003F80000000000
0000000007FC0000000000
000000000FFE0000000000
000000000FFE0000000000
000000001FFF0000000000
000000003FFF0000000000
000000003FFF8000000000
000000007FFFC000000000
000000007FFFC000000000
00000000FFFFE000000000
00000001FFFFE000000000
00000001FFFFF000000000
00000003FFFFF800000000
00000003FFFFF800000000
00000007FFFFFC00000000
0000000FFFFFFC00000000
0000000FFF3FFE00000000
0000001FFE1FFF00000000
0000001FFE1FFF00000000
0000003FFC0FFF80000000
0000007FFC0FFF80000000
0000007FF807FFC0000000
000000FFF803FFE0000000
000000FFF003FFE0000000
000001FFE001FFF0000000
000003FFE001FFF0000000
000003FFC000FFF8000000
000007FFC0007FFC000000
000007FF80007FFC000000
00000FFF00003FFE000000
00000FFF00003FFE000000
00001FFE00001FFF000000
00003FFE00000FFF800000
00003FFC00000FFF800000
00007FF8000007FFC00000
00007FF8000007FFC00000
0000FFF0000003FFE00000
0001FFF0000001FFF00000
0001FFE00FFFFFFFF00000
0003FFE01FFFFFFFF80000
0003FFC03FFFFFFFF80000
0007FF803FFFFFFFFC0000
000FFF807FFFFFFFFE0000
000FFF007FFFFFFFFE0000
001FFF00FFFFFFFFFF0000
001FFE01FFFFFFFFFF0000
003FFC01FFFFFFFFFF8000
007FFC0000000007FFC000
007FF80000000007FFC000
00FFF80000000003FFE000
00FFF00000000003FFE000
01FFE00000000001FFF000
03FFE00000000001FFF800
03FFC00000000000FFF800
07FFC000000000007FFC00
07FF8000000000007FFC00
0FFF8000000000003FFE00
1FFF0000000000003FFE00
1FFE0000000000001FFF00
3FFE0000000000000FFF80
3FFC0000000000000FFF80
7FFC00000000000007FFC0
FFF800000000000007FFE0
ENDCHAR
STARTCHAR Aring
ENCODING 197
SWIDTH 989 0
DWIDTH 85 0
BBX 83 84 1 0
BITMAP
000000000FFE0000000000
000000003FFF8000000000
000000007FFFC000000000
00000000F803E000000000
00000001E000F000000000
00000001C000F000000000
00000001C0007000000000
00000003C0007000000000
00000003C0007800000000
00000001C0007000000000
00000001C0007000000000
00000001E000F000000000
00000001E000F000000000
00000000F803E000000000
000000007FFFC000000000
000000003FFF8000000000
000000000FFE0000000000
0000000000000000000000
0000000000000000000000
0000000000000000000000
0000000001F00000000000
0000000003F80000000000
0000000007FC0000000000
000000000FFE0000000000
000000000FFE0000000000
000000001FFF0000000000
000000003FFF0000000000
000000003FFF8000000000
000000007FFFC000000000
000000007FFFC000000000
00000000FFFFE000000000
00000001FFFFE000000000
00000001FFFFF000000000
00000003FFFFF800000000
00000003FFFFF800000000
00000007FFFFFC00000000
0000000FFFFFFC00000000
0000000FFF3FFE00000000
0000001FFE1FFF00000000
0000001FFE1FFF00000000
0000003FFC0FFF80000000
0000007FFC0FFF80000000
0000007FF807FFC0000000
000000FFF803FFE0000000
000000FFF003FFE0000000
000001FFE001FFF0000000
000003FFE001FFF0000000
000003FFC000FFF8000000
000007FFC0007FFC000000
000007FF80007FFC000000
00000FFF00003FFE000000
00000FFF00003FFE000000
00001FFE00001FFF000000
00003FFE00000FFF800000
00003FFC00000FFF800000
00007FF8000007FFC00000
00007FF8000007FFC00000
0000FFF0000003FFE00000
0001FFF0000001FFF00000
0001FFE00FFFFFFFF00000
0003FFE01FFFFFFFF80000
0003FFC03FFFFFFFF80000
0007FF803FFFFFFFFC0000
000FFF807FFFFFFFFE0000
000FFF007FFFFFFFFE0000
001FFF00FFFFFFFFFF0000
001FFE01FFFFFFFFFF0000
003FFC01FFFFFFFFFF8000
007FFC0000000007FFC000
007FF80000000007FFC000
00FFF80000000003FFE000
00FFF00000000003FFE000
01FFE00000000001FFF000
03FFE00000000001FFF800
03FFC00000000000FFF800
07FFC000000000007FFC00
07FF8000000000007FFC00
0FFF8000000000003FFE00
1FFF0000000000003FFE00
1FFE0000000000001FFF00
3FFE0000000000000FFF80
3FFC0000000000000FFF80
7FFC00000000000007FFC0
FFF800000000000007FFE0
ENDCHAR
STARTCHAR AE
ENCODING 198
SWIDTH 1345 0
DWIDTH 116 0
BBX 111 63 1 0
BITMAP
0000000003FFFFFFFFFFFFFFFFFE
000000000FFFFFFFFFFFFFFFFFFE
000000001FFFFFFFFFFFFFFFFFFE
000000001FFFFFFFFFFFFFFFFFFE
000000003FFFFFFFFFFFFFFFFFFE
000000007FFFFFFFFFFFFFFFFFFE
000000007FFFFFFFFFFFFFFFFFFE
00000000FFFFFFFFFFFFFFFFFFFE
00000000FFFFFFFFFFFFFFFFFFFE
00000001FFFFFFFFFFFFFFFFFFFE
00000003FFFFFFFFFFFFFFFFFFFE
00000003FFC0003FF80000000000
00000007FF80003FF80000000000
00000007FF80003FF80000000000
0000000FFF00003FF80000000000
0000000FFE00003FF80000000000
0000001FFE00003FF80000000000
0000003FFC00003FF80000000000
0000003FFC00003FF80000000000
0000007FF800003FF80000000000
0000007FF800003FF80000000000
000000FFF000003FF80000000000
000000FFE000003FF80000000000
000001FFE000003FF80000000000
000003FFC000003FF80000000000
000003FFC000003FF80000000000
000007FF8000003FF807FFFFFFF0
000007FF8000003FF807FFFFFFF0
00000FFF0000003FF807FFFFFFF0
00000FFE0000003FF807FFFFFFF0
00001FFE0000003FF807FFFFFFF0
00003FFC0000003FF807FFFFFFF0
00003FFC0000003FF807FFFFFFF0
00007FF80000003FF807FFFFFFF0
00007FF80000003FF807FFFFFFF0
0000FFF00000003FF80000000000
0001FFF00000003FF80000000000
0001FFE00000003FF80000000000
0003FFC00000003FF80000000000
0003FFC01FFFFFFFF80000000000
0007FF803FFFFFFFF80000000000
0007FF803FFFFFFFF80000000000
000FFF007FFFFFFFF80000000000
001FFF007FFFFFFFF80000000000
001FFE00FFFFFFFFF80000000000
003FFC01FFFFFFFFF80000000000
003FFC01FFFFFFFFF80000000000
007FF803FFFFFFFFF80000000000
007FF8000000003FF80000000000
00FFF0000000003FF80000000000
01FFF0000000003FF80000000000
01FFE0000000003FF80000000000
03FFC0000000003FFFFFFFFFFFFE
03FFC0000000003FFFFFFFFFFFFE
07FF80000000003FFFFFFFFFFFFE
07FF80000000003FFFFFFFFFFFFE
0FFF00000000003FFFFFFFFFFFFE
1FFF00000000003FFFFFFFFFFFFE
1FFE00000000003FFFFFFFFFFFFE
3FFC00000000003FFFFFFFFFFFFE
3FFC00000000003FFFFFFFFFFFFE
7FF800000000003FFFFFFFFFFFFE
FFF800000000003FFFFFFFFFFFFE
ENDCHAR
STARTCHAR Ccedilla
ENCODING 199
SWIDTH 829 0
DWIDTH 71 0
BBX 64 80 4 -17
BITMAP
000000FFFFFFFFFF
00000FFFFFFFFFFF
00007FFFFFFFFFFF
0001FFFFFFFFFFFF
0007FFFFFFFFFFFF
000FFFFFFFFFFFFF
003FFFFFFFFFFFFF
007FFFFFFFFFFFFF
00FFFFFFFFFFFFFF
01FFFFFFFFFFFFFF
03FFFFFFFFFFFFFF
03FFFF8000000000
07FFFC0000000000
0FFFF00000000000
0FFFE00000000000
1FFF800000000000
1FFF000000000000
3FFE000000000000
3FFE000000000000
7FFC000000000000
7FF8000000000000
7FF8000000000000
7FF0000000000000
FFF0000000000000
FFE0000000000000
FFE0000000000000
FFE0000000000000
FFE0000000000000
FFE0000000000000
FFE0000000000000
FFE0000000000000
FFE0000000000000
FFE0000000000000
FFE0000000000000
FFE0000000000000
FFE0000000000000
FFE0000000000000
FFE0000000000000
FFF0000000000000
7FF0000000000000
7FF0000000000000
7FF8000000000000
7FF8000000000000
3FFC000000000000
3FFE000000000000
1FFE000000000000
1FFF000000000000
0FFF800000000000
0FFFE00000000000
07FFF00000000000
03FFFC0000000000
03FFFF8000000000
01FFFFFFFFFFFFFF
00FFFFFFFFFFFFFF
007FFFFFFFFFFFFF
003FFFFFFFFFFFFF
001FFFFFFFFFFFFF
0007FFFFFFFFFFFF
0003FFFFFFFFFFFF
0000FFFFFFFFFFFF
00003FFFFFFFFFFF
00000FFFFFFFFFFF
000000FFFFFFFFFF
0000000000000000
0000000000000000
0000000000000000
0000000000000000
0000000FFE000000
0000000FFC000000
00000007FC000000
00000007FC000000
00000003F8000000
00000003F8000000
00000003F0000000
00000001F0000000
00000001E0000000
00000000E0000000
00000000E0000000
0000000040000000
0000000040000000
ENDCHAR
STARTCHAR Egrave
ENCODING 200
SWIDTH 759 0
DWIDTH 65 0
BBX 56 79 5 0
BITMAP
00020000000000
00038000000000
0003F800000000
0003FF00000000
0003FFE0000000
0003FFFE000000
0003FFFFC00000
0001FFFFF00000
00001FFFF00000
000000FFF00000
0000000FF00000
00000000700000
00000000000000
00000000000000
00000000000000
00000000000000
FFFFFFFFFFFFFF
FFFFFFFFFFFFFF
FFFFFFFFFFFFFF
FFFFFFFFFFFFFF
FFFFFFFFFFFFFF
FFFFFFFFFFFFFF
FFFFFFFFFFFFFF
FFFFFFFFFFFFFF
FFFFFFFFFFFFFF
FFFFFFFFFFFFFF
FFFFFFFFFFFFFF
FFE00000000000
FFE00000000000
FFE00000000000
FFE00000000000
FFE00000000000
FFE00000000000
FFE00000000000
FFE00000000000
FFE00000000000
FFE00000000000
FFE00000000000
FFE00000000000
FFE00000000000
FFE00000000000
FFE00000000000
FFE01FFFFFFFFC
FFE01FFFFFFFFC
FFE01FFFFFFFFC
FFE01FFFFFFFFC
FFE01FFFFFFFFC
FFE01FFFFFFFFC
FFE01FFFFFFFFC
FFE01FFFFFFFFC
FFE01FFFFFFFFC
FFE00000000000
FFE00000000000
FFE00000000000
FFE00000000000
FFE00000000000
FFE00000000000
FFE00000000000
FFE00000000000
FFE00000000000
FFE00000000000
FFE00000000000
FFE00000000000
FFE00000000000
FFE00000000000
FFE00000000000
FFE00000000000
FFE00000000000
FFFFFFFFFFFFFF
FFFFFFFFFFFFFF
FFFFFFFFFFFFFF
FFFFFFFFFFFFFF
FFFFFFFFFFFFFF
FFFFFFFFFFFFFF
FFFFFFFFFFFFFF
FFFFFFFFFFFFFF
FFFFFFFFFFFFFF
FFFFFFFFFFFFFF
FFFFFFFFFFFFFF
ENDCHAR
STARTCHAR Eacute
ENCODING 201
SWIDTH 759 0
DWIDTH 65 0
BBX 56 79 5 0
BITMAP
00000000004000
00000000038000
000000001F8000
00000001FF8000
0000000FFF8000
0000007FFF8000
000007FFFF8000
00001FFFFF8000
00001FFFF00000
00001FFE000000
00001FE0000000
00001C00000000
00000000000000
00000000000000
00000000000000
00000000000000
FFFFFFFFFFFFFF
FFFFFFFFFFFFFF
FFFFFFFFFFFFFF
FFFFFFFFFFFFFF
FFFFFFFFFFFFFF
FFFFFFFFFFFFFF
FFFFFFFFFFFFFF
FFFFFFFFFFFFFF
FFFFFFFFFFFFFF
FFFFFFFFFFFFFF
FFFFFFFFFFFFFF
FFE00000000000
FFE00000000000
FFE00000000000
FFE00000000000
FFE00000000000
FFE00000000000
FFE00000000000
FFE00000000000
FFE00000000000
FFE00000000000
FFE00000000000
FFE00000000000
FFE00000000000
FFE00000000000
FFE00000000000
FFE01FFFFFFFFC
FFE01FFFFFFFFC
FFE01FFFFFFFFC
FFE01FFFFFFFFC
FFE01FFFFFFFFC
FFE01FFFFFFFFC
FFE01FFFFFFFFC
FFE01FFFFFFFFC
FFE01FFFFFFFFC
FFE00000000000
FFE00000000000
FFE00000000000
FFE00000000000
FFE00000000000
FFE00000000000
FFE00000000000
FFE00000000000
FFE00000000000
FFE00000000000
FFE00000000000
FFE00000000000
FFE00000000000
FFE00000000000
FFE00000000000
FFE00000000000
FFE00000000000
FFFFFFFFFFFFFF
FFFFFFFFFFFFFF
FFFFFFFFFFFFFF
FFFFFFFFFFFFFF
FFFFFFFFFFFFFF
FFFFFFFFFFFFFF
FFFFFFFFFFFFFF
FFFFFFFFFFFFFF
FFFFFFFFFFFFFF
FFFFFFFFFFFFFF
FFFFFFFFFFFFFF
ENDCHAR
STARTCHAR Ecircumflex
ENCODING 202
SWIDTH 759 0
DWIDTH 65 0
BBX 56 78 5 0
BITMAP
000001FF000000
000001FF800000
000003FF800000
000007EFC00000
000007C7E00000
00000FC3E00000
00001F83F00000
00001F01F80000
00003F01F80000
00007E00FC0000
00007C007E0000
0000FC007E0000
00000000000000
00000000000000
00000000000000
FFFFFFFFFFFFFF
FFFFFFFFFFFFFF
FFFFFFFFFFFFFF
FFFFFFFFFFFFFF
FFFFFFFFFFFFFF
FFFFFFFFFFFFFF
FFFFFFFFFFFFFF
FFFFFFFFFFFFFF
FFFFFFFFFFFFFF
FFFFFFFFFFFFFF
FFFFFFFFFFFFFF
FFE00000000000
FFE00000000000
FFE00000000000
FFE00000000000
FFE00000000000
FFE00000000000
FFE00000000000
FFE00000000000
FFE00000000000
FFE00000000000
FFE00000000000
FFE00000000000
FFE00000000000
FFE00000000000
FFE00000000000
FFE01FFFFFFFFC
FFE01FFFFFFFFC
FFE01FFFFFFFFC
FFE01FFFFFFFFC
FFE01FFFFFFFFC
FFE01FFFFFFFFC
FFE01FFFFFFFFC
FFE01FFFFFFFFC
FFE01FFFFFFFFC
FFE00000000000
FFE00000000000
FFE00000000000
FFE00000000000
FFE00000000000
FFE00000000000
FFE00000000000
FFE00000000000
FFE00000000000
FFE00000000000
FFE00000000000
FFE00000000000
FFE00000000000
FFE00000000000
FFE00000000000
FFE00000000000
FFE00000000000
FFFFFFFFFFFFFF
FFFFFFFFFFFFFF
FFFFFFFFFFFFFF
FFFFFFFFFFFFFF
FFFFFFFFFFFFFF
FFFFFFFFFFFFFF
FFFFFFFFFFFFFF
FFFFFFFFFFFFFF
FFFFFFFFFFFFFF
FFFFFFFFFFFFFF
FFFFFFFFFFFFFF
ENDCHAR
STARTCHAR Edieresis
ENCODING 203
SWIDTH 759 0
DWIDTH 65 0
BBX 56 78 5 0
BITMAP
00007C007C0000
0000FE00FE0000
0000FF01FF0000
0001FF01FF0000
0001FF01FF0000
0000FF01FF0000
0000FE00FE0000
00007C007C0000
00000000000000
00000000000000
00000000000000
00000000000000
00000000000000
00000000000000
00000000000000
FFFFFFFFFFFFFF
FFFFFFFFFFFFFF
FFFFFFFFFFFFFF
FFFFFFFFFFFFFF
FFFFFFFFFFFFFF
FFFFFFFFFFFFFF
FFFFFFFFFFFFFF
FFFFFFFFFFFFFF
FFFFFFFFFFFFFF
FFFFFFFFFFFFFF
FFFFFFFFFFFFFF
FFE00000000000
FFE00000000000
FFE00000000000
FFE00000000000
FFE00000000000
FFE00000000000
FFE00000000000
FFE00000000000
FFE00000000000
FFE00000000000
FFE00000000000
FFE00000000000
FFE00000000000
FFE00000000000
FFE00000000000
FFE01FFFFFFFFC
FFE01FFFFFFFFC
FFE01FFFFFFFFC
FFE01FFFFFFFFC
FFE01FFFFFFFFC
FFE01FFFFFFFFC
FFE01FFFFFFFFC
FFE01FFFFFFFFC
FFE01FFFFFFFFC
FFE00000000000
FFE00000000000
FFE00000000000
FFE00000000000
FFE00000000000
FFE00000000000
FFE00000000000
FFE00000000000
FFE00000000000
FFE00000000000
FFE00000000000
FFE00000000000
FFE00000000000
FFE00000000000
FFE00000000000
FFE00000000000
FFE00000000000
FFFFFFFFFFFFFF
FFFFFFFFFFFFFF
FFFFFFFFFFFFFF
FFFFFFFFFFFFFF
FFFFFFFFFFFFFF
FFFFFFFFFFFFFF
FFFFFFFFFFFFFF
FFFFFFFFFFFFFF
FFFFFFFFFFFFFF
FFFFFFFFFFFFFF
FFFFFFFFFFFFFF
ENDCHAR
STARTCHAR Igrave
ENCODING 204
SWIDTH 267 0
DWIDTH 23 0
BBX 22 79 -2 0
BITMAP
800000
E00000
FE0000
FFC000
FFF800
FFFF80
FFFFF0
7FFFFC
07FFFC
003FFC
0001FC
00001C
000000
000000
000000
000000
00FFE0
00FFE0
00FFE0
00FFE0
00FFE0
00FFE0
00FFE0
00FFE0
00FFE0
00FFE0
00FFE0
00FFE0
00FFE0
00FFE0
00FFE0
00FFE0
00FFE0
00FFE0
00FFE0
00FFE0
00FFE0
00FFE0
00FFE0
00FFE0
00FFE0
00FFE0
00FFE0
00FFE0
00FFE0
00FFE0
00FFE0
00FFE0
00FFE0
00FFE0
00FFE0
00FFE0
00FFE0
00FFE0
00FFE0
00FFE0
00FFE0
00FFE0
00FFE0
00FFE0
00FFE0
00FFE0
00FFE0
00FFE0
00FFE0
00FFE0
00FFE0
00FFE0
00FFE0
00FFE0
00FFE0
00FFE0
00FFE0
00FFE0
00FFE0
00FFE0
00FFE0
00FFE0
00FFE0
ENDCHAR
STARTCHAR Iacute
ENCODING 205
SWIDTH 267 0
DWIDTH 23 0
BBX 22 79 3 0
BITMAP
000004
00001C
0000FC
000FFC
007FFC
03FFFC
3FFFFC
FFFFFC
FFFF80
FFF000
FF0000
E00000
000000
000000
000000
000000
1FFC00
1FFC00
1FFC00
1FFC00
1FFC00
1FFC00
1FFC00
1FFC00
1FFC00
1FFC00
1FFC00
1FFC00
1FFC00
1FFC00
1FFC00
1FFC00
1FFC00
1FFC00
1FFC00
1FFC00
1FFC00
1FFC00
1FFC00
1FFC00
1FFC00
1FFC00
1FFC00
1FFC00
1FFC00
1FFC00
1FFC00
1FFC00
1FFC00
1FFC00
1FFC00
1FFC00
1FFC00
1FFC00
1FFC00
1FFC00
1FFC00
1FFC00
1FFC00
1FFC00
1FFC00
1FFC00
1FFC00
1FFC00
1FFC00
1FFC00
1FFC00
1FFC00
1FFC00
1FFC00
1FFC00
1FFC00
1FFC00
1FFC00
1FFC00
1FFC00
1FFC00
1FFC00
1FFC00
ENDCHAR
STARTCHAR Icircumflex
ENCODING 206
SWIDTH 267 0
DWIDTH 23 0
BBX 23 78 0 0
BITMAP
01FF00
01FF00
03FF80
07EFC0
07C7E0
0FC7E0
1F83F0
1F01F8
3F01F8
7E00FC
FC007E
FC007E
000000
000000
000000
03FF80
03FF80
03FF80
03FF80
03FF80
03FF80
03FF80
03FF80
03FF80
03FF80
03FF80
03FF80
03FF80
03FF80
03FF80
03FF80
03FF80
03FF80
03FF80
03FF80
03FF80
03FF80
03FF80
03FF80
03FF80
03FF80
03FF80
03FF80
03FF80
03FF80
03FF80
03FF80
03FF80
03FF80
03FF80
03FF80
03FF80
03FF80
03FF80
03FF80
03FF80
03FF80
03FF80
03FF80
03FF80
03FF80
03FF80
03FF80
03FF80
03FF80
03FF80
03FF80
03FF80
03FF80
03FF80
03FF80
03FF80
03FF80
03FF80
03FF80
03FF80
03FF80
03FF80
ENDCHAR
STARTCHAR Idieresis
ENCODING 207
SWIDTH 267 0
DWIDTH 23 0
BBX 25 78 -1 0
BITMAP
3E003E00
7F007F00
FF80FF80
FF80FF80
FF80FF80
FF80FF80
7F007F00
3E003E00
00000000
00000000
00000000
00000000
00000000
00000000
00000000
01FFC000
01FFC000
01FFC000
01FFC000
01FFC000
01FFC000
01FFC000
01FFC000
01FFC000
01FFC000
01FFC000
01FFC000
01FFC000
01FFC000
01FFC000
01FFC000
01FFC000
01FFC000
01FFC000
01FFC000
01FFC000
01FFC000
01FFC000
01FFC000
01FFC000
01FFC000
01FFC000
01FFC000
01FFC000
01FFC000
01FFC000
01FFC000
01FFC000
01FFC000
01FFC000
01FFC000
01FFC000
01FFC000
01FFC000
01FFC000
01FFC000
01FFC000
01FFC000
01FFC000
01FFC000
01FFC000
01FFC000
01FFC000
01FFC000
01FFC000
01FFC000
01FFC000
01FFC000
01FFC000
01FFC000
01FFC000
01FFC000
01FFC000
01FFC000
01FFC000
01FFC000
01FFC000
01FFC000
ENDCHAR
STARTCHAR Eth
ENCODING 208
SWIDTH 877 0
DWIDTH 75 0
BBX 71 63 1 0
BITMAP
0FFFFFFFFFFE000000
0FFFFFFFFFFFE00000
0FFFFFFFFFFFF80000
0FFFFFFFFFFFFE0000
0FFFFFFFFFFFFF8000
0FFFFFFFFFFFFFE000
0FFFFFFFFFFFFFF000
0FFFFFFFFFFFFFF800
0FFFFFFFFFFFFFFC00
0FFFFFFFFFFFFFFE00
0FFFFFFFFFFFFFFF00
0FFE00000007FFFF80
0FFE00000000FFFFC0
0FFE000000003FFFC0
0FFE000000000FFFE0
0FFE0000000007FFE0
0FFE0000000003FFF0
0FFE0000000001FFF0
0FFE0000000000FFF8
0FFE00000000007FF8
0FFE00000000007FF8
0FFE00000000003FFC
0FFE00000000003FFC
0FFE00000000001FFC
0FFE00000000001FFC
0FFE00000000001FFE
FFFFFFFFFF00001FFE
FFFFFFFFFF00000FFE
FFFFFFFFFF00000FFE
FFFFFFFFFF00000FFE
FFFFFFFFFF00000FFE
FFFFFFFFFF00000FFE
FFFFFFFFFF00000FFE
FFFFFFFFFF00000FFE
FFFFFFFFFF00000FFE
0FFE00000000000FFE
0FFE00000000001FFE
0FFE00000000001FFC
0FFE00000000001FFC
0FFE00000000001FFC
0FFE00000000003FFC
0FFE00000000003FF8
0FFE00000000007FF8
0FFE00000000007FF8
0FFE0000000000FFF0
0FFE0000000001FFF0
0FFE0000000003FFE0
0FFE0000000007FFE0
0FFE000000000FFFC0
0FFE000000003FFFC0
0FFE00000000FFFF80
0FFE00000007FFFF00
0FFFFFFFFFFFFFFF00
0FFFFFFFFFFFFFFE00
0FFFFFFFFFFFFFFC00
0FFFFFFFFFFFFFF800
0FFFFFFFFFFFFFE000
0FFFFFFFFFFFFFC000
0FFFFFFFFFFFFF8000
0FFFFFFFFFFFFE0000
0FFFFFFFFFFFF80000
0FFFFFFFFFFFC00000
0FFFFFFFFFFC000000
ENDCHAR
STARTCHAR Ntilde
ENCODING 209
SWIDTH 873 0
DWIDTH 75 0
BBX 65 77 5 0
BITMAP
000000FC0010000000
000003FF0030000000
000007FFE0F0000000
000007FFFFF0000000
000007FFFFF0000000
00000783FFF0000000
00000600FFE0000000
000004001F80000000
000000000000000000
000000000000000000
000000000000000000
000000000000000000
000000000000000000
000000000000000000
1F000000000001FF80
3FC00000000001FF80
7FE00000000001FF80
7FF00000000001FF80
FFF80000000001FF80
FFFC0000000001FF80
FFFE0000000001FF80
FFFF0000000001FF80
FFFF8000000001FF80
FFFFC000000001FF80
FFFFE000000001FF80
FFFFF000000001FF80
FFFFF800000001FF80
FFFFFC00000001FF80
FFFFFE00000001FF80
FFFFFF00000001FF80
FFFFFF80000001FF80
FFFFFFC0000001FF80
FFFFFFE0000001FF80
FFEFFFF0000001FF80
FFE7FFF8000001FF80
FFE3FFFC000001FF80
FFE0FFFE000001FF80
FFE07FFF000001FF80
FFE03FFF800001FF80
FFE01FFFC00001FF80
FFE00FFFE00001FF80
FFE007FFF00001FF80
FFE003FFF80001FF80
FFE001FFFC0001FF80
FFE000FFFE0001FF80
FFE0007FFF0001FF80
FFE0003FFF8001FF80
FFE0001FFFC001FF80
FFE0000FFFE001FF80
FFE00007FFF001FF80
FFE00003FFF801FF80
FFE00001FFFC01FF80
FFE00000FFFE01FF80
FFE000007FFF01FF80
FFE000003FFF81FF80
FFE000001FFFC1FF80
FFE000000FFFE1FF80
FFE0000007FFF1FF80
FFE0000003FFF9FF80
FFE0000001FFFDFF80
FFE0000000FFFFFF80
FFE00000007FFFFF80
FFE00000003FFFFF80
FFE00000001FFFFF80
FFE00000000FFFFF80
FFE000000007FFFF80
FFE000000003FFFF80
FFE000000001FFFF80
FFE000000000FFFF80
FFE0000000007FFF80
FFE0000000003FFF80
FFE0000000001FFF80
FFE0000000000FFF80
FFE00000000007FF00
FFE00000000003FF00
FFE00000000001FE00
FFE000000000007C00
ENDCHAR
STARTCHAR Ograve
ENCODING 210
SWIDTH 968 0
DWIDTH 83 0
BBX 76 79 4 0
BITMAP
00000080000000000000
000000E0000000000000
000000FE000000000000
000000FFC00000000000
000000FFF80000000000
000000FFFF8000000000
000000FFFFF000000000
0000007FFFFC00000000
00000007FFFC00000000
000000003FFC00000000
0000000001FC00000000
00000000001C00000000
00000000000000000000
00000000000000000000
00000000000000000000
00000000000000000000
000000FFFFFFE0000000
00000FFFFFFFFE000000
00007FFFFFFFFFC00000
0001FFFFFFFFFFF00000
0007FFFFFFFFFFFC0000
000FFFFFFFFFFFFF0000
003FFFFFFFFFFFFF8000
007FFFFFFFFFFFFFC000
00FFFFFFFFFFFFFFE000
01FFFFFFFFFFFFFFF000
03FFFFFFFFFFFFFFF800
03FFFF8000003FFFFC00
07FFFC00000007FFFE00
0FFFF000000001FFFE00
0FFFE0000000007FFF00
1FFF80000000003FFF00
1FFF00000000001FFF80
3FFE00000000000FFF80
3FFE000000000007FFC0
7FFC000000000003FFC0
7FF8000000000003FFC0
7FF8000000000001FFE0
7FF0000000000001FFE0
FFF0000000000000FFE0
FFE0000000000000FFE0
FFE0000000000000FFE0
FFE0000000000000FFF0
FFE00000000000007FF0
FFE00000000000007FF0
FFE00000000000007FF0
FFE00000000000007FF0
FFE00000000000007FF0
FFE00000000000007FF0
FFE00000000000007FF0
FFE00000000000007FF0
FFE00000000000007FF0
FFE0000000000000FFE0
FFE0000000000000FFE0
FFF0000000000000FFE0
7FF0000000000001FFE0
7FF0000000000001FFE0
7FF8000000000001FFC0
7FF8000000000003FFC0
3FFC000000000007FFC0
3FFE000000000007FF80
1FFE00000000000FFF80
1FFF00000000001FFF00
0FFF80000000003FFF00
0FFFE0000000007FFE00
07FFF000000001FFFE00
03FFFC00000007FFFC00
03FFFF8000003FFFF800
01FFFFFFFFFFFFFFF000
00FFFFFFFFFFFFFFE000
007FFFFFFFFFFFFFC000
003FFFFFFFFFFFFF8000
001FFFFFFFFFFFFF0000
0007FFFFFFFFFFFE0000
0003FFFFFFFFFFF80000
0000FFFFFFFFFFF00000
00003FFFFFFFFFC00000
00000FFFFFFFFE000000
000000FFFFFFE0000000
ENDCHAR
STARTCHAR Oacute
ENCODING 211
SWIDTH 968 0
DWIDTH 83 0
BBX 76 79 4 0
BITMAP
00000000000010000000
000000000000E0000000
000000000007E0000000
00000000007FE0000000
0000000003FFE0000000
000000001FFFE0000000
00000001FFFFE0000000
00000007FFFFE0000000
00000007FFFC00000000
00000007FF8000000000
00000007F80000000000
00000007000000000000
00000000000000000000
00000000000000000000
00000000000000000000
00000000000000000000
000000FFFFFFE0000000
00000FFFFFFFFE000000
00007FFFFFFFFFC00000
0001FFFFFFFFFFF00000
0007FFFFFFFFFFFC0000
000FFFFFFFFFFFFF0000
003FFFFFFFFFFFFF8000
007FFFFFFFFFFFFFC000
00FFFFFFFFFFFFFFE000
01FFFFFFFFFFFFFFF000
03FFFFFFFFFFFFFFF800
03FFFF8000003FFFFC00
07FFFC00000007FFFE00
0FFFF000000001FFFE00
0FFFE0000000007FFF00
1FFF80000000003FFF00
1FFF00000000001FFF80
3FFE00000000000FFF80
3FFE000000000007FFC0
7FFC000000000003FFC0
7FF8000000000003FFC0
7FF8000000000001FFE0
7FF0000000000001FFE0
FFF0000000000000FFE0
FFE0000000000000FFE0
FFE0000000000000FFE0
FFE0000000000000FFF0
FFE00000000000007FF0
FFE00000000000007FF0
FFE00000000000007FF0
FFE00000000000007FF0
FFE00000000000007FF0
FFE00000000000007FF0
FFE00000000000007FF0
FFE00000000000007FF0
FFE00000000000007FF0
FFE0000000000000FFE0
FFE0000000000000FFE0
FFF0000000000000FFE0
7FF0000000000001FFE0
7FF0000000000001FFE0
7FF8000000000001FFC0
7FF8000000000003FFC0
3FFC000000000007FFC0
3FFE000000000007FF80
1FFE00000000000FFF80
1FFF00000000001FFF00
0FFF80000000003FFF00
0FFFE0000000007FFE00
07FFF000000001FFFE00
03FFFC00000007FFFC00
03FFFF8000003FFFF800
01FFFFFFFFFFFFFFF000
00FFFFFFFFFFFFFFE000
007FFFFFFFFFFFFFC000
003FFFFFFFFFFFFF8000
001FFFFFFFFFFFFF0000
0007FFFFFFFFFFFE0000
0003FFFFFFFFFFF80000
0000FFFFFFFFFFF00000
00003FFFFFFFFFC00000
00000FFFFFFFFE000000
000000FFFFFFE0000000
ENDCHAR
STARTCHAR Ocircumflex
ENCODING 212
SWIDTH 968 0
DWIDTH 83 0
BBX 76 78 4 0
BITMAP
000000007FC000000000
000000007FE000000000
00000000FFE000000000
00000001FBF000000000
00000001F1F800000000
00000003F1F800000000
00000007E0FC00000000
00000007C07E00000000
0000000FC07E00000000
0000001F803F00000000
0000001F001F80000000
0000003F001F80000000
00000000000000000000
00000000000000000000
00000000000000000000
000000FFFFFFE0000000
00000FFFFFFFFE000000
00007FFFFFFFFFC00000
0001FFFFFFFFFFF00000
0007FFFFFFFFFFFC0000
000FFFFFFFFFFFFF0000
003FFFFFFFFFFFFF8000
007FFFFFFFFFFFFFC000
00FFFFFFFFFFFFFFE000
01FFFFFFFFFFFFFFF000
03FFFFFFFFFFFFFFF800
03FFFF8000003FFFFC00
07FFFC00000007FFFE00
0FFFF000000001FFFE00
0FFFE0000000007FFF00
1FFF80000000003FFF00
1FFF00000000001FFF80
3FFE00000000000FFF80
3FFE000000000007FFC0
7FFC000000000003FFC0
7FF8000000000003FFC0
7FF8000000000001FFE0
7FF0000000000001FFE0
FFF0000000000000FFE0
FFE0000000000000FFE0
FFE0000000000000FFE0
FFE0000000000000FFF0
FFE00000000000007FF0
FFE00000000000007FF0
FFE00000000000007FF0
FFE00000000000007FF0
FFE00000000000007FF0
FFE00000000000007FF0
FFE00000000000007FF0
FFE00000000000007FF0
FFE00000000000007FF0
FFE0000000000000FFE0
FFE0000000000000FFE0
FFF0000000000000FFE0
7FF0000000000001FFE0
7FF0000000000001FFE0
7FF8000000000001FFC0
7FF8000000000003FFC0
3FFC000000000007FFC0
3FFE000000000007FF80
1FFE00000000000FFF80
1FFF00000000001FFF00
0FFF80000000003FFF00
0FFFE0000000007FFE00
07FFF000000001FFFE00
03FFFC00000007FFFC00
03FFFF8000003FFFF800
01FFFFFFFFFFFFFFF000
00FFFFFFFFFFFFFFE000
007FFFFFFFFFFFFFC000
003FFFFFFFFFFFFF8000
001FFFFFFFFFFFFF0000
0007FFFFFFFFFFFE0000
0003FFFFFFFFFFF80000
0000FFFFFFFFFFF00000
00003FFFFFFFFFC00000
00000FFFFFFFFE000000
000000FFFFFFE0000000
ENDCHAR
STARTCHAR Otilde
ENCODING 213
SWIDTH 968 0
DWIDTH 83 0
BBX 76 77 4 0
BITMAP
00000007E00080000000
0000001FFC0180000000
0000001FFF0380000000
0000001FFFFF80000000
0000001FFFFF80000000
0000001C1FFF80000000
0000001003FF00000000
0000002000FC00000000
00000000000000000000
00000000000000000000
00000000000000000000
00000000000000000000
00000000000000000000
00000000000000000000
000000FFFFFFE0000000
00000FFFFFFFFE000000
00007FFFFFFFFFC00000
0001FFFFFFFFFFF00000
0007FFFFFFFFFFFC0000
000FFFFFFFFFFFFF0000
003FFFFFFFFFFFFF8000
007FFFFFFFFFFFFFC000
00FFFFFFFFFFFFFFE000
01FFFFFFFFFFFFFFF000
03FFFFFFFFFFFFFFF800
03FFFF8000003FFFFC00
07FFFC00000007FFFE00
0FFFF000000001FFFE00
0FFFE0000000007FFF00
1FFF80000000003FFF00
1FFF00000000001FFF80
3FFE00000000000FFF80
3FFE000000000007FFC0
7FFC000000000003FFC0
7FF8000000000003FFC0
7FF8000000000001FFE0
7FF0000000000001FFE0
FFF0000000000000FFE0
FFE0000000000000FFE0
FFE0000000000000FFE0
FFE0000000000000FFF0
FFE00000000000007FF0
FFE00000000000007FF0
FFE00000000000007FF0
FFE00000000000007FF0
FFE00000000000007FF0
FFE00000000000007FF0
FFE00000000000007FF0
FFE00000000000007FF0
FFE00000000000007FF0
FFE0000000000000FFE0
FFE0000000000000FFE0
FFF0000000000000FFE0
7FF0000000000001FFE0
7FF0000000000001FFE0
7FF8000000000001FFC0
7FF8000000000003FFC0
3FFC000000000007FFC0
3FFE000000000007FF80
1FFE00000000000FFF80
1FFF00000000001FFF00
0FFF80000000003FFF00
0FFFE0000000007FFE00
07FFF000000001FFFE00
03FFFC00000007FFFC00
03FFFF8000003FFFF800
01FFFFFFFFFFFFFFF000
00FFFFFFFFFFFFFFE000
007FFFFFFFFFFFFFC000
003FFFFFFFFFFFFF8000
001FFFFFFFFFFFFF0000
0007FFFFFFFFFFFE0000
0003FFFFFFFFFFF80000
0000FFFFFFFFFFF00000
00003FFFFFFFFFC00000
00000FFFFFFFFE000000
000000FFFFFFE0000000
ENDCHAR
STARTCHAR Odieresis
ENCODING 214
SWIDTH 968 0
DWIDTH 83 0
BBX 76 78 4 0
BITMAP
0000001F001F00000000
0000003F803F80000000
0000007FC07FC0000000
0000007FC07FC0000000
0000007FC07FC0000000
0000007FC07FC0000000
0000003F803F80000000
0000001F001F00000000
00000000000000000000
00000000000000000000
00000000000000000000
00000000000000000000
00000000000000000000
00000000000000000000
00000000000000000000
000000FFFFFFE0000000
00000FFFFFFFFE000000
00007FFFFFFFFFC00000
0001FFFFFFFFFFF00000
0007FFFFFFFFFFFC0000
000FFFFFFFFFFFFF0000
003FFFFFFFFFFFFF8000
007FFFFFFFFFFFFFC000
00FFFFFFFFFFFFFFE000
01FFFFFFFFFFFFFFF000
03FFFFFFFFFFFFFFF800
03FFFF8000003FFFFC00
07FFFC00000007FFFE00
0FFFF000000001FFFE00
0FFFE0000000007FFF00
1FFF80000000003FFF00
1FFF00000000001FFF80
3FFE00000000000FFF80
3FFE000000000007FFC0
7FFC000000000003FFC0
7FF8000000000003FFC0
7FF8000000000001FFE0
7FF0000000000001FFE0
FFF0000000000000FFE0
FFE0000000000000FFE0
FFE0000000000000FFE0
FFE0000000000000FFF0
FFE00000000000007FF0
FFE00000000000007FF0
FFE00000000000007FF0
FFE00000000000007FF0
FFE00000000000007FF0
FFE00000000000007FF0
FFE00000000000007FF0
FFE00000000000007FF0
FFE00000000000007FF0
FFE0000000000000FFE0
FFE0000000000000FFE0
FFF0000000000000FFE0
7FF0000000000001FFE0
7FF0000000000001FFE0
7FF8000000000001FFC0
7FF8000000000003FFC0
3FFC000000000007FFC0
3FFE000000000007FF80
1FFE00000000000FFF80
1FFF00000000001FFF00
0FFF80000000003FFF00
0FFFE0000000007FFE00
07FFF000000001FFFE00
03FFFC00000007FFFC00
03FFFF8000003FFFF800
01FFFFFFFFFFFFFFF000
00FFFFFFFFFFFFFFE000
007FFFFFFFFFFFFFC000
003FFFFFFFFFFFFF8000
001FFFFFFFFFFFFF0000
0007FFFFFFFFFFFE0000
0003FFFFFFFFFFF80000
0000FFFFFFFFFFF00000
00003FFFFFFFFFC00000
00000FFFFFFFFE000000
000000FFFFFFE0000000
ENDCHAR
STARTCHAR multiply
ENCODING 215
SWIDTH 690 0
DWIDTH 59 0
BBX 39 40 10 12
BITMAP
0400000020
0E00000070
1F000000F8
3F800001FC
7FC00003FC
FFE00007FE
7FF0000FFC
3FF0001FF8
1FF8003FF0
0FFC007FE0
07FE00FFC0
03FF01FF80
01FF83FF00
00FFC7FE00
007FEFFC00
003FFFF800
001FFFF000
000FFFE000
0007FFC000
0003FF8000
0003FF8000
0007FFC000
000FFFE000
001FFFF000
003FFFF800
007FEFFC00
00FFC7FE00
01FF83FF00
03FF01FF80
07FE00FFC0
0FFC007FE0
1FF8003FF0
3FF0001FF8
7FE0000FFC
FFC00007FE
7F800003FE
3F000001FC
1E000000F8
0C00000070
0400000020
ENDCHAR
STARTCHAR Oslash
ENCODING 216
SWIDTH 968 0
DWIDTH 83 0
BBX 76 71 4 -4
BITMAP
00000000000000004000
0000000000000000F000
0000000000000001F800
0000000000000003F000
000000FFFFFFE007E000
00000FFFFFFFFE07C000
00007FFFFFFFFFCF8000
0001FFFFFFFFFFFF8000
0007FFFFFFFFFFFF0000
000FFFFFFFFFFFFF0000
003FFFFFFFFFFFFF8000
007FFFFFFFFFFFFFC000
00FFFFFFFFFFFFFFE000
01FFFFFFFFFFFFFFF000
03FFFFFFFFFFFFFFF800
03FFFF8000007FFFFC00
07FFFC0000001FFFFC00
0FFFF00000001FFFFE00
0FFFE00000003E7FFF00
1FFF800000007E3FFF00
1FFF00000000FC1FFF80
3FFE00000001F80FFF80
3FFE00000003F007FFC0
7FFC00000003E003FFC0
7FF800000007C003FFC0
7FF80000000FC001FFE0
7FF00000001F8001FFE0
FFF00000003F0000FFE0
FFE00000007E0000FFE0
FFE0000000FC0000FFE0
FFE0000000F80000FFF0
FFE0000001F000007FF0
FFE0000003F000007FF0
FFE0000007E000007FF0
FFE000000FC000007FF0
FFE000001F8000007FF0
FFE000001F0000007FF0
FFE000003E0000007FF0
FFE000007E0000007FF0
FFE00000FC0000007FF0
FFE00001F8000000FFE0
FFE00003F0000000FFE0
FFF00007E0000000FFE0
7FF00007C0000001FFE0
7FF0000FC0000001FFE0
7FF8001F80000001FFC0
7FF8003F00000003FFC0
3FFC007E00000007FFC0
3FFE00FC00000007FF80
1FFE00F80000000FFF80
1FFF01F80000001FFF00
0FFF83F00000003FFF00
0FFFE7E00000007FFE00
07FFFFC0000001FFFE00
03FFFF80000007FFFC00
03FFFF8000003FFFF800
01FFFFFFFFFFFFFFF000
00FFFFFFFFFFFFFFE000
007FFFFFFFFFFFFFC000
003FFFFFFFFFFFFF8000
001FFFFFFFFFFFFF0000
000FFFFFFFFFFFFE0000
0007FFFFFFFFFFF80000
000FFFFFFFFFFFF00000
001FBFFFFFFFFFC00000
003F0FFFFFFFFE000000
007E00FFFFFFE0000000
007C0000000000000000
00F80000000000000000
00780000000000000000
00300000000000000000
ENDCHAR
STARTCHAR Ugrave
ENCODING 217
SWIDTH 889 0
DWIDTH 76 0
BBX 68 80 4 -1
BITMAP
000008000000000000
000007000000000000
000007E00000000000
000007FE0000000000
000007FFC000000000
000007FFF800000000
000007FFFF00000000
000007FFFFE0000000
0000003FFFE0000000
00000001FFE0000000
000000001FE0000000
0000000000E0000000
000000000000000000
000000000000000000
000000000000000000
000000000000000000
FFF000000000007FF0
FFF000000000007FF0
FFF000000000007FF0
FFF000000000007FF0
FFF000000000007FF0
FFF000000000007FF0
FFF000000000007FF0
FFF000000000007FF0
FFF000000000007FF0
FFF000000000007FF0
FFF000000000007FF0
FFF000000000007FF0
FFF000000000007FF0
FFF000000000007FF0
FFF000000000007FF0
FFF000000000007FF0
FFF000000000007FF0
FFF000000000007FF0
FFF000000000007FF0
FFF000000000007FF0
FFF000000000007FF0
FFF000000000007FF0
FFF000000000007FF0
FFF000000000007FF0
FFF000000000007FF0
FFF000000000007FF0
FFF000000000007FF0
FFF000000000007FF0
FFF000000000007FF0
FFF000000000007FF0
FFF000000000007FF0
FFF000000000007FF0
FFF000000000007FF0
FFF000000000007FF0
FFF000000000007FF0
FFF000000000007FF0
FFF000000000007FF0
FFF000000000007FF0
7FF000000000007FF0
7FF000000000007FF0
7FF000000000007FF0
7FF000000000007FF0
7FF80000000000FFE0
7FF80000000000FFE0
7FF80000000000FFE0
3FFC0000000001FFE0
3FFE0000000001FFE0
3FFE0000000003FFC0
1FFF0000000007FFC0
1FFFC00000001FFF80
1FFFE00000003FFF80
0FFFFC000001FFFF80
0FFFFFE0001FFFFF00
07FFFFFFFFFFFFFE00
03FFFFFFFFFFFFFE00
01FFFFFFFFFFFFFC00
00FFFFFFFFFFFFF800
007FFFFFFFFFFFF000
003FFFFFFFFFFFC000
000FFFFFFFFFFF8000
0003FFFFFFFFFE0000
0000FFFFFFFFF00000
00000FFFFFFF800000
0000007FFFE0000000
ENDCHAR
STARTCHAR Uacute
ENCODING 218
SWIDTH 889 0
DWIDTH 76 0
BBX 68 80 4 -1
BITMAP
000000000001000000
00000000000F000000
00000000007F000000
0000000003FF000000
000000001FFF000000
00000001FFFF000000
0000000FFFFF000000
0000003FFFFE000000
0000003FFFC0000000
0000003FFC00000000
0000003F8000000000
000000380000000000
000000000000000000
000000000000000000
000000000000000000
000000000000000000
FFF000000000007FF0
FFF000000000007FF0
FFF000000000007FF0
FFF000000000007FF0
FFF000000000007FF0
FFF000000000007FF0
FFF000000000007FF0
FFF000000000007FF0
FFF000000000007FF0
FFF000000000007FF0
FFF000000000007FF0
FFF000000000007FF0
FFF000000000007FF0
FFF000000000007FF0
FFF000000000007FF0
FFF000000000007FF0
FFF000000000007FF0
FFF000000000007FF0
FFF000000000007FF0
FFF000000000007FF0
FFF000000000007FF0
FFF000000000007FF0
FFF000000000007FF0
FFF000000000007FF0
FFF000000000007FF0
FFF000000000007FF0
FFF000000000007FF0
FFF000000000007FF0
FFF000000000007FF0
FFF000000000007FF0
FFF000000000007FF0
FFF000000000007FF0
FFF000000000007FF0
FFF000000000007FF0
FFF000000000007FF0
FFF000000000007FF0
FFF000000000007FF0
FFF000000000007FF0
7FF000000000007FF0
7FF000000000007FF0
7FF000000000007FF0
7FF000000000007FF0
7FF80000000000FFE0
7FF80000000000FFE0
7FF80000000000FFE0
3FFC0000000001FFE0
3FFE0000000001FFE0
3FFE0000000003FFC0
1FFF0000000007FFC0
1FFFC00000001FFF80
1FFFE00000003FFF80
0FFFFC000001FFFF80
0FFFFFE0001FFFFF00
07FFFFFFFFFFFFFE00
03FFFFFFFFFFFFFE00
01FFFFFFFFFFFFFC00
00FFFFFFFFFFFFF800
007FFFFFFFFFFFF000
003FFFFFFFFFFFC000
000FFFFFFFFFFF8000
0003FFFFFFFFFE0000
0000FFFFFFFFF00000
00000FFFFFFF800000
0000007FFFE0000000
ENDCHAR
STARTCHAR Ucircumflex
ENCODING 219
SWIDTH 889 0
DWIDTH 76 0
BBX 68 79 4 -1
BITMAP
00000003FC00000000
00000007FE00000000
00000007FF00000000
0000000FDF80000000
0000001F9F80000000
0000001F0FC0000000
0000003F07E0000000
0000007E07E0000000
0000007C03F0000000
000000FC01F8000000
000001F801F8000000
000003F000FC000000
000000000000000000
000000000000000000
000000000000000000
FFF000000000007FF0
FFF000000000007FF0
FFF000000000007FF0
FFF000000000007FF0
FFF000000000007FF0
FFF000000000007FF0
FFF000000000007FF0
FFF000000000007FF0
FFF000000000007FF0
FFF000000000007FF0
FFF000000000007FF0
FFF000000000007FF0
FFF000000000007FF0
FFF000000000007FF0
FFF000000000007FF0
FFF000000000007FF0
FFF000000000007FF0
FFF000000000007FF0
FFF000000000007FF0
FFF000000000007FF0
FFF000000000007FF0
FFF000000000007FF0
FFF000000000007FF0
FFF000000000007FF0
FFF000000000007FF0
FFF000000000007FF0
FFF000000000007FF0
FFF000000000007FF0
FFF000000000007FF0
FFF000000000007FF0
FFF000000000007FF0
FFF000000000007FF0
FFF000000000007FF0
FFF000000000007FF0
FFF000000000007FF0
FFF000000000007FF0
FFF000000000007FF0
FFF000000000007FF0
7FF000000000007FF0
7FF000000000007FF0
7FF000000000007FF0
7FF000000000007FF0
7FF80000000000FFE0
7FF80000000000FFE0
7FF80000000000FFE0
3FFC0000000001FFE0
3FFE0000000001FFE0
3FFE0000000003FFC0
1FFF0000000007FFC0
1FFFC00000001FFF80
1FFFE00000003FFF80
0FFFFC000001FFFF80
0FFFFFE0001FFFFF00
07FFFFFFFFFFFFFE00
03FFFFFFFFFFFFFE00
01FFFFFFFFFFFFFC00
00FFFFFFFFFFFFF800
007FFFFFFFFFFFF000
003FFFFFFFFFFFC000
000FFFFFFFFFFF8000
0003FFFFFFFFFE0000
0000FFFFFFFFF00000
00000FFFFFFF800000
0000007FFFE0000000
ENDCHAR
STARTCHAR Udieresis
ENCODING 220
SWIDTH 889 0
DWIDTH 76 0
BBX 68 79 4 -1
BITMAP
000000F800F0000000
000001FC01FC000000
000003FC03FC000000
000003FE03FE000000
000003FE03FE000000
000003FC03FC000000
000001FC01FC000000
000000F800F0000000
000000000000000000
000000000000000000
000000000000000000
000000000000000000
000000000000000000
000000000000000000
000000000000000000
FFF000000000007FF0
FFF000000000007FF0
FFF000000000007FF0
FFF000000000007FF0
FFF000000000007FF0
FFF000000000007FF0
FFF000000000007FF0
FFF000000000007FF0
FFF000000000007FF0
FFF000000000007FF0
FFF000000000007FF0
FFF000000000007FF0
FFF000000000007FF0
FFF000000000007FF0
FFF000000000007FF0
FFF000000000007FF0
FFF000000000007FF0
FFF000000000007FF0
FFF000000000007FF0
FFF000000000007FF0
FFF000000000007FF0
FFF000000000007FF0
FFF000000000007FF0
FFF000000000007FF0
FFF000000000007FF0
FFF000000000007FF0
FFF000000000007FF0
FFF000000000007FF0
FFF000000000007FF0
FFF000000000007FF0
FFF000000000007FF0
FFF000000000007FF0
FFF000000000007FF0
FFF000000000007FF0
FFF000000000007FF0
FFF000000000007FF0
FFF000000000007FF0
FFF000000000007FF0
7FF000000000007FF0
7FF000000000007FF0
7FF000000000007FF0
7FF000000000007FF0
7FF80000000000FFE0
7FF80000000000FFE0
7FF80000000000FFE0
3FFC0000000001FFE0
3FFE0000000001FFE0
3FFE0000000003FFC0
1FFF0000000007FFC0
1FFFC00000001FFF80
1FFFE00000003FFF80
0FFFFC000001FFFF80
0FFFFFE0001FFFFF00
07FFFFFFFFFFFFFE00
03FFFFFFFFFFFFFE00
01FFFFFFFFFFFFFC00
00FFFFFFFFFFFFF800
007FFFFFFFFFFFF000
003FFFFFFFFFFFC000
000FFFFFFFFFFF8000
0003FFFFFFFFFE0000
0000FFFFFFFFF00000
00000FFFFFFF800000
0000007FFFE0000000
ENDCHAR
STARTCHAR Yacute
ENCODING 221
SWIDTH 926 0
DWIDTH 80 0
BBX 78 79 1 0
BITMAP
00000000000008000000
00000000000078000000
000000000003F8000000
00000000001FF8000000
0000000000FFF8000000
000000000FFFF8000000
000000007FFFF8000000
00000001FFFFF0000000
00000001FFFE00000000
00000001FFE000000000
00000001FC0000000000
00000001C00000000000
00000000000000000000
00000000000000000000
00000000000000000000
00000000000000000000
FFFE000000000001FFFC
7FFF000000000003FFF0
3FFF800000000007FFE0
1FFFC00000000007FFE0
0FFFE0000000000FFFC0
07FFE0000000001FFF80
03FFF0000000003FFF00
03FFF8000000007FFE00
01FFFC00000000FFFC00
00FFFE00000000FFF800
007FFF00000001FFF800
003FFF00000003FFF000
001FFF80000007FFE000
000FFFC000000FFFC000
000FFFE000001FFF8000
0007FFF000001FFF0000
0003FFF800003FFE0000
0001FFFC00007FFE0000
0000FFFC0000FFFC0000
00007FFE0001FFF80000
00003FFF0003FFF00000
00003FFF8007FFE00000
00001FFFC007FFC00000
00000FFFE00FFFC00000
000007FFE01FFF800000
000003FFF03FFF000000
000001FFF87FFE000000
000001FFFCFFFC000000
000000FFFEFFF8000000
0000007FFFFFF0000000
0000003FFFFFF0000000
0000001FFFFFE0000000
0000000FFFFFC0000000
00000007FFFF80000000
00000007FFFF00000000
00000003FFFE00000000
00000001FFFC00000000
00000000FFFC00000000
000000007FF800000000
000000007FF000000000
000000007FF000000000
000000007FF000000000
000000007FF000000000
000000007FF000000000
000000007FF000000000
000000007FF000000000
000000007FF000000000
000000007FF000000000
000000007FF000000000
000000007FF000000000
000000007FF000000000
000000007FF000000000
000000007FF000000000
000000007FF000000000
000000007FF000000000
000000007FF000000000
000000007FF000000000
000000007FF000000000
000000007FF000000000
000000007FF000000000
000000007FF000000000
000000007FF000000000
000000007FF000000000
ENDCHAR
STARTCHAR Thorn
ENCODING 222
SWIDTH 843 0
DWIDTH 73 0
BBX 65 63 5 0
BITMAP
FFE000000000000000
FFE000000000000000
FFE000000000000000
FFE000000000000000
FFE000000000000000
FFE000000000000000
FFE000000000000000
FFE000000000000000
FFE000000000000000
FFFFFFFFFFFF000000
FFFFFFFFFFFFE00000
FFFFFFFFFFFFFC0000
FFFFFFFFFFFFFF0000
FFFFFFFFFFFFFF8000
FFFFFFFFFFFFFFC000
FFFFFFFFFFFFFFE000
FFFFFFFFFFFFFFF000
FFFFFFFFFFFFFFF800
FFFFFFFFFFFFFFFC00
FFFFFFFFFFFFFFFC00
FFE000000003FFFE00
FFE0000000007FFE00
FFE0000000003FFE00
FFE0000000001FFF00
FFE0000000000FFF00
FFE00000000007FF00
FFE00000000007FF80
FFE00000000003FF80
FFE00000000003FF80
FFE00000000003FF80
FFE00000000003FF80
FFE00000000003FF80
FFE00000000003FF80
FFE00000000003FF80
FFE00000000003FF80
FFE00000000003FF80
FFE00000000003FF80
FFE00000000007FF00
FFE00000000007FF00
FFE0000000000FFF00
FFE0000000001FFF00
FFE0000000003FFE00
FFE0000000007FFE00
FFE000000003FFFC00
FFE01FFFFFFFFFFC00
FFE01FFFFFFFFFF800
FFE01FFFFFFFFFF800
FFE01FFFFFFFFFF000
FFE01FFFFFFFFFE000
FFE01FFFFFFFFFC000
FFE01FFFFFFFFF8000
FFE01FFFFFFFFE0000
FFE01FFFFFFFF80000
FFE01FFFFFFFE00000
FFE01FFFFFFF000000
FFE000000000000000
FFE000000000000000
FFE000000000000000
FFE000000000000000
FFE000000000000000
FFE000000000000000
FFE000000000000000
FFE000000000000000
ENDCHAR
STARTCHAR germandbls
ENCODING 223
SWIDTH 1760 0
DWIDTH 151 0
BBX 143 63 4 0
BITMAP
0001FFFFFFFFFFFF8000003FFFFFFFFFFFF0
001FFFFFFFFFFFFF800001FFFFFFFFFFFFF0
007FFFFFFFFFFFFF800007FFFFFFFFFFFFF0
01FFFFFFFFFFFFFF80001FFFFFFFFFFFFFF0
03FFFFFFFFFFFFFF80003FFFFFFFFFFFFFF0
07FFFFFFFFFFFFFF80007FFFFFFFFFFFFFF0
0FFFFFFFFFFFFFFF8000FFFFFFFFFFFFFFF0
1FFFFFFFFFFFFFFF8001FFFFFFFFFFFFFFF0
1FFFFFFFFFFFFFFF8003FFFFFFFFFFFFFFF0
3FFFFFFFFFFFFFFF8003FFFFFFFFFFFFFFF0
3FFFFFFFFFFFFFFF8007FFFFFFFFFFFFFFF0
7FFF0000000000000007FFF0000000000000
7FFC0000000000000007FFC0000000000000
7FF80000000000000007FF80000000000000
7FF8000000000000000FFF00000000000000
7FF0000000000000000FFF00000000000000
FFF0000000000000000FFF00000000000000
FFF0000000000000000FFF00000000000000
FFF0000000000000000FFF00000000000000
7FF0000000000000000FFF00000000000000
7FF0000000000000000FFF00000000000000
7FF00000000000000007FF00000000000000
7FF80000000000000007FF00000000000000
7FF80000000000000007FF80000000000000
3FFC0000000000000003FFC0000000000000
3FFF0000000000000003FFF0000000000000
1FFFFFFFFFFFFC000003FFFFFFFFFFFFC000
1FFFFFFFFFFFFFC00001FFFFFFFFFFFFF800
0FFFFFFFFFFFFFF00000FFFFFFFFFFFFFF00
07FFFFFFFFFFFFF800007FFFFFFFFFFFFF80
03FFFFFFFFFFFFFE00003FFFFFFFFFFFFFC0
01FFFFFFFFFFFFFF00001FFFFFFFFFFFFFE0
007FFFFFFFFFFFFF800007FFFFFFFFFFFFF0
001FFFFFFFFFFFFF800001FFFFFFFFFFFFF8
0001FFFFFFFFFFFFC000003FFFFFFFFFFFF8
0000000000000FFFC000000000000000FFFC
00000000000003FFE0000000000000003FFC
00000000000001FFE0000000000000001FFE
00000000000000FFE0000000000000000FFE
000000000000007FE0000000000000000FFE
000000000000007FE00000000000000007FE
000000000000007FF00000000000000007FE
000000000000007FF00000000000000007FE
000000000000007FF00000000000000007FE
000000000000007FF00000000000000007FE
000000000000007FF00000000000000007FE
000000000000007FF00000000000000007FE
000000000000007FF0000000000000000FFE
00000000000000FFE0000000000000000FFE
00000000000001FFE0000000000000001FFE
00000000000003FFE0000000000000003FFE
0000000000000FFFE000000000000000FFFC
7FFFFFFFFFFFFFFFC007FFFFFFFFFFFFFFFC
7FFFFFFFFFFFFFFFC007FFFFFFFFFFFFFFFC
7FFFFFFFFFFFFFFF8007FFFFFFFFFFFFFFF8
7FFFFFFFFFFFFFFF8007FFFFFFFFFFFFFFF0
7FFFFFFFFFFFFFFF0007FFFFFFFFFFFFFFF0
7FFFFFFFFFFFFFFE0007FFFFFFFFFFFFFFE0
7FFFFFFFFFFFFFFC0007FFFFFFFFFFFFFFC0
7FFFFFFFFFFFFFF80007FFFFFFFFFFFFFF00
7FFFFFFFFFFFFFE00007FFFFFFFFFFFFFE00
7FFFFFFFFFFFFF800007FFFFFFFFFFFFF800
7FFFFFFFFFFFFC000007FFFFFFFFFFFFC000
ENDCHAR
STARTCHAR agrave
ENCODING 224
SWIDTH 989 0
DWIDTH 85 0
BBX 83 79 1 0
BITMAP
0000001000000000000000
0000000E00000000000000
0000000FE0000000000000
0000000FFC000000000000
0000000FFF800000000000
0000000FFFF00000000000
0000000FFFFF0000000000
00000007FFFFC000000000
000000007FFFC000000000
0000000003FFC000000000
00000000003FC000000000
000000000001C000000000
0000000000000000000000
0000000000000000000000
0000000000000000000000
0000000001F00000000000
0000000003F80000000000
0000000007FC0000000000
000000000FFE0000000000
000000000FFE0000000000
000000001FFF0000000000
000000003FFF0000000000
000000003FFF8000000000
000000007FFFC000000000
000000007FFFC000000000
00000000FFFFE000000000
00000001FFFFE000000000
00000001FFFFF000000000
00000003FFFFF800000000
00000003FFFFF800000000
00000007FFFFFC00000000
0000000FFFFFFC00000000
0000000FFF3FFE00000000
0000001FFE1FFF00000000
0000001FFE1FFF00000000
0000003FFC0FFF80000000
0000007FFC0FFF80000000
0000007FF807FFC0000000
000000FFF803FFE0000000
000000FFF003FFE0000000
000001FFE001FFF0000000
000003FFE001FFF0000000
000003FFC000FFF8000000
000007FFC0007FFC000000
000007FF80007FFC000000
00000FFF00003FFE000000
00000FFF00003FFE000000
00001FFE00001FFF000000
00003FFE00000FFF800000
00003FFC00000FFF800000
00007FF8000007FFC00000
00007FF8000007FFC00000
0000FFF0000003FFE00000
0001FFF0000001FFF00000
0001FFE00FFFFFFFF00000
0003FFE01FFFFFFFF80000
0003FFC03FFFFFFFF80000
0007FF803FFFFFFFFC0000
000FFF807FFFFFFFFE0000
000FFF007FFFFFFFFE0000
001FFF00FFFFFFFFFF0000
001FFE01FFFFFFFFFF0000
003FFC01FFFFFFFFFF8000
007FFC0000000007FFC000
007FF80000000007FFC000
00FFF80000000003FFE000
00FFF00000000003FFE000
01FFE00000000001FFF000
03FFE00000000001FFF800
03FFC00000000000FFF800
07FFC000000000007FFC00
07FF8000000000007FFC00
0FFF8000000000003FFE00
1FFF0000000000003FFE00
1FFE0000000000001FFF00
3FFE0000000000000FFF80
3FFC0000000000000FFF80
7FFC00000000000007FFC0
FFF800000000000007FFE0
ENDCHAR
STARTCHAR aacute
ENCODING 225
SWIDTH 989 0
DWIDTH 85 0
BBX 83 79 1 0
BITMAP
0000000000000100000000
0000000000000E00000000
000000000000FE00000000
000000000007FE00000000
00000000003FFE00000000
0000000001FFFE00000000
000000001FFFFE00000000
000000007FFFFC00000000
000000007FFFC000000000
000000007FF80000000000
000000007F800000000000
0000000070000000000000
0000000000000000000000
0000000000000000000000
0000000000000000000000
0000000001F00000000000
0000000003F80000000000
0000000007FC0000000000
000000000FFE0000000000
000000000FFE0000000000
000000001FFF0000000000
000000003FFF0000000000
000000003FFF8000000000
000000007FFFC000000000
000000007FFFC000000000
00000000FFFFE000000000
00000001FFFFE000000000
00000001FFFFF000000000
00000003FFFFF800000000
00000003FFFFF800000000
00000007FFFFFC00000000
0000000FFFFFFC00000000
0000000FFF3FFE00000000
0000001FFE1FFF00000000
0000001FFE1FFF00000000
0000003FFC0FFF80000000
0000007FFC0FFF80000000
0000007FF807FFC0000000
000000FFF803FFE0000000
000000FFF003FFE0000000
000001FFE001FFF0000000
000003FFE001FFF0000000
000003FFC000FFF8000000
000007FFC0007FFC000000
000007FF80007FFC000000
00000FFF00003FFE000000
00000FFF00003FFE000000
00001FFE00001FFF000000
00003FFE00000FFF800000
00003FFC00000FFF800000
00007FF8000007FFC00000
00007FF8000007FFC00000
0000FFF0000003FFE00000
0001FFF0000001FFF00000
0001FFE00FFFFFFFF00000
0003FFE01FFFFFFFF80000
0003FFC03FFFFFFFF80000
0007FF803FFFFFFFFC0000
000FFF807FFFFFFFFE0000
000FFF007FFFFFFFFE0000
001FFF00FFFFFFFFFF0000
001FFE01FFFFFFFFFF0000
003FFC01FFFFFFFFFF8000
007FFC0000000007FFC000
007FF80000000007FFC000
00FFF80000000003FFE000
00FFF00000000003FFE000
01FFE00000000001FFF000
03FFE00000000001FFF800
03FFC00000000000FFF800
07FFC000000000007FFC00
07FF8000000000007FFC00
0FFF8000000000003FFE00
1FFF0000000000003FFE00
1FFE0000000000001FFF00
3FFE0000000000000FFF80
3FFC0000000000000FFF80
7FFC00000000000007FFC0
FFF800000000000007FFE0
ENDCHAR
STARTCHAR acircumflex
ENCODING 226
SWIDTH 989 0
DWIDTH 85 0
BBX 83 78 1 0
BITMAP
0000000007FC0000000000
0000000007FC0000000000
000000000FFE0000000000
000000001FBF0000000000
000000001F1F8000000000
000000003F1F8000000000
000000007E0FC000000000
000000007C07E000000000
00000000FC07E000000000
00000001F803F000000000
00000003F001F800000000
00000003F001F800000000
0000000000000000000000
0000000000000000000000
0000000001F00000000000
0000000003F80000000000
0000000007FC0000000000
000000000FFE0000000000
000000000FFE0000000000
000000001FFF0000000000
000000003FFF0000000000
000000003FFF8000000000
000000007FFFC000000000
000000007FFFC000000000
00000000FFFFE000000000
00000001FFFFE000000000
00000001FFFFF000000000
00000003FFFFF800000000
00000003FFFFF800000000
00000007FFFFFC00000000
0000000FFFFFFC00000000
0000000FFF3FFE00000000
0000001FFE1FFF00000000
0000001FFE1FFF00000000
0000003FFC0FFF80000000
0000007FFC0FFF80000000
0000007FF807FFC0000000
000000FFF803FFE0000000
000000FFF003FFE0000000
000001FFE001FFF0000000
000003FFE001FFF0000000
000003FFC000FFF8000000
000007FFC0007FFC000000
000007FF80007FFC000000
00000FFF00003FFE000000
00000FFF00003FFE000000
00001FFE00001FFF000000
00003FFE00000FFF800000
00003FFC00000FFF800000
00007FF8000007FFC00000
00007FF8000007FFC00000
0000FFF0000003FFE00000
0001FFF0000001FFF00000
0001FFE00FFFFFFFF00000
0003FFE01FFFFFFFF80000
0003FFC03FFFFFFFF80000
0007FF803FFFFFFFFC0000
000FFF807FFFFFFFFE0000
000FFF007FFFFFFFFE0000
001FFF00FFFFFFFFFF0000
001FFE01FFFFFFFFFF0000
003FFC01FFFFFFFFFF8000
007FFC0000000007FFC000
007FF80000000007FFC000
00FFF80000000003FFE000
00FFF00000000003FFE000
01FFE00000000001FFF000
03FFE00000000001FFF800
03FFC00000000000FFF800
07FFC000000000007FFC00
07FF8000000000007FFC00
0FFF8000000000003FFE00
1FFF0000000000003FFE00
1FFE0000000000001FFF00
3FFE0000000000000FFF80
3FFC0000000000000FFF80
7FFC00000000000007FFC0
FFF800000000000007FFE0
ENDCHAR
STARTCHAR atilde
ENCODING 227
SWIDTH 989 0
DWIDTH 85 0
BBX 83 77 1 0
BITMAP
000000007E000800000000
00000001FF801800000000
00000003FFF07800000000
00000003FFFFF800000000
00000003FFFFF800000000
00000003C1FFF800000000
00000003007FF000000000
00000002000FC000000000
0000000000000000000000
0000000000000000000000
0000000000000000000000
0000000000000000000000
0000000000000000000000
0000000001F00000000000
0000000003F80000000000
0000000007FC0000000000
000000000FFE0000000000
000000000FFE0000000000
000000001FFF0000000000
000000003FFF0000000000
000000003FFF8000000000
000000007FFFC000000000
000000007FFFC000000000
00000000FFFFE000000000
00000001FFFFE000000000
00000001FFFFF000000000
00000003FFFFF800000000
00000003FFFFF800000000
00000007FFFFFC00000000
0000000FFFFFFC00000000
0000000FFF3FFE00000000
0000001FFE1FFF00000000
0000001FFE1FFF00000000
0000003FFC0FFF80000000
0000007FFC0FFF80000000
0000007FF807FFC0000000
000000FFF803FFE0000000
000000FFF003FFE0000000
000001FFE001FFF0000000
000003FFE001FFF0000000
000003FFC000FFF8000000
000007FFC0007FFC000000
000007FF80007FFC000000
00000FFF00003FFE000000
00000FFF00003FFE000000
00001FFE00001FFF000000
00003FFE00000FFF800000
00003FFC00000FFF800000
00007FF8000007FFC00000
00007FF8000007FFC00000
0000FFF0000003FFE00000
0001FFF0000001FFF00000
0001FFE00FFFFFFFF00000
0003FFE01FFFFFFFF80000
0003FFC03FFFFFFFF80000
0007FF803FFFFFFFFC0000
000FFF807FFFFFFFFE0000
000FFF007FFFFFFFFE0000
001FFF00FFFFFFFFFF0000
001FFE01FFFFFFFFFF0000
003FFC01FFFFFFFFFF8000
007FFC0000000007FFC000
007FF80000000007FFC000
00FFF80000000003FFE000
00FFF00000000003FFE000
01FFE00000000001FFF000
03FFE00000000001FFF800
03FFC00000000000FFF800
07FFC000000000007FFC00
07FF8000000000007FFC00
0FFF8000000000003FFE00
1FFF0000000000003FFE00
1FFE0000000000001FFF00
3FFE0000000000000FFF80
3FFC0000000000000FFF80
7FFC00000000000007FFC0
FFF800000000000007FFE0
ENDCHAR
STARTCHAR adieresis
ENCODING 228
SWIDTH 989 0
DWIDTH 85 0
BBX 83 78 1 0
BITMAP
00000001F001F000000000
00000003F803F800000000
00000007FC07FC00000000
00000007FC07FC00000000
00000007FC07FC00000000
00000007FC07FC00000000
00000003F803F800000000
00000001F001F000000000
0000000000000000000000
0000000000000000000000
0000000000000000000000
0000000000000000000000
0000000000000000000000
0000000000000000000000
0000000001F00000000000
0000000003F80000000000
0000000007FC0000000000
000000000FFE0000000000
000000000FFE0000000000
000000001FFF0000000000
000000003FFF0000000000
000000003FFF8000000000
000000007FFFC000000000
000000007FFFC000000000
00000000FFFFE000000000
00000001FFFFE000000000
00000001FFFFF000000000
00000003FFFFF800000000
00000003FFFFF800000000
00000007FFFFFC00000000
0000000FFFFFFC00000000
0000000FFF3FFE00000000
0000001FFE1FFF00000000
0000001FFE1FFF00000000
0000003FFC0FFF80000000
0000007FFC0FFF80000000
0000007FF807FFC0000000
000000FFF803FFE0000000
000000FFF003FFE0000000
000001FFE001FFF0000000
000003FFE001FFF0000000
000003FFC000FFF8000000
000007FFC0007FFC000000
000007FF80007FFC000000
00000FFF00003FFE000000
00000FFF00003FFE000000
00001FFE00001FFF000000
00003FFE00000FFF800000
00003FFC00000FFF800000
00007FF8000007FFC00000
00007FF8000007FFC00000
0000FFF0000003FFE00000
0001FFF0000001FFF00000
0001FFE00FFFFFFFF00000
0003FFE01FFFFFFFF80000
0003FFC03FFFFFFFF80000
0007FF803FFFFFFFFC0000
000FFF807FFFFFFFFE0000
000FFF007FFFFFFFFE0000
001FFF00FFFFFFFFFF0000
001FFE01FFFFFFFFFF0000
003FFC01FFFFFFFFFF8000
007FFC0000000007FFC000
007FF80000000007FFC000
00FFF80000000003FFE000
00FFF00000000003FFE000
01FFE00000000001FFF000
03FFE00000000001FFF800
03FFC00000000000FFF800
07FFC000000000007FFC00
07FF8000000000007FFC00
0FFF8000000000003FFE00
1FFF0000000000003FFE00
1FFE0000000000001FFF00
3FFE0000000000000FFF80
3FFC0000000000000FFF80
7FFC00000000000007FFC0
FFF800000000000007FFE0
ENDCHAR
STARTCHAR aring
ENCODING 229
SWIDTH 989 0
DWIDTH 85 0
BBX 83 84 1 0
BITMAP
000000000FFE0000000000
000000003FFF8000000000
000000007FFFC000000000
00000000F803E000000000
00000001E000F000000000
00000001C000F000000000
00000001C0007000000000
00000003C0007000000000
00000003C0007800000000
00000001C0007000000000
00000001C0007000000000
00000001E000F000000000
00000001E000F000000000
00000000F803E000000000
000000007FFFC000000000
000000003FFF8000000000
000000000FFE0000000000
0000000000000000000000
0000000000000000000000
0000000000000000000000
0000000001F00000000000
0000000003F80000000000
0000000007FC0000000000
000000000FFE0000000000
000000000FFE0000000000
000000001FFF0000000000
000000003FFF0000000000
000000003FFF8000000000
000000007FFFC000000000
000000007FFFC000000000
00000000FFFFE000000000
00000001FFFFE000000000
00000001FFFFF000000000
00000003FFFFF800000000
00000003FFFFF800000000
00000007FFFFFC00000000
0000000FFFFFFC00000000
0000000FFF3FFE00000000
0000001FFE1FFF00000000
0000001FFE1FFF00000000
0000003FFC0FFF80000000
0000007FFC0FFF80000000
0000007FF807FFC0000000
000000FFF803FFE0000000
000000FFF003FFE0000000
000001FFE001FFF0000000
000003FFE001FFF0000000
000003FFC000FFF8000000
000007FFC0007FFC000000
000007FF80007FFC000000
00000FFF00003FFE000000
00000FFF00003FFE000000
00001FFE00001FFF000000
00003FFE00000FFF800000
00003FFC00000FFF800000
00007FF8000007FFC00000
00007FF8000007FFC00000
0000FFF0000003FFE00000
0001FFF0000001FFF00000
0001FFE00FFFFFFFF00000
0003FFE01FFFFFFFF80000
0003FFC03FFFFFFFF80000
0007FF803FFFFFFFFC0000
000FFF807FFFFFFFFE0000
000FFF007FFFFFFFFE0000
001FFF00FFFFFFFFFF0000
001FFE01FFFFFFFFFF0000
003FFC01FFFFFFFFFF8000
007FFC0000000007FFC000
007FF80000000007FFC000
00FFF80000000003FFE000
00FFF00000000003FFE000
01FFE00000000001FFF000
03FFE00000000001FFF800
03FFC00000000000FFF800
07FFC000000000007FFC00
07FF8000000000007FFC00
0FFF8000000000003FFE00
1FFF0000000000003FFE00
1FFE0000000000001FFF00
3FFE0000000000000FFF80
3FFC0000000000000FFF80
7FFC00000000000007FFC0
FFF800000000000007FFE0
ENDCHAR
STARTCHAR ae
ENCODING 230
SWIDTH 1345 0
DWIDTH 116 0
BBX 111 63 1 0
BITMAP
0000000003FFFFFFFFFFFFFFFFFE
000000000FFFFFFFFFFFFFFFFFFE
000000001FFFFFFFFFFFFFFFFFFE
000000001FFFFFFFFFFFFFFFFFFE
000000003FFFFFFFFFFFFFFFFFFE
000000007FFFFFFFFFFFFFFFFFFE
000000007FFFFFFFFFFFFFFFFFFE
00000000FFFFFFFFFFFFFFFFFFFE
00000000FFFFFFFFFFFFFFFFFFFE
00000001FFFFFFFFFFFFFFFFFFFE
00000003FFFFFFFFFFFFFFFFFFFE
00000003FFC0003FF80000000000
00000007FF80003FF80000000000
00000007FF80003FF80000000000
0000000FFF00003FF80000000000
0000000FFE00003FF80000000000
0000001FFE00003FF80000000000
0000003FFC00003FF80000000000
0000003FFC00003FF80000000000
0000007FF800003FF80000000000
0000007FF800003FF80000000000
000000FFF000003FF80000000000
000000FFE000003FF80000000000
000001FFE000003FF80000000000
000003FFC000003FF80000000000
000003FFC000003FF80000000000
000007FF8000003FF807FFFFFFF0
000007FF8000003FF807FFFFFFF0
00000FFF0000003FF807FFFFFFF0
00000FFE0000003FF807FFFFFFF0
00001FFE0000003FF807FFFFFFF0
00003FFC0000003FF807FFFFFFF0
00003FFC0000003FF807FFFFFFF0
00007FF80000003FF807FFFFFFF0
00007FF80000003FF807FFFFFFF0
0000FFF00000003FF80000000000
0001FFF00000003FF80000000000
0001FFE00000003FF80000000000
0003FFC00000003FF80000000000
0003FFC01FFFFFFFF80000000000
0007FF803FFFFFFFF80000000000
0007FF803FFFFFFFF80000000000
000FFF007FFFFFFFF80000000000
001FFF007FFFFFFFF80000000000
001FFE00FFFFFFFFF80000000000
003FFC01FFFFFFFFF80000000000
003FFC01FFFFFFFFF80000000000
007FF803FFFFFFFFF80000000000
007FF8000000003FF80000000000
00FFF0000000003FF80000000000
01FFF0000000003FF80000000000
01FFE0000000003FF80000000000
03FFC0000000003FFFFFFFFFFFFE
03FFC0000000003FFFFFFFFFFFFE
07FF80000000003FFFFFFFFFFFFE
07FF80000000003FFFFFFFFFFFFE
0FFF00000000003FFFFFFFFFFFFE
1FFF00000000003FFFFFFFFFFFFE
1FFE00000000003FFFFFFFFFFFFE
3FFC00000000003FFFFFFFFFFFFE
3FFC00000000003FFFFFFFFFFFFE
7FF800000000003FFFFFFFFFFFFE
FFF800000000003FFFFFFFFFFFFE
ENDCHAR
STARTCHAR ccedilla
ENCODING 231
SWIDTH 829 0
DWIDTH 71 0
BBX 64 80 4 -17
BITMAP
000000FFFFFFFFFF
00000FFFFFFFFFFF
00007FFFFFFFFFFF
0001FFFFFFFFFFFF
0007FFFFFFFFFFFF
000FFFFFFFFFFFFF
003FFFFFFFFFFFFF
007FFFFFFFFFFFFF
00FFFFFFFFFFFFFF
01FFFFFFFFFFFFFF
03FFFFFFFFFFFFFF
03FFFF8000000000
07FFFC0000000000
0FFFF00000000000
0FFFE00000000000
1FFF800000000000
1FFF000000000000
3FFE000000000000
3FFE000000000000
7FFC000000000000
7FF8000000000000
7FF8000000000000
7FF0000000000000
FFF0000000000000
FFE0000000000000
FFE0000000000000
FFE0000000000000
FFE0000000000000
FFE0000000000000
FFE0000000000000
FFE0000000000000
FFE0000000000000
FFE0000000000000
FFE0000000000000
FFE0000000000000
FFE0000000000000
FFE0000000000000
FFE0000000000000
FFF0000000000000
7FF0000000000000
7FF0000000000000
7FF8000000000000
7FF8000000000000
3FFC000000000000
3FFE000000000000
1FFE000000000000
1FFF000000000000
0FFF800000000000
0FFFE00000000000
07FFF00000000000
03FFFC0000000000
03FFFF8000000000
01FFFFFFFFFFFFFF
00FFFFFFFFFFFFFF
007FFFFFFFFFFFFF
003FFFFFFFFFFFFF
001FFFFFFFFFFFFF
0007FFFFFFFFFFFF
0003FFFFFFFFFFFF
0000FFFFFFFFFFFF
00003FFFFFFFFFFF
00000FFFFFFFFFFF
000000FFFFFFFFFF
0000000000000000
0000000000000000
0000000000000000
0000000000000000
0000000FFE000000
0000000FFC000000
00000007FC000000
00000007FC000000
00000003F8000000
00000003F8000000
00000003F0000000
00000001F0000000
00000001E0000000
00000000E0000000
00000000E0000000
0000000040000000
0000000040000000
ENDCHAR
STARTCHAR egrave
ENCODING 232
SWIDTH 759 0
DWIDTH 65 0
BBX 56 79 5 0
BITMAP
00020000000000
00038000000000
0003F800000000
0003FF00000000
0003FFE0000000
0003FFFE000000
0003FFFFC00000
0001FFFFF00000
00001FFFF00000
000000FFF00000
0000000FF00000
00000000700000
00000000000000
00000000000000
00000000000000
00000000000000
FFFFFFFFFFFFFF
FFFFFFFFFFFFFF
FFFFFFFFFFFFFF
FFFFFFFFFFFFFF
FFFFFFFFFFFFFF
FFFFFFFFFFFFFF
FFFFFFFFFFFFFF
FFFFFFFFFFFFFF
FFFFFFFFFFFFFF
FFFFFFFFFFFFFF
FFFFFFFFFFFFFF
FFE00000000000
FFE00000000000
FFE00000000000
FFE00000000000
FFE00000000000
FFE00000000000
FFE00000000000
FFE00000000000
FFE00000000000
FFE00000000000
FFE00000000000
FFE00000000000
FFE00000000000
FFE00000000000
FFE00000000000
FFE01FFFFFFFFC
FFE01FFFFFFFFC
FFE01FFFFFFFFC
FFE01FFFFFFFFC
FFE01FFFFFFFFC
FFE01FFFFFFFFC
FFE01FFFFFFFFC
FFE01FFFFFFFFC
FFE01FFFFFFFFC
FFE00000000000
FFE00000000000
FFE00000000000
FFE00000000000
FFE00000000000
FFE00000000000
FFE00000000000
FFE00000000000
FFE00000000000
FFE00000000000
FFE00000000000
FFE00000000000
FFE00000000000
FFE00000000000
FFE00000000000
FFE00000000000
FFE00000000000
FFFFFFFFFFFFFF
FFFFFFFFFFFFFF
FFFFFFFFFFFFFF
FFFFFFFFFFFFFF
FFFFFFFFFFFFFF
FFFFFFFFFFFFFF
FFFFFFFFFFFFFF
FFFFFFFFFFFFFF
FFFFFFFFFFFFFF
FFFFFFFFFFFFFF
FFFFFFFFFFFFFF
ENDCHAR
STARTCHAR eacute
ENCODING 233
SWIDTH 759 0
DWIDTH 65 0
BBX 56 79 5 0
BITMAP
00000000004000
00000000038000
000000001F8000
00000001FF8000
0000000FFF8000
0000007FFF8000
000007FFFF8000
00001FFFFF8000
00001FFFF00000
00001FFE000000
00001FE0000000
00001C00000000
00000000000000
00000000000000
00000000000000
00000000000000
FFFFFFFFFFFFFF
FFFFFFFFFFFFFF
FFFFFFFFFFFFFF
FFFFFFFFFFFFFF
FFFFFFFFFFFFFF
FFFFFFFFFFFFFF
FFFFFFFFFFFFFF
FFFFFFFFFFFFFF
FFFFFFFFFFFFFF
FFFFFFFFFFFFFF
FFFFFFFFFFFFFF
FFE00000000000
FFE00000000000
FFE00000000000
FFE00000000000
FFE00000000000
FFE00000000000
FFE00000000000
FFE00000000000
FFE00000000000
FFE00000000000
FFE00000000000
FFE00000000000
FFE00000000000
FFE00000000000
FFE00000000000
FFE01FFFFFFFFC
FFE01FFFFFFFFC
FFE01FFFFFFFFC
FFE01FFFFFFFFC
FFE01FFFFFFFFC
FFE01FFFFFFFFC
FFE01FFFFFFFFC
FFE01FFFFFFFFC
FFE01FFFFFFFFC
FFE00000000000
FFE00000000000
FFE00000000000
FFE00000000000
FFE00000000000
FFE00000000000
FFE00000000000
FFE00000000000
FFE00000000000
FFE00000000000
FFE00000000000
FFE00000000000
FFE00000000000
FFE00000000000
FFE00000000000
FFE00000000000
FFE00000000000
FFFFFFFFFFFFFF
FFFFFFFFFFFFFF
FFFFFFFFFFFFFF
FFFFFFFFFFFFFF
FFFFFFFFFFFFFF
FFFFFFFFFFFFFF
FFFFFFFFFFFFFF
FFFFFFFFFFFFFF
FFFFFFFFFFFFFF
FFFFFFFFFFFFFF
FFFFFFFFFFFFFF
ENDCHAR
STARTCHAR ecircumflex
ENCODING 234
SWIDTH 759 0
DWIDTH 65 0
BBX 56 78 5 0
BITMAP
000001FF000000
000001FF800000
000003FF800000
000007EFC00000
000007C7E00000
00000FC3E00000
00001F83F00000
00001F01F80000
00003F01F80000
00007E00FC0000
00007C007E0000
0000FC007E0000
00000000000000
00000000000000
00000000000000
FFFFFFFFFFFFFF
FFFFFFFFFFFFFF
FFFFFFFFFFFFFF
FFFFFFFFFFFFFF
FFFFFFFFFFFFFF
FFFFFFFFFFFFFF
FFFFFFFFFFFFFF
FFFFFFFFFFFFFF
FFFFFFFFFFFFFF
FFFFFFFFFFFFFF
FFFFFFFFFFFFFF
FFE00000000000
FFE00000000000
FFE00000000000
FFE00000000000
FFE00000000000
FFE00000000000
FFE00000000000
FFE00000000000
FFE00000000000
FFE00000000000
FFE00000000000
FFE00000000000
FFE00000000000
FFE00000000000
FFE00000000000
FFE01FFFFFFFFC
FFE01FFFFFFFFC
FFE01FFFFFFFFC
FFE01FFFFFFFFC
FFE01FFFFFFFFC
FFE01FFFFFFFFC
FFE01FFFFFFFFC
FFE01FFFFFFFFC
FFE01FFFFFFFFC
FFE00000000000
FFE00000000000
FFE00000000000
FFE00000000000
FFE00000000000
FFE00000000000
FFE00000000000
FFE00000000000
FFE00000000000
FFE00000000000
FFE00000000000
FFE00000000000
FFE00000000000
FFE00000000000
FFE00000000000
FFE00000000000
FFE00000000000
FFFFFFFFFFFFFF
FFFFFFFFFFFFFF
FFFFFFFFFFFFFF
FFFFFFFFFFFFFF
FFFFFFFFFFFFFF
FFFFFFFFFFFFFF
FFFFFFFFFFFFFF
FFFFFFFFFFFFFF
FFFFFFFFFFFFFF
FFFFFFFFFFFFFF
FFFFFFFFFFFFFF
ENDCHAR
STARTCHAR edieresis
ENCODING 235
SWIDTH 759 0
DWIDTH 65 0
BBX 56 78 5 0
BITMAP
00007C007C0000
0000FE00FE0000
0000FF01FF0000
0001FF01FF0000
0001FF01FF0000
0000FF01FF0000
0000FE00FE0000
00007C007C0000
00000000000000
00000000000000
00000000000000
00000000000000
00000000000000
00000000000000
00000000000000
FFFFFFFFFFFFFF
FFFFFFFFFFFFFF
FFFFFFFFFFFFFF
FFFFFFFFFFFFFF
FFFFFFFFFFFFFF
FFFFFFFFFFFFFF
FFFFFFFFFFFFFF
FFFFFFFFFFFFFF
FFFFFFFFFFFFFF
FFFFFFFFFFFFFF
FFFFFFFFFFFFFF
FFE00000000000
FFE00000000000
FFE00000000000
FFE00000000000
FFE00000000000
FFE00000000000
FFE00000000000
FFE00000000000
FFE00000000000
FFE00000000000
FFE00000000000
FFE00000000000
FFE00000000000
FFE00000000000
FFE00000000000
FFE01FFFFFFFFC
FFE01FFFFFFFFC
FFE01FFFFFFFFC
FFE01FFFFFFFFC
FFE01FFFFFFFFC
FFE01FFFFFFFFC
FFE01FFFFFFFFC
FFE01FFFFFFFFC
FFE01FFFFFFFFC
FFE00000000000
FFE00000000000
FFE00000000000
FFE00000000000
FFE00000000000
FFE00000000000
FFE00000000000
FFE00000000000
FFE00000000000
FFE00000000000
FFE00000000000
FFE00000000000
FFE00000000000
FFE00000000000
FFE00000000000
FFE00000000000
FFE00000000000
FFFFFFFFFFFFFF
FFFFFFFFFFFFFF
FFFFFFFFFFFFFF
FFFFFFFFFFFFFF
FFFFFFFFFFFFFF
FFFFFFFFFFFFFF
FFFFFFFFFFFFFF
FFFFFFFFFFFFFF
FFFFFFFFFFFFFF
FFFFFFFFFFFFFF
FFFFFFFFFFFFFF
ENDCHAR
STARTCHAR igrave
ENCODING 236
SWIDTH 267 0
DWIDTH 23 0
BBX 22 79 -2 0
BITMAP
800000
E00000
FE0000
FFC000
FFF800
FFFF80
FFFFF0
7FFFFC
07FFFC
003FFC
0001FC
00001C
000000
000000
000000
000000
00FFE0
00FFE0
00FFE0
00FFE0
00FFE0
00FFE0
00FFE0
00FFE0
00FFE0
00FFE0
00FFE0
00FFE0
00FFE0
00FFE0
00FFE0
00FFE0
00FFE0
00FFE0
00FFE0
00FFE0
00FFE0
00FFE0
00FFE0
00FFE0
00FFE0
00FFE0
00FFE0
00FFE0
00FFE0
00FFE0
00FFE0
00FFE0
00FFE0
00FFE0
00FFE0
00FFE0
00FFE0
00FFE0
00FFE0
00FFE0
00FFE0
00FFE0
00FFE0
00FFE0
00FFE0
00FFE0
00FFE0
00FFE0
00FFE0
00FFE0
00FFE0
00FFE0
00FFE0
00FFE0
00FFE0
00FFE0
00FFE0
00FFE0
00FFE0
00FFE0
00FFE0
00FFE0
00FFE0
ENDCHAR
STARTCHAR iacute
ENCODING 237
SWIDTH 267 0
DWIDTH 23 0
BBX 22 79 3 0
BITMAP
000004
00001C
0000FC
000FFC
007FFC
03FFFC
3FFFFC
FFFFFC
FFFF80
FFF000
FF0000
E00000
000000
000000
000000
000000
1FFC00
1FFC00
1FFC00
1FFC00
1FFC00
1FFC00
1FFC00
1FFC00
1FFC00
1FFC00
1FFC00
1FFC00
1FFC00
1FFC00
1FFC00
1FFC00
1FFC00
1FFC00
1FFC00
1FFC00
1FFC00
1FFC00
1FFC00
1FFC00
1FFC00
1FFC00
1FFC00
1FFC00
1FFC00
1FFC00
1FFC00
1FFC00
1FFC00
1FFC00
1FFC00
1FFC00
1FFC00
1FFC00
1FFC00
1FFC00
1FFC00
1FFC00
1FFC00
1FFC00
1FFC00
1FFC00
1FFC00
1FFC00
1FFC00
1FFC00
1FFC00
1FFC00
1FFC00
1FFC00
1FFC00
1FFC00
1FFC00
1FFC00
1FFC00
1FFC00
1FFC00
1FFC00
1FFC00
ENDCHAR
STARTCHAR icircumflex
ENCODING 238
SWIDTH 267 0
DWIDTH 23 0
BBX 23 78 0 0
BITMAP
01FF00
01FF00
03FF80
07EFC0
07C7E0
0FC7E0
1F83F0
1F01F8
3F01F8
7E00FC
FC007E
FC007E
000000
000000
000000
03FF80
03FF80
03FF80
03FF80
03FF80
03FF80
03FF80
03FF80
03FF80
03FF80
03FF80
03FF80
03FF80
03FF80
03FF80
03FF80
03FF80
03FF80
03FF80
03FF80
03FF80
03FF80
03FF80
03FF80
03FF80
03FF80
03FF80
03FF80
03FF80
03FF80
03FF80
03FF80
03FF80
03FF80
03FF80
03FF80
03FF80
03FF80
03FF80
03FF80
03FF80
03FF80
03FF80
03FF80
03FF80
03FF80
03FF80
03FF80
03FF80
03FF80
03FF80
03FF80
03FF80
03FF80
03FF80
03FF80
03FF80
03FF80
03FF80
03FF80
03FF80
03FF80
03FF80
ENDCHAR
STARTCHAR idieresis
ENCODING 239
SWIDTH 267 0
DWIDTH 23 0
BBX 25 78 -1 0
BITMAP
3E003E00
7F007F00
FF80FF80
FF80FF80
FF80FF80
FF80FF80
7F007F00
3E003E00
00000000
00000000
00000000
00000000
00000000
00000000
00000000
01FFC000
01FFC000
01FFC000
01FFC000
01FFC000
01FFC000
01FFC000
01FFC000
01FFC000
01FFC000
01FFC000
01FFC000
01FFC000
01FFC000
01FFC000
01FFC000
01FFC000
01FFC000
01FFC000
01FFC000
01FFC000
01FFC000
01FFC000
01FFC000
01FFC000
01FFC000
01FFC000
01FFC000
01FFC000
01FFC000
01FFC000
01FFC000
01FFC000
01FFC000
01FFC000
01FFC000
01FFC000
01FFC000
01FFC000
01FFC000
01FFC000
01FFC000
01FFC000
01FFC000
01FFC000
01FFC000
01FFC000
01FFC000
01FFC000
01FFC000
01FFC000
01FFC000
01FFC000
01FFC000
01FFC000
01FFC000
01FFC000
01FFC000
01FFC000
01FFC000
01FFC000
01FFC000
01FFC000
ENDCHAR
STARTCHAR eth
ENCODING 240
SWIDTH 877 0
DWIDTH 75 0
BBX 71 63 1 0
BITMAP
0FFFFFFFFFFE000000
0FFFFFFFFFFFE00000
0FFFFFFFFFFFF80000
0FFFFFFFFFFFFE0000
0FFFFFFFFFFFFF8000
0FFFFFFFFFFFFFE000
0FFFFFFFFFFFFFF000
0FFFFFFFFFFFFFF800
0FFFFFFFFFFFFFFC00
0FFFFFFFFFFFFFFE00
0FFFFFFFFFFFFFFF00
0FFE00000007FFFF80
0FFE00000000FFFFC0
0FFE000000003FFFC0
0FFE000000000FFFE0
0FFE0000000007FFE0
0FFE0000000003FFF0
0FFE0000000001FFF0
0FFE0000000000FFF8
0FFE00000000007FF8
0FFE00000000007FF8
0FFE00000000003FFC
0FFE00000000003FFC
0FFE00000000001FFC
0FFE00000000001FFC
0FFE00000000001FFE
FFFFFFFFFF00001FFE
FFFFFFFFFF00000FFE
FFFFFFFFFF00000FFE
FFFFFFFFFF00000FFE
FFFFFFFFFF00000FFE
FFFFFFFFFF00000FFE
FFFFFFFFFF00000FFE
FFFFFFFFFF00000FFE
FFFFFFFFFF00000FFE
0FFE00000000000FFE
0FFE00000000001FFE
0FFE00000000001FFC
0FFE00000000001FFC
0FFE00000000001FFC
0FFE00000000003FFC
0FFE00000000003FF8
0FFE00000000007FF8
0FFE00000000007FF8
0FFE0000000000FFF0
0FFE0000000001FFF0
0FFE0000000003FFE0
0FFE0000000007FFE0
0FFE000000000FFFC0
0FFE000000003FFFC0
0FFE00000000FFFF80
0FFE00000007FFFF00
0FFFFFFFFFFFFFFF00
0FFFFFFFFFFFFFFE00
0FFFFFFFFFFFFFFC00
0FFFFFFFFFFFFFF800
0FFFFFFFFFFFFFE000
0FFFFFFFFFFFFFC000
0FFFFFFFFFFFFF8000
0FFFFFFFFFFFFE0000
0FFFFFFFFFFFF80000
0FFFFFFFFFFFC00000
0FFFFFFFFFFC000000
ENDCHAR
STARTCHAR ntilde
ENCODING 241
SWIDTH 873 0
DWIDTH 75 0
BBX 65 77 5 0
BITMAP
000000FC0010000000
000003FF0030000000
000007FFE0F0000000
000007FFFFF0000000
000007FFFFF0000000
00000783FFF0000000
00000600FFE0000000
000004001F80000000
000000000000000000
000000000000000000
000000000000000000
000000000000000000
000000000000000000
000000000000000000
1F000000000001FF80
3FC00000000001FF80
7FE00000000001FF80
7FF00000000001FF80
FFF80000000001FF80
FFFC0000000001FF80
FFFE0000000001FF80
FFFF0000000001FF80
FFFF8000000001FF80
FFFFC000000001FF80
FFFFE000000001FF80
FFFFF000000001FF80
FFFFF800000001FF80
FFFFFC00000001FF80
FFFFFE00000001FF80
FFFFFF00000001FF80
FFFFFF80000001FF80
FFFFFFC0000001FF80
FFFFFFE0000001FF80
FFEFFFF0000001FF80
FFE7FFF8000001FF80
FFE3FFFC000001FF80
FFE0FFFE000001FF80
FFE07FFF000001FF80
FFE03FFF800001FF80
FFE01FFFC00001FF80
FFE00FFFE00001FF80
FFE007FFF00001FF80
FFE003FFF80001FF80
FFE001FFFC0001FF80
FFE000FFFE0001FF80
FFE0007FFF0001FF80
FFE0003FFF8001FF80
FFE0001FFFC001FF80
FFE0000FFFE001FF80
FFE00007FFF001FF80
FFE00003FFF801FF80
FFE00001FFFC01FF80
FFE00000FFFE01FF80
FFE000007FFF01FF80
FFE000003FFF81FF80
FFE000001FFFC1FF80
FFE000000FFFE1FF80
FFE0000007FFF1FF80
FFE0000003FFF9FF80
FFE0000001FFFDFF80
FFE0000000FFFFFF80
FFE00000007FFFFF80
FFE00000003FFFFF80
FFE00000001FFFFF80
FFE00000000FFFFF80
FFE000000007FFFF80
FFE000000003FFFF80
FFE000000001FFFF80
FFE000000000FFFF80
FFE0000000007FFF80
FFE0000000003FFF80
FFE0000000001FFF80
FFE0000000000FFF80
FFE00000000007FF00
FFE00000000003FF00
FFE00000000001FE00
FFE000000000007C00
ENDCHAR
STARTCHAR ograve
ENCODING 242
SWIDTH 968 0
DWIDTH 83 0
BBX 76 79 4 0
BITMAP
00000080000000000000
000000E0000000000000
000000FE000000000000
000000FFC00000000000
000000FFF80000000000
000000FFFF8000000000
000000FFFFF000000000
0000007FFFFC00000000
00000007FFFC00000000
000000003FFC00000000
0000000001FC00000000
00000000001C00000000
00000000000000000000
00000000000000000000
00000000000000000000
00000000000000000000
000000FFFFFFE0000000
00000FFFFFFFFE000000
00007FFFFFFFFFC00000
0001FFFFFFFFFFF00000
0007FFFFFFFFFFFC0000
000FFFFFFFFFFFFF0000
003FFFFFFFFFFFFF8000
007FFFFFFFFFFFFFC000
00FFFFFFFFFFFFFFE000
01FFFFFFFFFFFFFFF000
03FFFFFFFFFFFFFFF800
03FFFF8000003FFFFC00
07FFFC00000007FFFE00
0FFFF000000001FFFE00
0FFFE0000000007FFF00
1FFF80000000003FFF00
1FFF00000000001FFF80
3FFE00000000000FFF80
3FFE000000000007FFC0
7FFC000000000003FFC0
7FF8000000000003FFC0
7FF8000000000001FFE0
7FF0000000000001FFE0
FFF0000000000000FFE0
FFE0000000000000FFE0
FFE0000000000000FFE0
FFE0000000000000FFF0
FFE00000000000007FF0
FFE00000000000007FF0
FFE00000000000007FF0
FFE00000000000007FF0
FFE00000000000007FF0
FFE00000000000007FF0
FFE00000000000007FF0
FFE00000000000007FF0
FFE00000000000007FF0
FFE0000000000000FFE0
FFE0000000000000FFE0
FFF0000000000000FFE0
7FF0000000000001FFE0
7FF0000000000001FFE0
7FF8000000000001FFC0
7FF8000000000003FFC0
3FFC000000000007FFC0
3FFE000000000007FF80
1FFE00000000000FFF80
1FFF00000000001FFF00
0FFF80000000003FFF00
0FFFE0000000007FFE00
07FFF000000001FFFE00
03FFFC00000007FFFC00
03FFFF8000003FFFF800
01FFFFFFFFFFFFFFF000
00FFFFFFFFFFFFFFE000
007FFFFFFFFFFFFFC000
003FFFFFFFFFFFFF8000
001FFFFFFFFFFFFF0000
0007FFFFFFFFFFFE0000
0003FFFFFFFFFFF80000
0000FFFFFFFFFFF00000
00003FFFFFFFFFC00000
00000FFFFFFFFE000000
000000FFFFFFE0000000
ENDCHAR
STARTCHAR oacute
ENCODING 243
SWIDTH 968 0
DWIDTH 83 0
BBX 76 79 4 0
BITMAP
00000000000010000000
000000000000E0000000
000000000007E0000000
00000000007FE0000000
0000000003FFE0000000
000000001FFFE0000000
00000001FFFFE0000000
00000007FFFFE0000000
00000007FFFC00000000
00000007FF8000000000
00000007F80000000000
00000007000000000000
00000000000000000000
00000000000000000000
00000000000000000000
00000000000000000000
000000FFFFFFE0000000
00000FFFFFFFFE000000
00007FFFFFFFFFC00000
0001FFFFFFFFFFF00000
0007FFFFFFFFFFFC0000
000FFFFFFFFFFFFF0000
003FFFFFFFFFFFFF8000
007FFFFFFFFFFFFFC000
00FFFFFFFFFFFFFFE000
01FFFFFFFFFFFFFFF000
03FFFFFFFFFFFFFFF800
03FFFF8000003FFFFC00
07FFFC00000007FFFE00
0FFFF000000001FFFE00
0FFFE0000000007FFF00
1FFF80000000003FFF00
1FFF00000000001FFF80
3FFE00000000000FFF80
3FFE000000000007FFC0
7FFC000000000003FFC0
7FF8000000000003FFC0
7FF8000000000001FFE0
7FF0000000000001FFE0
FFF0000000000000FFE0
FFE0000000000000FFE0
FFE0000000000000FFE0
FFE0000000000000FFF0
FFE00000000000007FF0
FFE00000000000007FF0
FFE00000000000007FF0
FFE00000000000007FF0
FFE00000000000007FF0
FFE00000000000007FF0
FFE00000000000007FF0
FFE00000000000007FF0
FFE00000000000007FF0
FFE0000000000000FFE0
FFE0000000000000FFE0
FFF0000000000000FFE0
7FF0000000000001FFE0
7FF0000000000001FFE0
7FF8000000000001FFC0
7FF8000000000003FFC0
3FFC000000000007FFC0
3FFE000000000007FF80
1FFE00000000000FFF80
1FFF00000000001FFF00
0FFF80000000003FFF00
0FFFE0000000007FFE00
07FFF000000001FFFE00
03FFFC00000007FFFC00
03FFFF8000003FFFF800
01FFFFFFFFFFFFFFF000
00FFFFFFFFFFFFFFE000
007FFFFFFFFFFFFFC000
003FFFFFFFFFFFFF8000
001FFFFFFFFFFFFF0000
0007FFFFFFFFFFFE0000
0003FFFFFFFFFFF80000
0000FFFFFFFFFFF00000
00003FFFFFFFFFC00000
00000FFFFFFFFE000000
000000FFFFFFE0000000
ENDCHAR
STARTCHAR ocircumflex
ENCODING 244
SWIDTH 968 0
DWIDTH 83 0
BBX 76 78 4 0
BITMAP
000000007FC000000000
000000007FE000000000
00000000FFE000000000
00000001FBF000000000
00000001F1F800000000
00000003F1F800000000
00000007E0FC00000000
00000007C07E00000000
0000000FC07E00000000
0000001F803F00000000
0000001F001F80000000
0000003F001F80000000
00000000000000000000
00000000000000000000
00000000000000000000
000000FFFFFFE0000000
00000FFFFFFFFE000000
00007FFFFFFFFFC00000
0001FFFFFFFFFFF00000
0007FFFFFFFFFFFC0000
000FFFFFFFFFFFFF0000
003FFFFFFFFFFFFF8000
007FFFFFFFFFFFFFC000
00FFFFFFFFFFFFFFE000
01FFFFFFFFFFFFFFF000
03FFFFFFFFFFFFFFF800
03FFFF8000003FFFFC00
07FFFC00000007FFFE00
0FFFF000000001FFFE00
0FFFE0000000007FFF00
1FFF80000000003FFF00
1FFF00000000001FFF80
3FFE00000000000FFF80
3FFE000000000007FFC0
7FFC000000000003FFC0
7FF8000000000003FFC0
7FF8000000000001FFE0
7FF0000000000001FFE0
FFF0000000000000FFE0
FFE0000000000000FFE0
FFE0000000000000FFE0
FFE0000000000000FFF0
FFE00000000000007FF0
FFE00000000000007FF0
FFE00000000000007FF0
FFE00000000000007FF0
FFE00000000000007FF0
FFE00000000000007FF0
FFE00000000000007FF0
FFE00000000000007FF0
FFE00000000000007FF0
FFE0000000000000FFE0
FFE0000000000000FFE0
FFF0000000000000FFE0
7FF0000000000001FFE0
7FF0000000000001FFE0
7FF8000000000001FFC0
7FF8000000000003FFC0
3FFC000000000007FFC0
3FFE000000000007FF80
1FFE00000000000FFF80
1FFF00000000001FFF00
0FFF80000000003FFF00
0FFFE0000000007FFE00
07FFF000000001FFFE00
03FFFC00000007FFFC00
03FFFF8000003FFFF800
01FFFFFFFFFFFFFFF000
00FFFFFFFFFFFFFFE000
007FFFFFFFFFFFFFC000
003FFFFFFFFFFFFF8000
001FFFFFFFFFFFFF0000
0007FFFFFFFFFFFE0000
0003FFFFFFFFFFF80000
0000FFFFFFFFFFF00000
00003FFFFFFFFFC00000
00000FFFFFFFFE000000
000000FFFFFFE0000000
ENDCHAR
STARTCHAR otilde
ENCODING 245
SWIDTH 968 0
DWIDTH 83 0
BBX 76 77 4 0
BITMAP
00000007E00080000000
0000001FFC0180000000
0000001FFF0380000000
0000001FFFFF80000000
0000001FFFFF80000000
0000001C1FFF80000000
0000001003FF00000000
0000002000FC00000000
00000000000000000000
00000000000000000000
00000000000000000000
00000000000000000000
00000000000000000000
00000000000000000000
000000FFFFFFE0000000
00000FFFFFFFFE000000
00007FFFFFFFFFC00000
0001FFFFFFFFFFF00000
0007FFFFFFFFFFFC0000
000FFFFFFFFFFFFF0000
003FFFFFFFFFFFFF8000
007FFFFFFFFFFFFFC000
00FFFFFFFFFFFFFFE000
01FFFFFFFFFFFFFFF000
03FFFFFFFFFFFFFFF800
03FFFF8000003FFFFC00
07FFFC00000007FFFE00
0FFFF000000001FFFE00
0FFFE0000000007FFF00
1FFF80000000003FFF00
1FFF00000000001FFF80
3FFE00000000000FFF80
3FFE000000000007FFC0
7FFC000000000003FFC0
7FF8000000000003FFC0
7FF8000000000001FFE0
7FF0000000000001FFE0
FFF0000000000000FFE0
FFE0000000000000FFE0
FFE0000000000000FFE0
FFE0000000000000FFF0
FFE00000000000007FF0
FFE00000000000007FF0
FFE00000000000007FF0
FFE00000000000007FF0
FFE00000000000007FF0
FFE00000000000007FF0
FFE00000000000007FF0
FFE00000000000007FF0
FFE00000000000007FF0
FFE0000000000000FFE0
FFE0000000000000FFE0
FFF0000000000000FFE0
7FF0000000000001FFE0
7FF0000000000001FFE0
7FF8000000000001FFC0
7FF8000000000003FFC0
3FFC000000000007FFC0
3FFE000000000007FF80
1FFE00000000000FFF80
1FFF00000000001FFF00
0FFF80000000003FFF00
0FFFE0000000007FFE00
07FFF000000001FFFE00
03FFFC00000007FFFC00
03FFFF8000003FFFF800
01FFFFFFFFFFFFFFF000
00FFFFFFFFFFFFFFE000
007FFFFFFFFFFFFFC000
003FFFFFFFFFFFFF8000
001FFFFFFFFFFFFF0000
0007FFFFFFFFFFFE0000
0003FFFFFFFFFFF80000
0000FFFFFFFFFFF00000
00003FFFFFFFFFC00000
00000FFFFFFFFE000000
000000FFFFFFE0000000
ENDCHAR
STARTCHAR odieresis
ENCODING 246
SWIDTH 968 0
DWIDTH 83 0
BBX 76 78 4 0
BITMAP
0000001F001F00000000
0000003F803F80000000
0000007FC07FC0000000
0000007FC07FC0000000
0000007FC07FC0000000
0000007FC07FC0000000
0000003F803F80000000
0000001F001F00000000
00000000000000000000
00000000000000000000
00000000000000000000
00000000000000000000
00000000000000000000
00000000000000000000
00000000000000000000
000000FFFFFFE0000000
00000FFFFFFFFE000000
00007FFFFFFFFFC00000
0001FFFFFFFFFFF00000
0007FFFFFFFFFFFC0000
000FFFFFFFFFFFFF0000
003FFFFFFFFFFFFF8000
007FFFFFFFFFFFFFC000
00FFFFFFFFFFFFFFE000
01FFFFFFFFFFFFFFF000
03FFFFFFFFFFFFFFF800
03FFFF8000003FFFFC00
07FFFC00000007FFFE00
0FFFF000000001FFFE00
0FFFE0000000007FFF00
1FFF80000000003FFF00
1FFF00000000001FFF80
3FFE00000000000FFF80
3FFE000000000007FFC0
7FFC000000000003FFC0
7FF8000000000003FFC0
7FF8000000000001FFE0
7FF0000000000001FFE0
FFF0000000000000FFE0
FFE0000000000000FFE0
FFE0000000000000FFE0
FFE0000000000000FFF0
FFE00000000000007FF0
FFE00000000000007FF0
FFE00000000000007FF0
FFE00000000000007FF0
FFE00000000000007FF0
FFE00000000000007FF0
FFE00000000000007FF0
FFE00000000000007FF0
FFE00000000000007FF0
FFE0000000000000FFE0
FFE0000000000000FFE0
FFF0000000000000FFE0
7FF0000000000001FFE0
7FF0000000000001FFE0
7FF8000000000001FFC0
7FF8000000000003FFC0
3FFC000000000007FFC0
3FFE000000000007FF80
1FFE00000000000FFF80
1FFF00000000001FFF00
0FFF80000000003FFF00
0FFFE0000000007FFE00
07FFF000000001FFFE00
03FFFC00000007FFFC00
03FFFF8000003FFFF800
01FFFFFFFFFFFFFFF000
00FFFFFFFFFFFFFFE000
007FFFFFFFFFFFFFC000
003FFFFFFFFFFFFF8000
001FFFFFFFFFFFFF0000
0007FFFFFFFFFFFE0000
0003FFFFFFFFFFF80000
0000FFFFFFFFFFF00000
00003FFFFFFFFFC00000
00000FFFFFFFFE000000
000000FFFFFFE0000000
ENDCHAR
ENDFONT
